%TF.GenerationSoftware,KiCad,Pcbnew,9.0.2*%
%TF.CreationDate,2025-07-22T14:00:08+09:00*%
%TF.ProjectId,Power_Distribution_Board,506f7765-725f-4446-9973-747269627574,rev?*%
%TF.SameCoordinates,Original*%
%TF.FileFunction,Copper,L2,Bot*%
%TF.FilePolarity,Positive*%
%FSLAX46Y46*%
G04 Gerber Fmt 4.6, Leading zero omitted, Abs format (unit mm)*
G04 Created by KiCad (PCBNEW 9.0.2) date 2025-07-22 14:00:08*
%MOMM*%
%LPD*%
G01*
G04 APERTURE LIST*
%TA.AperFunction,ComponentPad*%
%ADD10C,6.400000*%
%TD*%
%TA.AperFunction,ComponentPad*%
%ADD11R,4.050000X4.050000*%
%TD*%
%TA.AperFunction,ComponentPad*%
%ADD12C,4.050000*%
%TD*%
%TA.AperFunction,ComponentPad*%
%ADD13C,2.700000*%
%TD*%
%TA.AperFunction,ComponentPad*%
%ADD14C,2.550000*%
%TD*%
%TA.AperFunction,ComponentPad*%
%ADD15C,1.500000*%
%TD*%
%TA.AperFunction,ComponentPad*%
%ADD16R,4.350000X4.350000*%
%TD*%
%TA.AperFunction,ComponentPad*%
%ADD17C,4.350000*%
%TD*%
%TA.AperFunction,ComponentPad*%
%ADD18C,3.000000*%
%TD*%
%TA.AperFunction,ComponentPad*%
%ADD19C,2.000000*%
%TD*%
%TA.AperFunction,ComponentPad*%
%ADD20C,2.250000*%
%TD*%
%TA.AperFunction,ComponentPad*%
%ADD21C,3.045000*%
%TD*%
%TA.AperFunction,ComponentPad*%
%ADD22C,2.280000*%
%TD*%
%TA.AperFunction,ViaPad*%
%ADD23C,0.600000*%
%TD*%
G04 APERTURE END LIST*
D10*
%TO.P,H9,1,1*%
%TO.N,GND*%
X177000000Y-89000000D03*
%TD*%
D11*
%TO.P,J6,1,1*%
%TO.N,+24V*%
X64970000Y-64000000D03*
D12*
%TO.P,J6,2,2*%
%TO.N,GND*%
X72170000Y-64000000D03*
D13*
%TO.P,J6,3,MH1*%
X61820000Y-58000000D03*
%TO.P,J6,4,MH2*%
X75320000Y-58000000D03*
%TD*%
D11*
%TO.P,J24,1,1*%
%TO.N,PVDD*%
X173225000Y-194925000D03*
D12*
%TO.P,J24,2,2*%
%TO.N,GND*%
X166025000Y-194925000D03*
D13*
%TO.P,J24,3,MH1*%
%TO.N,PVDD*%
X176375000Y-200925000D03*
%TO.P,J24,4,MH2*%
%TO.N,GND*%
X162875000Y-200925000D03*
%TD*%
D10*
%TO.P,H5,1,1*%
%TO.N,GND*%
X150000000Y-134000000D03*
%TD*%
%TO.P,H6,1,1*%
%TO.N,GND*%
X83000000Y-75000000D03*
%TD*%
D11*
%TO.P,J27,1,1*%
%TO.N,+24V*%
X127010000Y-64000000D03*
D12*
%TO.P,J27,2,2*%
%TO.N,GND*%
X134210000Y-64000000D03*
D13*
%TO.P,J27,3,MH1*%
X123860000Y-58000000D03*
%TO.P,J27,4,MH2*%
X137360000Y-58000000D03*
%TD*%
D11*
%TO.P,J13,1,1*%
%TO.N,+15V*%
X168370000Y-64000000D03*
D12*
%TO.P,J13,2,2*%
%TO.N,GND*%
X175570000Y-64000000D03*
D13*
%TO.P,J13,3,MH1*%
X165220000Y-58000000D03*
%TO.P,J13,4,MH2*%
X178720000Y-58000000D03*
%TD*%
D11*
%TO.P,J11,1,1*%
%TO.N,+48V_IN*%
X99000000Y-194925000D03*
D12*
%TO.P,J11,2,2*%
%TO.N,PVDD*%
X91800000Y-194925000D03*
D13*
%TO.P,J11,3,MH1*%
%TO.N,unconnected-(J11-MH1-Pad3)*%
X102150000Y-200925000D03*
%TO.P,J11,4,MH2*%
%TO.N,unconnected-(J11-MH2-Pad4)*%
X88650000Y-200925000D03*
%TD*%
D14*
%TO.P,J19,1,1*%
%TO.N,+12V*%
X218500000Y-100500000D03*
%TO.P,J19,2,2*%
%TO.N,GND*%
X218500000Y-105500000D03*
D15*
%TO.P,J19,3,3*%
X223500000Y-97500000D03*
%TO.P,J19,4,4*%
X223500000Y-108500000D03*
%TD*%
D11*
%TO.P,J1,1,1*%
%TO.N,PVDD*%
X70500000Y-153760000D03*
D12*
%TO.P,J1,2,2*%
%TO.N,GND*%
X70500000Y-146560000D03*
D13*
%TO.P,J1,3,MH1*%
%TO.N,PVDD*%
X64500000Y-156910000D03*
%TO.P,J1,4,MH2*%
%TO.N,GND*%
X64500000Y-143410000D03*
%TD*%
D10*
%TO.P,H7,1,1*%
%TO.N,GND*%
X83000000Y-163000000D03*
%TD*%
D11*
%TO.P,J4,1,1*%
%TO.N,PVDD*%
X152100000Y-194925000D03*
D12*
%TO.P,J4,2,2*%
%TO.N,GND*%
X144900000Y-194925000D03*
D13*
%TO.P,J4,3,MH1*%
%TO.N,PVDD*%
X155250000Y-200925000D03*
%TO.P,J4,4,MH2*%
%TO.N,GND*%
X141750000Y-200925000D03*
%TD*%
D11*
%TO.P,J8,1,1*%
%TO.N,+24V*%
X70500000Y-112170001D03*
D12*
%TO.P,J8,2,2*%
%TO.N,GND*%
X70500000Y-104970001D03*
D13*
%TO.P,J8,3,MH1*%
X64500000Y-115320001D03*
%TO.P,J8,4,MH2*%
X64500000Y-101820001D03*
%TD*%
D11*
%TO.P,J7,1,1*%
%TO.N,+24V*%
X70500000Y-91375001D03*
D12*
%TO.P,J7,2,2*%
%TO.N,GND*%
X70500000Y-84175001D03*
D13*
%TO.P,J7,3,MH1*%
X64500000Y-94525001D03*
%TO.P,J7,4,MH2*%
X64500000Y-81025001D03*
%TD*%
D14*
%TO.P,J20,1,1*%
%TO.N,+12V*%
X218500000Y-116900000D03*
%TO.P,J20,2,2*%
%TO.N,GND*%
X218500000Y-121900000D03*
D15*
%TO.P,J20,3,3*%
X223500000Y-113900000D03*
%TO.P,J20,4,4*%
X223500000Y-124900000D03*
%TD*%
D10*
%TO.P,H3,1,1*%
%TO.N,GND*%
X64000000Y-206500000D03*
%TD*%
%TO.P,H4,1,1*%
%TO.N,GND*%
X208000000Y-202500000D03*
%TD*%
D14*
%TO.P,J17,1,1*%
%TO.N,+12V*%
X219500000Y-63637500D03*
%TO.P,J17,2,2*%
%TO.N,GND*%
X224500000Y-63637500D03*
D15*
%TO.P,J17,3,3*%
X216500000Y-58637500D03*
%TO.P,J17,4,4*%
X227500000Y-58637500D03*
%TD*%
D14*
%TO.P,J16,1,1*%
%TO.N,+12V*%
X204000000Y-63637500D03*
%TO.P,J16,2,2*%
%TO.N,GND*%
X209000000Y-63637500D03*
D15*
%TO.P,J16,3,3*%
X201000000Y-58637500D03*
%TO.P,J16,4,4*%
X212000000Y-58637500D03*
%TD*%
D10*
%TO.P,H1,1,1*%
%TO.N,GND*%
X224000000Y-72500000D03*
%TD*%
D11*
%TO.P,J10,1,1*%
%TO.N,+15V*%
X217500000Y-134050000D03*
D12*
%TO.P,J10,2,2*%
%TO.N,GND*%
X217500000Y-141250000D03*
D13*
%TO.P,J10,3,MH1*%
X223500000Y-130900000D03*
%TO.P,J10,4,MH2*%
X223500000Y-144400000D03*
%TD*%
D16*
%TO.P,PS1,1,+*%
%TO.N,+48V_IN*%
X122300000Y-194500000D03*
D17*
%TO.P,PS1,2,-*%
%TO.N,GND*%
X129500000Y-194500000D03*
D18*
%TO.P,PS1,MH1,MH1*%
%TO.N,+48V_IN*%
X119150000Y-200500000D03*
%TO.P,PS1,MH2,MH2*%
%TO.N,GND*%
X132650000Y-200500000D03*
%TD*%
D11*
%TO.P,J14,1,1*%
%TO.N,+15V*%
X217500000Y-155150000D03*
D12*
%TO.P,J14,2,2*%
%TO.N,GND*%
X217500000Y-162350000D03*
D13*
%TO.P,J14,3,MH1*%
X223500000Y-152000000D03*
%TO.P,J14,4,MH2*%
X223500000Y-165500000D03*
%TD*%
D10*
%TO.P,H2,1,1*%
%TO.N,GND*%
X64000000Y-72500000D03*
%TD*%
%TO.P,H8,1,1*%
%TO.N,GND*%
X150000000Y-163000000D03*
%TD*%
D14*
%TO.P,J18,1,1*%
%TO.N,+12V*%
X218500000Y-84100000D03*
%TO.P,J18,2,2*%
%TO.N,GND*%
X218500000Y-89100000D03*
D15*
%TO.P,J18,3,3*%
X223500000Y-81100000D03*
%TO.P,J18,4,4*%
X223500000Y-92100000D03*
%TD*%
D11*
%TO.P,J26,1,1*%
%TO.N,+24V*%
X106330000Y-64000000D03*
D12*
%TO.P,J26,2,2*%
%TO.N,GND*%
X113530000Y-64000000D03*
D13*
%TO.P,J26,3,MH1*%
X103180000Y-58000000D03*
%TO.P,J26,4,MH2*%
X116680000Y-58000000D03*
%TD*%
D11*
%TO.P,J2,1,1*%
%TO.N,PVDD*%
X217500000Y-197650000D03*
D12*
%TO.P,J2,2,2*%
%TO.N,GND*%
X217500000Y-204850000D03*
D13*
%TO.P,J2,3,MH1*%
%TO.N,PVDD*%
X223500000Y-194500000D03*
%TO.P,J2,4,MH2*%
%TO.N,GND*%
X223500000Y-208000000D03*
%TD*%
D11*
%TO.P,J22,1,1*%
%TO.N,PVDD*%
X70500000Y-174555000D03*
D12*
%TO.P,J22,2,2*%
%TO.N,GND*%
X70500000Y-167355000D03*
D13*
%TO.P,J22,3,MH1*%
%TO.N,PVDD*%
X64500000Y-177705000D03*
%TO.P,J22,4,MH2*%
%TO.N,GND*%
X64500000Y-164205000D03*
%TD*%
D11*
%TO.P,J21,1,1*%
%TO.N,PVDD*%
X194350000Y-194925000D03*
D12*
%TO.P,J21,2,2*%
%TO.N,GND*%
X187150000Y-194925000D03*
D13*
%TO.P,J21,3,MH1*%
%TO.N,PVDD*%
X197500000Y-200925000D03*
%TO.P,J21,4,MH2*%
%TO.N,GND*%
X184000000Y-200925000D03*
%TD*%
D11*
%TO.P,J23,1,1*%
%TO.N,PVDD*%
X217500000Y-176400000D03*
D12*
%TO.P,J23,2,2*%
%TO.N,GND*%
X217500000Y-183600000D03*
D13*
%TO.P,J23,3,MH1*%
%TO.N,PVDD*%
X223500000Y-173250000D03*
%TO.P,J23,4,MH2*%
%TO.N,GND*%
X223500000Y-186750000D03*
%TD*%
D11*
%TO.P,J25,1,1*%
%TO.N,+24V*%
X85650000Y-64000000D03*
D12*
%TO.P,J25,2,2*%
%TO.N,GND*%
X92850000Y-64000000D03*
D13*
%TO.P,J25,3,MH1*%
X82500000Y-58000000D03*
%TO.P,J25,4,MH2*%
X96000000Y-58000000D03*
%TD*%
D11*
%TO.P,J12,1,1*%
%TO.N,+15V*%
X147690000Y-64000000D03*
D12*
%TO.P,J12,2,2*%
%TO.N,GND*%
X154890000Y-64000000D03*
D13*
%TO.P,J12,3,MH1*%
X144540000Y-58000000D03*
%TO.P,J12,4,MH2*%
X158040000Y-58000000D03*
%TD*%
D14*
%TO.P,J15,1,1*%
%TO.N,+12V*%
X188500000Y-63637500D03*
%TO.P,J15,2,2*%
%TO.N,GND*%
X193500000Y-63637500D03*
D15*
%TO.P,J15,3,3*%
X185500000Y-58637500D03*
%TO.P,J15,4,4*%
X196500000Y-58637500D03*
%TD*%
D10*
%TO.P,H10,1,1*%
%TO.N,GND*%
X202000000Y-165000000D03*
%TD*%
D11*
%TO.P,J9,1,1*%
%TO.N,+24V*%
X70500000Y-132965001D03*
D12*
%TO.P,J9,2,2*%
%TO.N,GND*%
X70500000Y-125765001D03*
D13*
%TO.P,J9,3,MH1*%
X64500000Y-136115001D03*
%TO.P,J9,4,MH2*%
X64500000Y-122615001D03*
%TD*%
D11*
%TO.P,J3,1,1*%
%TO.N,PVDD*%
X70500000Y-195350000D03*
D12*
%TO.P,J3,2,2*%
%TO.N,GND*%
X70500000Y-188150000D03*
D13*
%TO.P,J3,3,MH1*%
%TO.N,PVDD*%
X64500000Y-198500000D03*
%TO.P,J3,4,MH2*%
%TO.N,GND*%
X64500000Y-185000000D03*
%TD*%
D19*
%TO.P,PS2,1,+VIN_(VCC)*%
%TO.N,+24V*%
X136780000Y-104719999D03*
%TO.P,PS2,2,-VIN_(GND)*%
%TO.N,GND*%
X136780000Y-109799999D03*
%TO.P,PS2,3,REMOTE_ON/OFF*%
%TO.N,unconnected-(PS2-REMOTE_ON{slash}OFF-Pad3)*%
X136780000Y-119959999D03*
%TO.P,PS2,4,+VOUT*%
%TO.N,+12V*%
X182500000Y-102179999D03*
%TO.P,PS2,5,-VOUT*%
%TO.N,GND*%
X182500000Y-112339999D03*
%TO.P,PS2,6,TRIM*%
%TO.N,unconnected-(PS2-TRIM-Pad6)*%
X182500000Y-122499999D03*
%TD*%
D20*
%TO.P,PS3,1,+VIN*%
%TO.N,+24V*%
X105280000Y-77082500D03*
%TO.P,PS3,2,-VIN*%
%TO.N,GND*%
X105280000Y-82162500D03*
%TO.P,PS3,3,CTRL*%
%TO.N,unconnected-(PS3-CTRL-Pad3)*%
X105280000Y-92322500D03*
%TO.P,PS3,4,TRIM*%
%TO.N,unconnected-(PS3-TRIM-Pad4)*%
X151000000Y-94862500D03*
%TO.P,PS3,5,-VOUT*%
%TO.N,GND*%
X151000000Y-84702500D03*
%TO.P,PS3,6,+VOUT*%
%TO.N,+15V*%
X151000000Y-74542500D03*
%TD*%
D21*
%TO.P,J5,A1,+IN*%
%TO.N,PVDD*%
X103000000Y-149600000D03*
%TO.P,J5,A2,+OUT_1*%
%TO.N,+24V*%
X103250000Y-112400000D03*
D22*
%TO.P,J5,B1,TR*%
%TO.N,unconnected-(J5-TR-PadB1)*%
X96380000Y-149600000D03*
D21*
%TO.P,J5,B2,-OUT_1*%
%TO.N,GND*%
X97750000Y-112400000D03*
D22*
%TO.P,J5,C1,EN*%
%TO.N,unconnected-(J5-EN-PadC1)*%
X93620000Y-149600000D03*
D21*
%TO.P,J5,C2,+OUT_2*%
%TO.N,+24V*%
X92250000Y-112400000D03*
D22*
%TO.P,J5,D1,FT*%
%TO.N,unconnected-(J5-FT-PadD1)*%
X90870000Y-149600000D03*
D21*
%TO.P,J5,D2,-OUT_2*%
%TO.N,GND*%
X86750000Y-112400000D03*
%TO.P,J5,E1,-IN*%
X87000000Y-149600000D03*
%TD*%
D23*
%TO.N,GND*%
X77500000Y-204000000D03*
X106000000Y-202500000D03*
X159000000Y-70000000D03*
X201000000Y-70000000D03*
X126500000Y-71000000D03*
%TD*%
%TA.AperFunction,Conductor*%
%TO.N,GND*%
G36*
X229516177Y-48020185D02*
G01*
X229536819Y-48036819D01*
X233463181Y-51963181D01*
X233496666Y-52024504D01*
X233499500Y-52050862D01*
X233499500Y-207949138D01*
X233479815Y-208016177D01*
X233463181Y-208036819D01*
X229536819Y-211963181D01*
X229475496Y-211996666D01*
X229449138Y-211999500D01*
X58550862Y-211999500D01*
X58483823Y-211979815D01*
X58463181Y-211963181D01*
X54536819Y-208036819D01*
X54503334Y-207975496D01*
X54500500Y-207949138D01*
X54500500Y-200803711D01*
X86799500Y-200803711D01*
X86799500Y-201046288D01*
X86831161Y-201286785D01*
X86893947Y-201521104D01*
X86986773Y-201745205D01*
X86986776Y-201745212D01*
X87108064Y-201955289D01*
X87108066Y-201955292D01*
X87108067Y-201955293D01*
X87255733Y-202147736D01*
X87255739Y-202147743D01*
X87427256Y-202319260D01*
X87427262Y-202319265D01*
X87619711Y-202466936D01*
X87829788Y-202588224D01*
X88053900Y-202681054D01*
X88288211Y-202743838D01*
X88468586Y-202767584D01*
X88528711Y-202775500D01*
X88528712Y-202775500D01*
X88771289Y-202775500D01*
X88819388Y-202769167D01*
X89011789Y-202743838D01*
X89246100Y-202681054D01*
X89470212Y-202588224D01*
X89680289Y-202466936D01*
X89872738Y-202319265D01*
X90044265Y-202147738D01*
X90191936Y-201955289D01*
X90313224Y-201745212D01*
X90406054Y-201521100D01*
X90468838Y-201286789D01*
X90500500Y-201046288D01*
X90500500Y-200803712D01*
X90500500Y-200803711D01*
X100299500Y-200803711D01*
X100299500Y-201046288D01*
X100331161Y-201286785D01*
X100393947Y-201521104D01*
X100486773Y-201745205D01*
X100486776Y-201745212D01*
X100608064Y-201955289D01*
X100608066Y-201955292D01*
X100608067Y-201955293D01*
X100755733Y-202147736D01*
X100755739Y-202147743D01*
X100927256Y-202319260D01*
X100927262Y-202319265D01*
X101119711Y-202466936D01*
X101329788Y-202588224D01*
X101553900Y-202681054D01*
X101788211Y-202743838D01*
X101968586Y-202767584D01*
X102028711Y-202775500D01*
X102028712Y-202775500D01*
X102271289Y-202775500D01*
X102319388Y-202769167D01*
X102511789Y-202743838D01*
X102746100Y-202681054D01*
X102970212Y-202588224D01*
X103180289Y-202466936D01*
X103372738Y-202319265D01*
X103544265Y-202147738D01*
X103691936Y-201955289D01*
X103813224Y-201745212D01*
X103906054Y-201521100D01*
X103968838Y-201286789D01*
X104000500Y-201046288D01*
X104000500Y-200803712D01*
X103968838Y-200563211D01*
X103916765Y-200368872D01*
X117149500Y-200368872D01*
X117149500Y-200631127D01*
X117172223Y-200803712D01*
X117183730Y-200891116D01*
X117225308Y-201046288D01*
X117251602Y-201144418D01*
X117251605Y-201144428D01*
X117351953Y-201386690D01*
X117351958Y-201386700D01*
X117483075Y-201613803D01*
X117642718Y-201821851D01*
X117642726Y-201821860D01*
X117828140Y-202007274D01*
X117828148Y-202007281D01*
X118036196Y-202166924D01*
X118263299Y-202298041D01*
X118263309Y-202298046D01*
X118505571Y-202398394D01*
X118505581Y-202398398D01*
X118758884Y-202466270D01*
X119018880Y-202500500D01*
X119018887Y-202500500D01*
X119281113Y-202500500D01*
X119281120Y-202500500D01*
X119541116Y-202466270D01*
X119794419Y-202398398D01*
X120036697Y-202298043D01*
X120263803Y-202166924D01*
X120471851Y-202007282D01*
X120471855Y-202007277D01*
X120471860Y-202007274D01*
X120657274Y-201821860D01*
X120657277Y-201821855D01*
X120657282Y-201821851D01*
X120816924Y-201613803D01*
X120948043Y-201386697D01*
X121048398Y-201144419D01*
X121116270Y-200891116D01*
X121127777Y-200803711D01*
X153399500Y-200803711D01*
X153399500Y-201046288D01*
X153431161Y-201286785D01*
X153493947Y-201521104D01*
X153586773Y-201745205D01*
X153586776Y-201745212D01*
X153708064Y-201955289D01*
X153708066Y-201955292D01*
X153708067Y-201955293D01*
X153855733Y-202147736D01*
X153855739Y-202147743D01*
X154027256Y-202319260D01*
X154027262Y-202319265D01*
X154219711Y-202466936D01*
X154429788Y-202588224D01*
X154653900Y-202681054D01*
X154888211Y-202743838D01*
X155068586Y-202767584D01*
X155128711Y-202775500D01*
X155128712Y-202775500D01*
X155371289Y-202775500D01*
X155419388Y-202769167D01*
X155611789Y-202743838D01*
X155846100Y-202681054D01*
X156070212Y-202588224D01*
X156280289Y-202466936D01*
X156472738Y-202319265D01*
X156644265Y-202147738D01*
X156791936Y-201955289D01*
X156913224Y-201745212D01*
X157006054Y-201521100D01*
X157068838Y-201286789D01*
X157100500Y-201046288D01*
X157100500Y-200803712D01*
X157100500Y-200803711D01*
X174524500Y-200803711D01*
X174524500Y-201046288D01*
X174556161Y-201286785D01*
X174618947Y-201521104D01*
X174711773Y-201745205D01*
X174711776Y-201745212D01*
X174833064Y-201955289D01*
X174833066Y-201955292D01*
X174833067Y-201955293D01*
X174980733Y-202147736D01*
X174980739Y-202147743D01*
X175152256Y-202319260D01*
X175152262Y-202319265D01*
X175344711Y-202466936D01*
X175554788Y-202588224D01*
X175778900Y-202681054D01*
X176013211Y-202743838D01*
X176193586Y-202767584D01*
X176253711Y-202775500D01*
X176253712Y-202775500D01*
X176496289Y-202775500D01*
X176544388Y-202769167D01*
X176736789Y-202743838D01*
X176971100Y-202681054D01*
X177195212Y-202588224D01*
X177405289Y-202466936D01*
X177597738Y-202319265D01*
X177769265Y-202147738D01*
X177916936Y-201955289D01*
X178038224Y-201745212D01*
X178131054Y-201521100D01*
X178193838Y-201286789D01*
X178225500Y-201046288D01*
X178225500Y-200803712D01*
X178225500Y-200803711D01*
X195649500Y-200803711D01*
X195649500Y-201046288D01*
X195681161Y-201286785D01*
X195743947Y-201521104D01*
X195836773Y-201745205D01*
X195836776Y-201745212D01*
X195958064Y-201955289D01*
X195958066Y-201955292D01*
X195958067Y-201955293D01*
X196105733Y-202147736D01*
X196105739Y-202147743D01*
X196277256Y-202319260D01*
X196277262Y-202319265D01*
X196469711Y-202466936D01*
X196679788Y-202588224D01*
X196903900Y-202681054D01*
X197138211Y-202743838D01*
X197318586Y-202767584D01*
X197378711Y-202775500D01*
X197378712Y-202775500D01*
X197621289Y-202775500D01*
X197669388Y-202769167D01*
X197861789Y-202743838D01*
X198096100Y-202681054D01*
X198320212Y-202588224D01*
X198530289Y-202466936D01*
X198722738Y-202319265D01*
X198894265Y-202147738D01*
X199041936Y-201955289D01*
X199163224Y-201745212D01*
X199256054Y-201521100D01*
X199318838Y-201286789D01*
X199350500Y-201046288D01*
X199350500Y-200803712D01*
X199318838Y-200563211D01*
X199256054Y-200328900D01*
X199163224Y-200104788D01*
X199041936Y-199894711D01*
X198910083Y-199722876D01*
X198894266Y-199702263D01*
X198894260Y-199702256D01*
X198722743Y-199530739D01*
X198722736Y-199530733D01*
X198530293Y-199383067D01*
X198530292Y-199383066D01*
X198530289Y-199383064D01*
X198320212Y-199261776D01*
X198320205Y-199261773D01*
X198096104Y-199168947D01*
X197861785Y-199106161D01*
X197621289Y-199074500D01*
X197621288Y-199074500D01*
X197378712Y-199074500D01*
X197378711Y-199074500D01*
X197138214Y-199106161D01*
X196903895Y-199168947D01*
X196679794Y-199261773D01*
X196679785Y-199261777D01*
X196469706Y-199383067D01*
X196277263Y-199530733D01*
X196277256Y-199530739D01*
X196105739Y-199702256D01*
X196105733Y-199702263D01*
X195958067Y-199894706D01*
X195836777Y-200104785D01*
X195836773Y-200104794D01*
X195743947Y-200328895D01*
X195681161Y-200563214D01*
X195649500Y-200803711D01*
X178225500Y-200803711D01*
X178193838Y-200563211D01*
X178131054Y-200328900D01*
X178038224Y-200104788D01*
X177916936Y-199894711D01*
X177785083Y-199722876D01*
X177769266Y-199702263D01*
X177769260Y-199702256D01*
X177597743Y-199530739D01*
X177597736Y-199530733D01*
X177405293Y-199383067D01*
X177405292Y-199383066D01*
X177405289Y-199383064D01*
X177195212Y-199261776D01*
X177195205Y-199261773D01*
X176971104Y-199168947D01*
X176736785Y-199106161D01*
X176496289Y-199074500D01*
X176496288Y-199074500D01*
X176253712Y-199074500D01*
X176253711Y-199074500D01*
X176013214Y-199106161D01*
X175778895Y-199168947D01*
X175554794Y-199261773D01*
X175554785Y-199261777D01*
X175344706Y-199383067D01*
X175152263Y-199530733D01*
X175152256Y-199530739D01*
X174980739Y-199702256D01*
X174980733Y-199702263D01*
X174833067Y-199894706D01*
X174711777Y-200104785D01*
X174711773Y-200104794D01*
X174618947Y-200328895D01*
X174556161Y-200563214D01*
X174524500Y-200803711D01*
X157100500Y-200803711D01*
X157068838Y-200563211D01*
X157006054Y-200328900D01*
X156913224Y-200104788D01*
X156791936Y-199894711D01*
X156660083Y-199722876D01*
X156644266Y-199702263D01*
X156644260Y-199702256D01*
X156472743Y-199530739D01*
X156472736Y-199530733D01*
X156280293Y-199383067D01*
X156280292Y-199383066D01*
X156280289Y-199383064D01*
X156070212Y-199261776D01*
X156070205Y-199261773D01*
X155846104Y-199168947D01*
X155611785Y-199106161D01*
X155371289Y-199074500D01*
X155371288Y-199074500D01*
X155128712Y-199074500D01*
X155128711Y-199074500D01*
X154888214Y-199106161D01*
X154653895Y-199168947D01*
X154429794Y-199261773D01*
X154429785Y-199261777D01*
X154219706Y-199383067D01*
X154027263Y-199530733D01*
X154027256Y-199530739D01*
X153855739Y-199702256D01*
X153855733Y-199702263D01*
X153708067Y-199894706D01*
X153586777Y-200104785D01*
X153586773Y-200104794D01*
X153493947Y-200328895D01*
X153431161Y-200563214D01*
X153399500Y-200803711D01*
X121127777Y-200803711D01*
X121150500Y-200631120D01*
X121150500Y-200368880D01*
X121116270Y-200108884D01*
X121048398Y-199855581D01*
X121018120Y-199782483D01*
X120948046Y-199613309D01*
X120948041Y-199613299D01*
X120816924Y-199386196D01*
X120657281Y-199178148D01*
X120657274Y-199178140D01*
X120471860Y-198992726D01*
X120471851Y-198992718D01*
X120263803Y-198833075D01*
X120036700Y-198701958D01*
X120036690Y-198701953D01*
X119794428Y-198601605D01*
X119794421Y-198601603D01*
X119794419Y-198601602D01*
X119541116Y-198533730D01*
X119483339Y-198526123D01*
X119281127Y-198499500D01*
X119281120Y-198499500D01*
X119018880Y-198499500D01*
X119018872Y-198499500D01*
X118787772Y-198529926D01*
X118758884Y-198533730D01*
X118505581Y-198601602D01*
X118505571Y-198601605D01*
X118263309Y-198701953D01*
X118263299Y-198701958D01*
X118036196Y-198833075D01*
X117828148Y-198992718D01*
X117642718Y-199178148D01*
X117483075Y-199386196D01*
X117351958Y-199613299D01*
X117351953Y-199613309D01*
X117251605Y-199855571D01*
X117251602Y-199855581D01*
X117183730Y-200108884D01*
X117182425Y-200118796D01*
X117149500Y-200368872D01*
X103916765Y-200368872D01*
X103906054Y-200328900D01*
X103813224Y-200104788D01*
X103691936Y-199894711D01*
X103560083Y-199722876D01*
X103544266Y-199702263D01*
X103544260Y-199702256D01*
X103372743Y-199530739D01*
X103372736Y-199530733D01*
X103180293Y-199383067D01*
X103180292Y-199383066D01*
X103180289Y-199383064D01*
X102970212Y-199261776D01*
X102970205Y-199261773D01*
X102746104Y-199168947D01*
X102511785Y-199106161D01*
X102271289Y-199074500D01*
X102271288Y-199074500D01*
X102028712Y-199074500D01*
X102028711Y-199074500D01*
X101788214Y-199106161D01*
X101553895Y-199168947D01*
X101329794Y-199261773D01*
X101329785Y-199261777D01*
X101119706Y-199383067D01*
X100927263Y-199530733D01*
X100927256Y-199530739D01*
X100755739Y-199702256D01*
X100755733Y-199702263D01*
X100608067Y-199894706D01*
X100486777Y-200104785D01*
X100486773Y-200104794D01*
X100393947Y-200328895D01*
X100331161Y-200563214D01*
X100299500Y-200803711D01*
X90500500Y-200803711D01*
X90468838Y-200563211D01*
X90406054Y-200328900D01*
X90313224Y-200104788D01*
X90191936Y-199894711D01*
X90060083Y-199722876D01*
X90044266Y-199702263D01*
X90044260Y-199702256D01*
X89872743Y-199530739D01*
X89872736Y-199530733D01*
X89680293Y-199383067D01*
X89680292Y-199383066D01*
X89680289Y-199383064D01*
X89470212Y-199261776D01*
X89470205Y-199261773D01*
X89246104Y-199168947D01*
X89011785Y-199106161D01*
X88771289Y-199074500D01*
X88771288Y-199074500D01*
X88528712Y-199074500D01*
X88528711Y-199074500D01*
X88288214Y-199106161D01*
X88053895Y-199168947D01*
X87829794Y-199261773D01*
X87829785Y-199261777D01*
X87619706Y-199383067D01*
X87427263Y-199530733D01*
X87427256Y-199530739D01*
X87255739Y-199702256D01*
X87255733Y-199702263D01*
X87108067Y-199894706D01*
X86986777Y-200104785D01*
X86986773Y-200104794D01*
X86893947Y-200328895D01*
X86831161Y-200563214D01*
X86799500Y-200803711D01*
X54500500Y-200803711D01*
X54500500Y-198378711D01*
X62649500Y-198378711D01*
X62649500Y-198621288D01*
X62681161Y-198861785D01*
X62743947Y-199096104D01*
X62812570Y-199261773D01*
X62836776Y-199320212D01*
X62958064Y-199530289D01*
X62958066Y-199530292D01*
X62958067Y-199530293D01*
X63105733Y-199722736D01*
X63105739Y-199722743D01*
X63277256Y-199894260D01*
X63277263Y-199894266D01*
X63277843Y-199894711D01*
X63469711Y-200041936D01*
X63679788Y-200163224D01*
X63903900Y-200256054D01*
X64138211Y-200318838D01*
X64318586Y-200342584D01*
X64378711Y-200350500D01*
X64378712Y-200350500D01*
X64621289Y-200350500D01*
X64669388Y-200344167D01*
X64861789Y-200318838D01*
X65096100Y-200256054D01*
X65320212Y-200163224D01*
X65530289Y-200041936D01*
X65722738Y-199894265D01*
X65894265Y-199722738D01*
X66041936Y-199530289D01*
X66163224Y-199320212D01*
X66256054Y-199096100D01*
X66318838Y-198861789D01*
X66350500Y-198621288D01*
X66350500Y-198378712D01*
X66318838Y-198138211D01*
X66256054Y-197903900D01*
X66163224Y-197679788D01*
X66041936Y-197469711D01*
X65954388Y-197355616D01*
X65894266Y-197277263D01*
X65894260Y-197277256D01*
X65722743Y-197105739D01*
X65722736Y-197105733D01*
X65530293Y-196958067D01*
X65530292Y-196958066D01*
X65530289Y-196958064D01*
X65320212Y-196836776D01*
X65258191Y-196811086D01*
X65096104Y-196743947D01*
X64861785Y-196681161D01*
X64621289Y-196649500D01*
X64621288Y-196649500D01*
X64378712Y-196649500D01*
X64378711Y-196649500D01*
X64138214Y-196681161D01*
X63903895Y-196743947D01*
X63679794Y-196836773D01*
X63679785Y-196836777D01*
X63469706Y-196958067D01*
X63277263Y-197105733D01*
X63277256Y-197105739D01*
X63105739Y-197277256D01*
X63105733Y-197277263D01*
X62958067Y-197469706D01*
X62836777Y-197679785D01*
X62836773Y-197679794D01*
X62743947Y-197903895D01*
X62681161Y-198138214D01*
X62649500Y-198378711D01*
X54500500Y-198378711D01*
X54500500Y-193277135D01*
X67974500Y-193277135D01*
X67974500Y-197422870D01*
X67974501Y-197422876D01*
X67980908Y-197482483D01*
X68031202Y-197617328D01*
X68031206Y-197617335D01*
X68117452Y-197732544D01*
X68117455Y-197732547D01*
X68232664Y-197818793D01*
X68232671Y-197818797D01*
X68367517Y-197869091D01*
X68367516Y-197869091D01*
X68374444Y-197869835D01*
X68427127Y-197875500D01*
X72572872Y-197875499D01*
X72632483Y-197869091D01*
X72767331Y-197818796D01*
X72882546Y-197732546D01*
X72968796Y-197617331D01*
X73019091Y-197482483D01*
X73025500Y-197422873D01*
X73025499Y-194783166D01*
X89274500Y-194783166D01*
X89274500Y-195066833D01*
X89306258Y-195348690D01*
X89306260Y-195348702D01*
X89369380Y-195625253D01*
X89369383Y-195625261D01*
X89463067Y-195892993D01*
X89586139Y-196148554D01*
X89586141Y-196148557D01*
X89737056Y-196388737D01*
X89913914Y-196610510D01*
X90114490Y-196811086D01*
X90336263Y-196987944D01*
X90576443Y-197138859D01*
X90832010Y-197261934D01*
X90962365Y-197307547D01*
X91099738Y-197355616D01*
X91099746Y-197355619D01*
X91099749Y-197355619D01*
X91099750Y-197355620D01*
X91376297Y-197418740D01*
X91658166Y-197450499D01*
X91658167Y-197450500D01*
X91658171Y-197450500D01*
X91941833Y-197450500D01*
X91941833Y-197450499D01*
X92223703Y-197418740D01*
X92500250Y-197355620D01*
X92767990Y-197261934D01*
X93023557Y-197138859D01*
X93263737Y-196987944D01*
X93485510Y-196811086D01*
X93686086Y-196610510D01*
X93862944Y-196388737D01*
X94013859Y-196148557D01*
X94136934Y-195892990D01*
X94230620Y-195625250D01*
X94293740Y-195348703D01*
X94325500Y-195066829D01*
X94325500Y-194783171D01*
X94293740Y-194501297D01*
X94230620Y-194224750D01*
X94136934Y-193957010D01*
X94013859Y-193701443D01*
X93862944Y-193461263D01*
X93686086Y-193239490D01*
X93485510Y-193038914D01*
X93395899Y-192967452D01*
X93368690Y-192945753D01*
X93287750Y-192881206D01*
X93263737Y-192862056D01*
X93247948Y-192852135D01*
X96474500Y-192852135D01*
X96474500Y-196997870D01*
X96474501Y-196997876D01*
X96480908Y-197057483D01*
X96531202Y-197192328D01*
X96531206Y-197192335D01*
X96617452Y-197307544D01*
X96617455Y-197307547D01*
X96732664Y-197393793D01*
X96732671Y-197393797D01*
X96867517Y-197444091D01*
X96867516Y-197444091D01*
X96874444Y-197444835D01*
X96927127Y-197450500D01*
X101072872Y-197450499D01*
X101132483Y-197444091D01*
X101267331Y-197393796D01*
X101382546Y-197307546D01*
X101468796Y-197192331D01*
X101519091Y-197057483D01*
X101525500Y-196997873D01*
X101525499Y-192852128D01*
X101519091Y-192792517D01*
X101500975Y-192743946D01*
X101468797Y-192657671D01*
X101468793Y-192657664D01*
X101382547Y-192542455D01*
X101382544Y-192542452D01*
X101267335Y-192456206D01*
X101267328Y-192456202D01*
X101132482Y-192405908D01*
X101132483Y-192405908D01*
X101072883Y-192399501D01*
X101072881Y-192399500D01*
X101072873Y-192399500D01*
X101072864Y-192399500D01*
X96927129Y-192399500D01*
X96927123Y-192399501D01*
X96867516Y-192405908D01*
X96732671Y-192456202D01*
X96732664Y-192456206D01*
X96617455Y-192542452D01*
X96617452Y-192542455D01*
X96531206Y-192657664D01*
X96531202Y-192657671D01*
X96480908Y-192792517D01*
X96476150Y-192836776D01*
X96474501Y-192852123D01*
X96474500Y-192852135D01*
X93247948Y-192852135D01*
X93097856Y-192757826D01*
X93023554Y-192711139D01*
X92767993Y-192588067D01*
X92500261Y-192494383D01*
X92500253Y-192494380D01*
X92292839Y-192447040D01*
X92223703Y-192431260D01*
X92223699Y-192431259D01*
X92223690Y-192431258D01*
X91941833Y-192399500D01*
X91941829Y-192399500D01*
X91658171Y-192399500D01*
X91658167Y-192399500D01*
X91376309Y-192431258D01*
X91376297Y-192431260D01*
X91099746Y-192494380D01*
X91099738Y-192494383D01*
X90832006Y-192588067D01*
X90576445Y-192711139D01*
X90336264Y-192862055D01*
X90114490Y-193038913D01*
X89913913Y-193239490D01*
X89737055Y-193461264D01*
X89586139Y-193701445D01*
X89463067Y-193957006D01*
X89369383Y-194224738D01*
X89369380Y-194224746D01*
X89306260Y-194501297D01*
X89306258Y-194501309D01*
X89274500Y-194783166D01*
X73025499Y-194783166D01*
X73025499Y-193277128D01*
X73019091Y-193217517D01*
X72977398Y-193105733D01*
X72968797Y-193082671D01*
X72968793Y-193082664D01*
X72882547Y-192967455D01*
X72882544Y-192967452D01*
X72767335Y-192881206D01*
X72767328Y-192881202D01*
X72632482Y-192830908D01*
X72632483Y-192830908D01*
X72572883Y-192824501D01*
X72572881Y-192824500D01*
X72572873Y-192824500D01*
X72572864Y-192824500D01*
X68427129Y-192824500D01*
X68427123Y-192824501D01*
X68367516Y-192830908D01*
X68232671Y-192881202D01*
X68232664Y-192881206D01*
X68117455Y-192967452D01*
X68117452Y-192967455D01*
X68031206Y-193082664D01*
X68031202Y-193082671D01*
X67980908Y-193217517D01*
X67974501Y-193277116D01*
X67974501Y-193277123D01*
X67974500Y-193277135D01*
X54500500Y-193277135D01*
X54500500Y-192277135D01*
X119624500Y-192277135D01*
X119624500Y-196722870D01*
X119624501Y-196722876D01*
X119630908Y-196782483D01*
X119681202Y-196917328D01*
X119681206Y-196917335D01*
X119767452Y-197032544D01*
X119767455Y-197032547D01*
X119882664Y-197118793D01*
X119882671Y-197118797D01*
X120017517Y-197169091D01*
X120017516Y-197169091D01*
X120024444Y-197169835D01*
X120077127Y-197175500D01*
X124522872Y-197175499D01*
X124582483Y-197169091D01*
X124717331Y-197118796D01*
X124832546Y-197032546D01*
X124918796Y-196917331D01*
X124969091Y-196782483D01*
X124975500Y-196722873D01*
X124975499Y-192852135D01*
X149574500Y-192852135D01*
X149574500Y-196997870D01*
X149574501Y-196997876D01*
X149580908Y-197057483D01*
X149631202Y-197192328D01*
X149631206Y-197192335D01*
X149717452Y-197307544D01*
X149717455Y-197307547D01*
X149832664Y-197393793D01*
X149832671Y-197393797D01*
X149967517Y-197444091D01*
X149967516Y-197444091D01*
X149974444Y-197444835D01*
X150027127Y-197450500D01*
X154172872Y-197450499D01*
X154232483Y-197444091D01*
X154367331Y-197393796D01*
X154482546Y-197307546D01*
X154568796Y-197192331D01*
X154619091Y-197057483D01*
X154625500Y-196997873D01*
X154625499Y-192852135D01*
X170699500Y-192852135D01*
X170699500Y-196997870D01*
X170699501Y-196997876D01*
X170705908Y-197057483D01*
X170756202Y-197192328D01*
X170756206Y-197192335D01*
X170842452Y-197307544D01*
X170842455Y-197307547D01*
X170957664Y-197393793D01*
X170957671Y-197393797D01*
X171092517Y-197444091D01*
X171092516Y-197444091D01*
X171099444Y-197444835D01*
X171152127Y-197450500D01*
X175297872Y-197450499D01*
X175357483Y-197444091D01*
X175492331Y-197393796D01*
X175607546Y-197307546D01*
X175693796Y-197192331D01*
X175744091Y-197057483D01*
X175750500Y-196997873D01*
X175750499Y-192852135D01*
X191824500Y-192852135D01*
X191824500Y-196997870D01*
X191824501Y-196997876D01*
X191830908Y-197057483D01*
X191881202Y-197192328D01*
X191881206Y-197192335D01*
X191967452Y-197307544D01*
X191967455Y-197307547D01*
X192082664Y-197393793D01*
X192082671Y-197393797D01*
X192217517Y-197444091D01*
X192217516Y-197444091D01*
X192224444Y-197444835D01*
X192277127Y-197450500D01*
X196422872Y-197450499D01*
X196482483Y-197444091D01*
X196617331Y-197393796D01*
X196732546Y-197307546D01*
X196818796Y-197192331D01*
X196869091Y-197057483D01*
X196875500Y-196997873D01*
X196875500Y-195577135D01*
X214974500Y-195577135D01*
X214974500Y-199722870D01*
X214974501Y-199722876D01*
X214980908Y-199782483D01*
X215031202Y-199917328D01*
X215031206Y-199917335D01*
X215117452Y-200032544D01*
X215117455Y-200032547D01*
X215232664Y-200118793D01*
X215232671Y-200118797D01*
X215367517Y-200169091D01*
X215367516Y-200169091D01*
X215374444Y-200169835D01*
X215427127Y-200175500D01*
X219572872Y-200175499D01*
X219632483Y-200169091D01*
X219767331Y-200118796D01*
X219882546Y-200032546D01*
X219968796Y-199917331D01*
X220019091Y-199782483D01*
X220025500Y-199722873D01*
X220025499Y-195577128D01*
X220019091Y-195517517D01*
X219968796Y-195382669D01*
X219968795Y-195382668D01*
X219968793Y-195382664D01*
X219882547Y-195267455D01*
X219882544Y-195267452D01*
X219767335Y-195181206D01*
X219767328Y-195181202D01*
X219632482Y-195130908D01*
X219632483Y-195130908D01*
X219572883Y-195124501D01*
X219572881Y-195124500D01*
X219572873Y-195124500D01*
X219572864Y-195124500D01*
X215427129Y-195124500D01*
X215427123Y-195124501D01*
X215367516Y-195130908D01*
X215232671Y-195181202D01*
X215232664Y-195181206D01*
X215117455Y-195267452D01*
X215117452Y-195267455D01*
X215031206Y-195382664D01*
X215031202Y-195382671D01*
X214980908Y-195517517D01*
X214979535Y-195530293D01*
X214974501Y-195577123D01*
X214974500Y-195577135D01*
X196875500Y-195577135D01*
X196875500Y-195066829D01*
X196875500Y-194378711D01*
X221649500Y-194378711D01*
X221649500Y-194621288D01*
X221681161Y-194861785D01*
X221743947Y-195096104D01*
X221758364Y-195130909D01*
X221836776Y-195320212D01*
X221958064Y-195530289D01*
X221958066Y-195530292D01*
X221958067Y-195530293D01*
X222105733Y-195722736D01*
X222105739Y-195722743D01*
X222277256Y-195894260D01*
X222277262Y-195894265D01*
X222469711Y-196041936D01*
X222679788Y-196163224D01*
X222903900Y-196256054D01*
X223138211Y-196318838D01*
X223318586Y-196342584D01*
X223378711Y-196350500D01*
X223378712Y-196350500D01*
X223621289Y-196350500D01*
X223669388Y-196344167D01*
X223861789Y-196318838D01*
X224096100Y-196256054D01*
X224320212Y-196163224D01*
X224530289Y-196041936D01*
X224722738Y-195894265D01*
X224894265Y-195722738D01*
X225041936Y-195530289D01*
X225163224Y-195320212D01*
X225256054Y-195096100D01*
X225318838Y-194861789D01*
X225350500Y-194621288D01*
X225350500Y-194378712D01*
X225318838Y-194138211D01*
X225256054Y-193903900D01*
X225163224Y-193679788D01*
X225041936Y-193469711D01*
X224894265Y-193277262D01*
X224894260Y-193277256D01*
X224722743Y-193105739D01*
X224722736Y-193105733D01*
X224530293Y-192958067D01*
X224530292Y-192958066D01*
X224530289Y-192958064D01*
X224346804Y-192852129D01*
X224320214Y-192836777D01*
X224320205Y-192836773D01*
X224096104Y-192743947D01*
X223861785Y-192681161D01*
X223621289Y-192649500D01*
X223621288Y-192649500D01*
X223378712Y-192649500D01*
X223378711Y-192649500D01*
X223138214Y-192681161D01*
X222903895Y-192743947D01*
X222679794Y-192836773D01*
X222679785Y-192836777D01*
X222469706Y-192958067D01*
X222277263Y-193105733D01*
X222277256Y-193105739D01*
X222105739Y-193277256D01*
X222105733Y-193277263D01*
X221958067Y-193469706D01*
X221836777Y-193679785D01*
X221836773Y-193679794D01*
X221743947Y-193903895D01*
X221681161Y-194138214D01*
X221649500Y-194378711D01*
X196875500Y-194378711D01*
X196875500Y-194374653D01*
X196875499Y-192852129D01*
X196875498Y-192852123D01*
X196875497Y-192852116D01*
X196869091Y-192792517D01*
X196850975Y-192743946D01*
X196818797Y-192657671D01*
X196818793Y-192657664D01*
X196732547Y-192542455D01*
X196732544Y-192542452D01*
X196617335Y-192456206D01*
X196617328Y-192456202D01*
X196482482Y-192405908D01*
X196482483Y-192405908D01*
X196422883Y-192399501D01*
X196422881Y-192399500D01*
X196422873Y-192399500D01*
X196422864Y-192399500D01*
X192277129Y-192399500D01*
X192277123Y-192399501D01*
X192217516Y-192405908D01*
X192082671Y-192456202D01*
X192082664Y-192456206D01*
X191967455Y-192542452D01*
X191967452Y-192542455D01*
X191881206Y-192657664D01*
X191881202Y-192657671D01*
X191830908Y-192792517D01*
X191826150Y-192836776D01*
X191824501Y-192852123D01*
X191824500Y-192852135D01*
X175750499Y-192852135D01*
X175750499Y-192852128D01*
X175744091Y-192792517D01*
X175725975Y-192743946D01*
X175693797Y-192657671D01*
X175693793Y-192657664D01*
X175607547Y-192542455D01*
X175607544Y-192542452D01*
X175492335Y-192456206D01*
X175492328Y-192456202D01*
X175357482Y-192405908D01*
X175357483Y-192405908D01*
X175297883Y-192399501D01*
X175297881Y-192399500D01*
X175297873Y-192399500D01*
X175297864Y-192399500D01*
X171152129Y-192399500D01*
X171152123Y-192399501D01*
X171092516Y-192405908D01*
X170957671Y-192456202D01*
X170957664Y-192456206D01*
X170842455Y-192542452D01*
X170842452Y-192542455D01*
X170756206Y-192657664D01*
X170756202Y-192657671D01*
X170705908Y-192792517D01*
X170701150Y-192836776D01*
X170699501Y-192852123D01*
X170699500Y-192852135D01*
X154625499Y-192852135D01*
X154625499Y-192852128D01*
X154619091Y-192792517D01*
X154600975Y-192743946D01*
X154568797Y-192657671D01*
X154568793Y-192657664D01*
X154482547Y-192542455D01*
X154482544Y-192542452D01*
X154367335Y-192456206D01*
X154367328Y-192456202D01*
X154232482Y-192405908D01*
X154232483Y-192405908D01*
X154172883Y-192399501D01*
X154172881Y-192399500D01*
X154172873Y-192399500D01*
X154172864Y-192399500D01*
X150027129Y-192399500D01*
X150027123Y-192399501D01*
X149967516Y-192405908D01*
X149832671Y-192456202D01*
X149832664Y-192456206D01*
X149717455Y-192542452D01*
X149717452Y-192542455D01*
X149631206Y-192657664D01*
X149631202Y-192657671D01*
X149580908Y-192792517D01*
X149576150Y-192836776D01*
X149574501Y-192852123D01*
X149574500Y-192852135D01*
X124975499Y-192852135D01*
X124975499Y-192277128D01*
X124969091Y-192217517D01*
X124918796Y-192082669D01*
X124918795Y-192082668D01*
X124918793Y-192082664D01*
X124832547Y-191967455D01*
X124832544Y-191967452D01*
X124717335Y-191881206D01*
X124717328Y-191881202D01*
X124582482Y-191830908D01*
X124582483Y-191830908D01*
X124522883Y-191824501D01*
X124522881Y-191824500D01*
X124522873Y-191824500D01*
X124522864Y-191824500D01*
X120077129Y-191824500D01*
X120077123Y-191824501D01*
X120017516Y-191830908D01*
X119882671Y-191881202D01*
X119882664Y-191881206D01*
X119767455Y-191967452D01*
X119767452Y-191967455D01*
X119681206Y-192082664D01*
X119681202Y-192082671D01*
X119630908Y-192217517D01*
X119624501Y-192277116D01*
X119624501Y-192277123D01*
X119624500Y-192277135D01*
X54500500Y-192277135D01*
X54500500Y-177583711D01*
X62649500Y-177583711D01*
X62649500Y-177826288D01*
X62681161Y-178066785D01*
X62743947Y-178301104D01*
X62836773Y-178525205D01*
X62836776Y-178525212D01*
X62958064Y-178735289D01*
X62958066Y-178735292D01*
X62958067Y-178735293D01*
X63105733Y-178927736D01*
X63105739Y-178927743D01*
X63277256Y-179099260D01*
X63277262Y-179099265D01*
X63469711Y-179246936D01*
X63679788Y-179368224D01*
X63903900Y-179461054D01*
X64138211Y-179523838D01*
X64318586Y-179547584D01*
X64378711Y-179555500D01*
X64378712Y-179555500D01*
X64621289Y-179555500D01*
X64669388Y-179549167D01*
X64861789Y-179523838D01*
X65096100Y-179461054D01*
X65320212Y-179368224D01*
X65530289Y-179246936D01*
X65722738Y-179099265D01*
X65894265Y-178927738D01*
X66041936Y-178735289D01*
X66163224Y-178525212D01*
X66256054Y-178301100D01*
X66318838Y-178066789D01*
X66350500Y-177826288D01*
X66350500Y-177583712D01*
X66318838Y-177343211D01*
X66256054Y-177108900D01*
X66163224Y-176884788D01*
X66041936Y-176674711D01*
X65894265Y-176482262D01*
X65894260Y-176482256D01*
X65722743Y-176310739D01*
X65722736Y-176310733D01*
X65530293Y-176163067D01*
X65530292Y-176163066D01*
X65530289Y-176163064D01*
X65320212Y-176041776D01*
X65320205Y-176041773D01*
X65096104Y-175948947D01*
X64861785Y-175886161D01*
X64621289Y-175854500D01*
X64621288Y-175854500D01*
X64378712Y-175854500D01*
X64378711Y-175854500D01*
X64138214Y-175886161D01*
X63903895Y-175948947D01*
X63679794Y-176041773D01*
X63679785Y-176041777D01*
X63469706Y-176163067D01*
X63277263Y-176310733D01*
X63277256Y-176310739D01*
X63105739Y-176482256D01*
X63105733Y-176482263D01*
X62958067Y-176674706D01*
X62836777Y-176884785D01*
X62836773Y-176884794D01*
X62743947Y-177108895D01*
X62681161Y-177343214D01*
X62649500Y-177583711D01*
X54500500Y-177583711D01*
X54500500Y-172482135D01*
X67974500Y-172482135D01*
X67974500Y-176627870D01*
X67974501Y-176627876D01*
X67980908Y-176687483D01*
X68031202Y-176822328D01*
X68031206Y-176822335D01*
X68117452Y-176937544D01*
X68117455Y-176937547D01*
X68232664Y-177023793D01*
X68232671Y-177023797D01*
X68367517Y-177074091D01*
X68367516Y-177074091D01*
X68374444Y-177074835D01*
X68427127Y-177080500D01*
X72572872Y-177080499D01*
X72632483Y-177074091D01*
X72767331Y-177023796D01*
X72882546Y-176937546D01*
X72968796Y-176822331D01*
X73019091Y-176687483D01*
X73025500Y-176627873D01*
X73025499Y-174327135D01*
X214974500Y-174327135D01*
X214974500Y-178472870D01*
X214974501Y-178472876D01*
X214980908Y-178532483D01*
X215031202Y-178667328D01*
X215031206Y-178667335D01*
X215117452Y-178782544D01*
X215117455Y-178782547D01*
X215232664Y-178868793D01*
X215232671Y-178868797D01*
X215367517Y-178919091D01*
X215367516Y-178919091D01*
X215374444Y-178919835D01*
X215427127Y-178925500D01*
X219572872Y-178925499D01*
X219632483Y-178919091D01*
X219767331Y-178868796D01*
X219882546Y-178782546D01*
X219968796Y-178667331D01*
X220019091Y-178532483D01*
X220025500Y-178472873D01*
X220025499Y-174327128D01*
X220019091Y-174267517D01*
X219968796Y-174132669D01*
X219968795Y-174132668D01*
X219968793Y-174132664D01*
X219882547Y-174017455D01*
X219882544Y-174017452D01*
X219767335Y-173931206D01*
X219767328Y-173931202D01*
X219632482Y-173880908D01*
X219632483Y-173880908D01*
X219572883Y-173874501D01*
X219572881Y-173874500D01*
X219572873Y-173874500D01*
X219572864Y-173874500D01*
X215427129Y-173874500D01*
X215427123Y-173874501D01*
X215367516Y-173880908D01*
X215232671Y-173931202D01*
X215232664Y-173931206D01*
X215117455Y-174017452D01*
X215117452Y-174017455D01*
X215031206Y-174132664D01*
X215031202Y-174132671D01*
X214980908Y-174267517D01*
X214979535Y-174280293D01*
X214974501Y-174327123D01*
X214974500Y-174327135D01*
X73025499Y-174327135D01*
X73025499Y-173128711D01*
X221649500Y-173128711D01*
X221649500Y-173371288D01*
X221681161Y-173611785D01*
X221743947Y-173846104D01*
X221758364Y-173880909D01*
X221836776Y-174070212D01*
X221958064Y-174280289D01*
X221958066Y-174280292D01*
X221958067Y-174280293D01*
X222105733Y-174472736D01*
X222105739Y-174472743D01*
X222277256Y-174644260D01*
X222277262Y-174644265D01*
X222469711Y-174791936D01*
X222679788Y-174913224D01*
X222903900Y-175006054D01*
X223138211Y-175068838D01*
X223318586Y-175092584D01*
X223378711Y-175100500D01*
X223378712Y-175100500D01*
X223621289Y-175100500D01*
X223669388Y-175094167D01*
X223861789Y-175068838D01*
X224096100Y-175006054D01*
X224320212Y-174913224D01*
X224530289Y-174791936D01*
X224722738Y-174644265D01*
X224894265Y-174472738D01*
X225041936Y-174280289D01*
X225163224Y-174070212D01*
X225256054Y-173846100D01*
X225318838Y-173611789D01*
X225350500Y-173371288D01*
X225350500Y-173128712D01*
X225318838Y-172888211D01*
X225256054Y-172653900D01*
X225163224Y-172429788D01*
X225041936Y-172219711D01*
X224900900Y-172035909D01*
X224894266Y-172027263D01*
X224894260Y-172027256D01*
X224722743Y-171855739D01*
X224722736Y-171855733D01*
X224530293Y-171708067D01*
X224530292Y-171708066D01*
X224530289Y-171708064D01*
X224320212Y-171586776D01*
X224320205Y-171586773D01*
X224096104Y-171493947D01*
X223861785Y-171431161D01*
X223621289Y-171399500D01*
X223621288Y-171399500D01*
X223378712Y-171399500D01*
X223378711Y-171399500D01*
X223138214Y-171431161D01*
X222903895Y-171493947D01*
X222679794Y-171586773D01*
X222679785Y-171586777D01*
X222469706Y-171708067D01*
X222277263Y-171855733D01*
X222277256Y-171855739D01*
X222105739Y-172027256D01*
X222105733Y-172027263D01*
X221958067Y-172219706D01*
X221836777Y-172429785D01*
X221836773Y-172429794D01*
X221743947Y-172653895D01*
X221681161Y-172888214D01*
X221649500Y-173128711D01*
X73025499Y-173128711D01*
X73025499Y-172482128D01*
X73019091Y-172422517D01*
X72968796Y-172287669D01*
X72968795Y-172287668D01*
X72968793Y-172287664D01*
X72882547Y-172172455D01*
X72882544Y-172172452D01*
X72767335Y-172086206D01*
X72767328Y-172086202D01*
X72632482Y-172035908D01*
X72632483Y-172035908D01*
X72572883Y-172029501D01*
X72572881Y-172029500D01*
X72572873Y-172029500D01*
X72572864Y-172029500D01*
X68427129Y-172029500D01*
X68427123Y-172029501D01*
X68367516Y-172035908D01*
X68232671Y-172086202D01*
X68232664Y-172086206D01*
X68117455Y-172172452D01*
X68117452Y-172172455D01*
X68031206Y-172287664D01*
X68031202Y-172287671D01*
X67980908Y-172422517D01*
X67974501Y-172482116D01*
X67974501Y-172482123D01*
X67974500Y-172482135D01*
X54500500Y-172482135D01*
X54500500Y-156788711D01*
X62649500Y-156788711D01*
X62649500Y-157031288D01*
X62674723Y-157222883D01*
X62681162Y-157271789D01*
X62712554Y-157388944D01*
X62743947Y-157506104D01*
X62836773Y-157730205D01*
X62836776Y-157730212D01*
X62958064Y-157940289D01*
X62958066Y-157940292D01*
X62958067Y-157940293D01*
X63105733Y-158132736D01*
X63105739Y-158132743D01*
X63277256Y-158304260D01*
X63277262Y-158304265D01*
X63469711Y-158451936D01*
X63679788Y-158573224D01*
X63903900Y-158666054D01*
X64138211Y-158728838D01*
X64318586Y-158752584D01*
X64378711Y-158760500D01*
X64378712Y-158760500D01*
X64621289Y-158760500D01*
X64669388Y-158754167D01*
X64861789Y-158728838D01*
X65096100Y-158666054D01*
X65320212Y-158573224D01*
X65530289Y-158451936D01*
X65722738Y-158304265D01*
X65894265Y-158132738D01*
X66041936Y-157940289D01*
X66163224Y-157730212D01*
X66256054Y-157506100D01*
X66318838Y-157271789D01*
X66350500Y-157031288D01*
X66350500Y-156788712D01*
X66318838Y-156548211D01*
X66256054Y-156313900D01*
X66163224Y-156089788D01*
X66041936Y-155879711D01*
X65894265Y-155687262D01*
X65894260Y-155687256D01*
X65722743Y-155515739D01*
X65722736Y-155515733D01*
X65530293Y-155368067D01*
X65530292Y-155368066D01*
X65530289Y-155368064D01*
X65320212Y-155246776D01*
X65320205Y-155246773D01*
X65096104Y-155153947D01*
X64861785Y-155091161D01*
X64621289Y-155059500D01*
X64621288Y-155059500D01*
X64378712Y-155059500D01*
X64378711Y-155059500D01*
X64138214Y-155091161D01*
X63903895Y-155153947D01*
X63679794Y-155246773D01*
X63679785Y-155246777D01*
X63469706Y-155368067D01*
X63277263Y-155515733D01*
X63277256Y-155515739D01*
X63105739Y-155687256D01*
X63105733Y-155687263D01*
X62958067Y-155879706D01*
X62836777Y-156089785D01*
X62836773Y-156089794D01*
X62743947Y-156313895D01*
X62681161Y-156548214D01*
X62649500Y-156788711D01*
X54500500Y-156788711D01*
X54500500Y-151687135D01*
X67974500Y-151687135D01*
X67974500Y-155832870D01*
X67974501Y-155832876D01*
X67980908Y-155892483D01*
X68031202Y-156027328D01*
X68031206Y-156027335D01*
X68117452Y-156142544D01*
X68117455Y-156142547D01*
X68232664Y-156228793D01*
X68232671Y-156228797D01*
X68367517Y-156279091D01*
X68367516Y-156279091D01*
X68374444Y-156279835D01*
X68427127Y-156285500D01*
X72572872Y-156285499D01*
X72632483Y-156279091D01*
X72767331Y-156228796D01*
X72882546Y-156142546D01*
X72968796Y-156027331D01*
X73019091Y-155892483D01*
X73025500Y-155832873D01*
X73025499Y-153077135D01*
X214974500Y-153077135D01*
X214974500Y-157222870D01*
X214974501Y-157222876D01*
X214980908Y-157282483D01*
X215031202Y-157417328D01*
X215031206Y-157417335D01*
X215117452Y-157532544D01*
X215117455Y-157532547D01*
X215232664Y-157618793D01*
X215232671Y-157618797D01*
X215367517Y-157669091D01*
X215367516Y-157669091D01*
X215374444Y-157669835D01*
X215427127Y-157675500D01*
X219572872Y-157675499D01*
X219632483Y-157669091D01*
X219767331Y-157618796D01*
X219882546Y-157532546D01*
X219968796Y-157417331D01*
X220019091Y-157282483D01*
X220025500Y-157222873D01*
X220025499Y-153077128D01*
X220019091Y-153017517D01*
X219968796Y-152882669D01*
X219968795Y-152882668D01*
X219968793Y-152882664D01*
X219882547Y-152767455D01*
X219882544Y-152767452D01*
X219767335Y-152681206D01*
X219767328Y-152681202D01*
X219632482Y-152630908D01*
X219632483Y-152630908D01*
X219572883Y-152624501D01*
X219572881Y-152624500D01*
X219572873Y-152624500D01*
X219572864Y-152624500D01*
X215427129Y-152624500D01*
X215427123Y-152624501D01*
X215367516Y-152630908D01*
X215232671Y-152681202D01*
X215232664Y-152681206D01*
X215117455Y-152767452D01*
X215117452Y-152767455D01*
X215031206Y-152882664D01*
X215031202Y-152882671D01*
X214980908Y-153017517D01*
X214974501Y-153077116D01*
X214974501Y-153077123D01*
X214974500Y-153077135D01*
X73025499Y-153077135D01*
X73025499Y-151687128D01*
X73019091Y-151627517D01*
X73017406Y-151623000D01*
X72968797Y-151492671D01*
X72968793Y-151492664D01*
X72882547Y-151377455D01*
X72882544Y-151377452D01*
X72767335Y-151291206D01*
X72767328Y-151291202D01*
X72632482Y-151240908D01*
X72632483Y-151240908D01*
X72572883Y-151234501D01*
X72572881Y-151234500D01*
X72572873Y-151234500D01*
X72572864Y-151234500D01*
X68427129Y-151234500D01*
X68427123Y-151234501D01*
X68367516Y-151240908D01*
X68232671Y-151291202D01*
X68232664Y-151291206D01*
X68117455Y-151377452D01*
X68117452Y-151377455D01*
X68031206Y-151492664D01*
X68031202Y-151492671D01*
X67980908Y-151627517D01*
X67974501Y-151687116D01*
X67974501Y-151687123D01*
X67974500Y-151687135D01*
X54500500Y-151687135D01*
X54500500Y-149470884D01*
X89229500Y-149470884D01*
X89229500Y-149729115D01*
X89269893Y-149984151D01*
X89349690Y-150229738D01*
X89466918Y-150459810D01*
X89618696Y-150668714D01*
X89801286Y-150851304D01*
X90010190Y-151003082D01*
X90118893Y-151058468D01*
X90240261Y-151120309D01*
X90240263Y-151120309D01*
X90240266Y-151120311D01*
X90371904Y-151163083D01*
X90485848Y-151200106D01*
X90740885Y-151240500D01*
X90740890Y-151240500D01*
X90999115Y-151240500D01*
X91254151Y-151200106D01*
X91499734Y-151120311D01*
X91729810Y-151003082D01*
X91938714Y-150851304D01*
X92121304Y-150668714D01*
X92144683Y-150636535D01*
X92200010Y-150593870D01*
X92269624Y-150587890D01*
X92331419Y-150620496D01*
X92345313Y-150636530D01*
X92368696Y-150668714D01*
X92551286Y-150851304D01*
X92760190Y-151003082D01*
X92868893Y-151058468D01*
X92990261Y-151120309D01*
X92990263Y-151120309D01*
X92990266Y-151120311D01*
X93121904Y-151163083D01*
X93235848Y-151200106D01*
X93490885Y-151240500D01*
X93490890Y-151240500D01*
X93749115Y-151240500D01*
X94004151Y-151200106D01*
X94249734Y-151120311D01*
X94479810Y-151003082D01*
X94688714Y-150851304D01*
X94871304Y-150668714D01*
X94899682Y-150629654D01*
X94955012Y-150586989D01*
X95024625Y-150581010D01*
X95086420Y-150613616D01*
X95100317Y-150629654D01*
X95128696Y-150668714D01*
X95311286Y-150851304D01*
X95520190Y-151003082D01*
X95628893Y-151058468D01*
X95750261Y-151120309D01*
X95750263Y-151120309D01*
X95750266Y-151120311D01*
X95881904Y-151163083D01*
X95995848Y-151200106D01*
X96250885Y-151240500D01*
X96250890Y-151240500D01*
X96509115Y-151240500D01*
X96764151Y-151200106D01*
X97009734Y-151120311D01*
X97239810Y-151003082D01*
X97448714Y-150851304D01*
X97631304Y-150668714D01*
X97783082Y-150459810D01*
X97900311Y-150229734D01*
X97980106Y-149984151D01*
X98019947Y-149732604D01*
X98020500Y-149729115D01*
X98020500Y-149470884D01*
X98019950Y-149467412D01*
X100977000Y-149467412D01*
X100977000Y-149732587D01*
X100977001Y-149732604D01*
X101011613Y-149995511D01*
X101080251Y-150251671D01*
X101181731Y-150496666D01*
X101181736Y-150496677D01*
X101314323Y-150726322D01*
X101314334Y-150726339D01*
X101475762Y-150936717D01*
X101475768Y-150936724D01*
X101663275Y-151124231D01*
X101663282Y-151124237D01*
X101873660Y-151285665D01*
X101873665Y-151285668D01*
X101873670Y-151285672D01*
X101873677Y-151285676D01*
X102103322Y-151418263D01*
X102103327Y-151418265D01*
X102103330Y-151418267D01*
X102348333Y-151519750D01*
X102604485Y-151588386D01*
X102867406Y-151623000D01*
X102867413Y-151623000D01*
X103132587Y-151623000D01*
X103132594Y-151623000D01*
X103395515Y-151588386D01*
X103651667Y-151519750D01*
X103896670Y-151418267D01*
X104126330Y-151285672D01*
X104336719Y-151124236D01*
X104524236Y-150936719D01*
X104685672Y-150726330D01*
X104818267Y-150496670D01*
X104919750Y-150251667D01*
X104988386Y-149995515D01*
X105023000Y-149732594D01*
X105023000Y-149467406D01*
X104988386Y-149204485D01*
X104919750Y-148948333D01*
X104818267Y-148703330D01*
X104818265Y-148703327D01*
X104818263Y-148703322D01*
X104685676Y-148473677D01*
X104685672Y-148473670D01*
X104685668Y-148473665D01*
X104685665Y-148473660D01*
X104524237Y-148263282D01*
X104524231Y-148263275D01*
X104336724Y-148075768D01*
X104336717Y-148075762D01*
X104126339Y-147914334D01*
X104126322Y-147914323D01*
X103896677Y-147781736D01*
X103896666Y-147781731D01*
X103651671Y-147680251D01*
X103395511Y-147611613D01*
X103132604Y-147577001D01*
X103132599Y-147577000D01*
X103132594Y-147577000D01*
X102867406Y-147577000D01*
X102867400Y-147577000D01*
X102867395Y-147577001D01*
X102604488Y-147611613D01*
X102348328Y-147680251D01*
X102103333Y-147781731D01*
X102103322Y-147781736D01*
X101873677Y-147914323D01*
X101873660Y-147914334D01*
X101663282Y-148075762D01*
X101663275Y-148075768D01*
X101475768Y-148263275D01*
X101475762Y-148263282D01*
X101314334Y-148473660D01*
X101314323Y-148473677D01*
X101181736Y-148703322D01*
X101181731Y-148703333D01*
X101080251Y-148948328D01*
X101011613Y-149204488D01*
X100977001Y-149467395D01*
X100977000Y-149467412D01*
X98019950Y-149467412D01*
X97980106Y-149215848D01*
X97900309Y-148970261D01*
X97783081Y-148740189D01*
X97631304Y-148531286D01*
X97448714Y-148348696D01*
X97239810Y-148196918D01*
X97009738Y-148079690D01*
X96764151Y-147999893D01*
X96509115Y-147959500D01*
X96509110Y-147959500D01*
X96250890Y-147959500D01*
X96250885Y-147959500D01*
X95995848Y-147999893D01*
X95750261Y-148079690D01*
X95520189Y-148196918D01*
X95428849Y-148263281D01*
X95311286Y-148348696D01*
X95311284Y-148348698D01*
X95311283Y-148348698D01*
X95128698Y-148531283D01*
X95128691Y-148531292D01*
X95100317Y-148570345D01*
X95044987Y-148613011D01*
X94975374Y-148618989D01*
X94913579Y-148586382D01*
X94899683Y-148570345D01*
X94871308Y-148531292D01*
X94871304Y-148531286D01*
X94688714Y-148348696D01*
X94479810Y-148196918D01*
X94249738Y-148079690D01*
X94004151Y-147999893D01*
X93749115Y-147959500D01*
X93749110Y-147959500D01*
X93490890Y-147959500D01*
X93490885Y-147959500D01*
X93235848Y-147999893D01*
X92990261Y-148079690D01*
X92760189Y-148196918D01*
X92668849Y-148263281D01*
X92551286Y-148348696D01*
X92551284Y-148348698D01*
X92551283Y-148348698D01*
X92368695Y-148531286D01*
X92345317Y-148563464D01*
X92289987Y-148606129D01*
X92220373Y-148612107D01*
X92158579Y-148579500D01*
X92144683Y-148563464D01*
X92121304Y-148531286D01*
X91938716Y-148348698D01*
X91938714Y-148348696D01*
X91729810Y-148196918D01*
X91499738Y-148079690D01*
X91254151Y-147999893D01*
X90999115Y-147959500D01*
X90999110Y-147959500D01*
X90740890Y-147959500D01*
X90740885Y-147959500D01*
X90485848Y-147999893D01*
X90240261Y-148079690D01*
X90010189Y-148196918D01*
X89918849Y-148263281D01*
X89801286Y-148348696D01*
X89801284Y-148348698D01*
X89801283Y-148348698D01*
X89618698Y-148531283D01*
X89618698Y-148531284D01*
X89618696Y-148531286D01*
X89564319Y-148606129D01*
X89466918Y-148740189D01*
X89349690Y-148970261D01*
X89269893Y-149215848D01*
X89229500Y-149470884D01*
X54500500Y-149470884D01*
X54500500Y-130892136D01*
X67974500Y-130892136D01*
X67974500Y-135037871D01*
X67974501Y-135037877D01*
X67980908Y-135097484D01*
X68031202Y-135232329D01*
X68031206Y-135232336D01*
X68117452Y-135347545D01*
X68117455Y-135347548D01*
X68232664Y-135433794D01*
X68232671Y-135433798D01*
X68367517Y-135484092D01*
X68367516Y-135484092D01*
X68374444Y-135484836D01*
X68427127Y-135490501D01*
X72572872Y-135490500D01*
X72632483Y-135484092D01*
X72767331Y-135433797D01*
X72882546Y-135347547D01*
X72968796Y-135232332D01*
X73019091Y-135097484D01*
X73025500Y-135037874D01*
X73025499Y-131977135D01*
X214974500Y-131977135D01*
X214974500Y-136122870D01*
X214974501Y-136122876D01*
X214980908Y-136182483D01*
X215031202Y-136317328D01*
X215031206Y-136317335D01*
X215117452Y-136432544D01*
X215117455Y-136432547D01*
X215232664Y-136518793D01*
X215232671Y-136518797D01*
X215367517Y-136569091D01*
X215367516Y-136569091D01*
X215374444Y-136569835D01*
X215427127Y-136575500D01*
X219572872Y-136575499D01*
X219632483Y-136569091D01*
X219767331Y-136518796D01*
X219882546Y-136432546D01*
X219968796Y-136317331D01*
X220019091Y-136182483D01*
X220025500Y-136122873D01*
X220025499Y-131977128D01*
X220019091Y-131917517D01*
X219968796Y-131782669D01*
X219968795Y-131782668D01*
X219968793Y-131782664D01*
X219882547Y-131667455D01*
X219882544Y-131667452D01*
X219767335Y-131581206D01*
X219767328Y-131581202D01*
X219632482Y-131530908D01*
X219632483Y-131530908D01*
X219572883Y-131524501D01*
X219572881Y-131524500D01*
X219572873Y-131524500D01*
X219572864Y-131524500D01*
X215427129Y-131524500D01*
X215427123Y-131524501D01*
X215367516Y-131530908D01*
X215232671Y-131581202D01*
X215232664Y-131581206D01*
X215117455Y-131667452D01*
X215117452Y-131667455D01*
X215031206Y-131782664D01*
X215031202Y-131782671D01*
X214980908Y-131917517D01*
X214974501Y-131977116D01*
X214974501Y-131977123D01*
X214974500Y-131977135D01*
X73025499Y-131977135D01*
X73025499Y-130892129D01*
X73019091Y-130832518D01*
X72968796Y-130697670D01*
X72968795Y-130697669D01*
X72968793Y-130697665D01*
X72882547Y-130582456D01*
X72882544Y-130582453D01*
X72767335Y-130496207D01*
X72767328Y-130496203D01*
X72632482Y-130445909D01*
X72632483Y-130445909D01*
X72572883Y-130439502D01*
X72572881Y-130439501D01*
X72572873Y-130439501D01*
X72572864Y-130439501D01*
X68427129Y-130439501D01*
X68427123Y-130439502D01*
X68367516Y-130445909D01*
X68232671Y-130496203D01*
X68232664Y-130496207D01*
X68117455Y-130582453D01*
X68117452Y-130582456D01*
X68031206Y-130697665D01*
X68031202Y-130697672D01*
X67980908Y-130832518D01*
X67974501Y-130892117D01*
X67974501Y-130892124D01*
X67974500Y-130892136D01*
X54500500Y-130892136D01*
X54500500Y-122381901D01*
X180999500Y-122381901D01*
X180999500Y-122618096D01*
X181036446Y-122851367D01*
X181109433Y-123075995D01*
X181216657Y-123286432D01*
X181355483Y-123477509D01*
X181522490Y-123644516D01*
X181713567Y-123783342D01*
X181812991Y-123834001D01*
X181924003Y-123890565D01*
X181924005Y-123890565D01*
X181924008Y-123890567D01*
X182044412Y-123929688D01*
X182148631Y-123963552D01*
X182381903Y-124000499D01*
X182381908Y-124000499D01*
X182618097Y-124000499D01*
X182851368Y-123963552D01*
X183075992Y-123890567D01*
X183286433Y-123783342D01*
X183477510Y-123644516D01*
X183644517Y-123477509D01*
X183783343Y-123286432D01*
X183890568Y-123075991D01*
X183963553Y-122851367D01*
X184000500Y-122618096D01*
X184000500Y-122381901D01*
X183963553Y-122148630D01*
X183890566Y-121924002D01*
X183783342Y-121713565D01*
X183644517Y-121522489D01*
X183477510Y-121355482D01*
X183286433Y-121216656D01*
X183075996Y-121109432D01*
X182851368Y-121036445D01*
X182618097Y-120999499D01*
X182618092Y-120999499D01*
X182381908Y-120999499D01*
X182381903Y-120999499D01*
X182148631Y-121036445D01*
X181924003Y-121109432D01*
X181713566Y-121216656D01*
X181604550Y-121295861D01*
X181522490Y-121355482D01*
X181522488Y-121355484D01*
X181522487Y-121355484D01*
X181355485Y-121522486D01*
X181355485Y-121522487D01*
X181355483Y-121522489D01*
X181295862Y-121604549D01*
X181216657Y-121713565D01*
X181109433Y-121924002D01*
X181036446Y-122148630D01*
X180999500Y-122381901D01*
X54500500Y-122381901D01*
X54500500Y-119841901D01*
X135279500Y-119841901D01*
X135279500Y-120078096D01*
X135316446Y-120311367D01*
X135389433Y-120535995D01*
X135496657Y-120746432D01*
X135635483Y-120937509D01*
X135802490Y-121104516D01*
X135993567Y-121243342D01*
X136092991Y-121294001D01*
X136204003Y-121350565D01*
X136204005Y-121350565D01*
X136204008Y-121350567D01*
X136324412Y-121389688D01*
X136428631Y-121423552D01*
X136661903Y-121460499D01*
X136661908Y-121460499D01*
X136898097Y-121460499D01*
X137131368Y-121423552D01*
X137355992Y-121350567D01*
X137566433Y-121243342D01*
X137757510Y-121104516D01*
X137924517Y-120937509D01*
X138063343Y-120746432D01*
X138170568Y-120535991D01*
X138243553Y-120311367D01*
X138280500Y-120078096D01*
X138280500Y-119841901D01*
X138243553Y-119608630D01*
X138170566Y-119384002D01*
X138063342Y-119173565D01*
X137924517Y-118982489D01*
X137757510Y-118815482D01*
X137566433Y-118676656D01*
X137564160Y-118675498D01*
X137355996Y-118569432D01*
X137131368Y-118496445D01*
X136898097Y-118459499D01*
X136898092Y-118459499D01*
X136661908Y-118459499D01*
X136661903Y-118459499D01*
X136428631Y-118496445D01*
X136204003Y-118569432D01*
X135993566Y-118676656D01*
X135884550Y-118755861D01*
X135802490Y-118815482D01*
X135802488Y-118815484D01*
X135802487Y-118815484D01*
X135635485Y-118982486D01*
X135635485Y-118982487D01*
X135635483Y-118982489D01*
X135575862Y-119064549D01*
X135496657Y-119173565D01*
X135389433Y-119384002D01*
X135316446Y-119608630D01*
X135279500Y-119841901D01*
X54500500Y-119841901D01*
X54500500Y-116783634D01*
X216724500Y-116783634D01*
X216724500Y-117016365D01*
X216724501Y-117016382D01*
X216754878Y-117247122D01*
X216815120Y-117471947D01*
X216904180Y-117686960D01*
X216904188Y-117686976D01*
X217020553Y-117888524D01*
X217020564Y-117888540D01*
X217162242Y-118073179D01*
X217162248Y-118073186D01*
X217326813Y-118237751D01*
X217326819Y-118237756D01*
X217511468Y-118379442D01*
X217511475Y-118379446D01*
X217713023Y-118495811D01*
X217713039Y-118495819D01*
X217928052Y-118584879D01*
X217928054Y-118584879D01*
X217928060Y-118584882D01*
X218152874Y-118645121D01*
X218383628Y-118675500D01*
X218383635Y-118675500D01*
X218616365Y-118675500D01*
X218616372Y-118675500D01*
X218847126Y-118645121D01*
X219071940Y-118584882D01*
X219285446Y-118496446D01*
X219286960Y-118495819D01*
X219286963Y-118495817D01*
X219286969Y-118495815D01*
X219488532Y-118379442D01*
X219673181Y-118237756D01*
X219837756Y-118073181D01*
X219979442Y-117888532D01*
X220095815Y-117686969D01*
X220184882Y-117471940D01*
X220245121Y-117247126D01*
X220275500Y-117016372D01*
X220275500Y-116783628D01*
X220245121Y-116552874D01*
X220184882Y-116328060D01*
X220184879Y-116328052D01*
X220095819Y-116113039D01*
X220095811Y-116113023D01*
X219979446Y-115911475D01*
X219979442Y-115911468D01*
X219837756Y-115726819D01*
X219837751Y-115726813D01*
X219673186Y-115562248D01*
X219673179Y-115562242D01*
X219488540Y-115420564D01*
X219488538Y-115420562D01*
X219488532Y-115420558D01*
X219488527Y-115420555D01*
X219488524Y-115420553D01*
X219286976Y-115304188D01*
X219286960Y-115304180D01*
X219071947Y-115215120D01*
X218847122Y-115154878D01*
X218616382Y-115124501D01*
X218616377Y-115124500D01*
X218616372Y-115124500D01*
X218383628Y-115124500D01*
X218383622Y-115124500D01*
X218383617Y-115124501D01*
X218152877Y-115154878D01*
X217928052Y-115215120D01*
X217713039Y-115304180D01*
X217713023Y-115304188D01*
X217511475Y-115420553D01*
X217511459Y-115420564D01*
X217326820Y-115562242D01*
X217326813Y-115562248D01*
X217162248Y-115726813D01*
X217162242Y-115726820D01*
X217020564Y-115911459D01*
X217020553Y-115911475D01*
X216904188Y-116113023D01*
X216904180Y-116113039D01*
X216815120Y-116328052D01*
X216754878Y-116552877D01*
X216724501Y-116783617D01*
X216724500Y-116783634D01*
X54500500Y-116783634D01*
X54500500Y-110097136D01*
X67974500Y-110097136D01*
X67974500Y-114242871D01*
X67974501Y-114242877D01*
X67980908Y-114302484D01*
X68031202Y-114437329D01*
X68031206Y-114437336D01*
X68117452Y-114552545D01*
X68117455Y-114552548D01*
X68232664Y-114638794D01*
X68232671Y-114638798D01*
X68367517Y-114689092D01*
X68367516Y-114689092D01*
X68374444Y-114689836D01*
X68427127Y-114695501D01*
X72572872Y-114695500D01*
X72632483Y-114689092D01*
X72767331Y-114638797D01*
X72882546Y-114552547D01*
X72968796Y-114437332D01*
X73019091Y-114302484D01*
X73025500Y-114242874D01*
X73025499Y-112267412D01*
X90227000Y-112267412D01*
X90227000Y-112532587D01*
X90227001Y-112532604D01*
X90261613Y-112795511D01*
X90330251Y-113051671D01*
X90431731Y-113296666D01*
X90431736Y-113296677D01*
X90564323Y-113526322D01*
X90564334Y-113526339D01*
X90725762Y-113736717D01*
X90725768Y-113736724D01*
X90913275Y-113924231D01*
X90913282Y-113924237D01*
X91123660Y-114085665D01*
X91123665Y-114085668D01*
X91123670Y-114085672D01*
X91123677Y-114085676D01*
X91353322Y-114218263D01*
X91353327Y-114218265D01*
X91353330Y-114218267D01*
X91412761Y-114242884D01*
X91556646Y-114302483D01*
X91598333Y-114319750D01*
X91854485Y-114388386D01*
X92117406Y-114423000D01*
X92117413Y-114423000D01*
X92382587Y-114423000D01*
X92382594Y-114423000D01*
X92645515Y-114388386D01*
X92901667Y-114319750D01*
X93146670Y-114218267D01*
X93376330Y-114085672D01*
X93586719Y-113924236D01*
X93774236Y-113736719D01*
X93935672Y-113526330D01*
X94068267Y-113296670D01*
X94169750Y-113051667D01*
X94238386Y-112795515D01*
X94273000Y-112532594D01*
X94273000Y-112267412D01*
X101227000Y-112267412D01*
X101227000Y-112532587D01*
X101227001Y-112532604D01*
X101261613Y-112795511D01*
X101330251Y-113051671D01*
X101431731Y-113296666D01*
X101431736Y-113296677D01*
X101564323Y-113526322D01*
X101564334Y-113526339D01*
X101725762Y-113736717D01*
X101725768Y-113736724D01*
X101913275Y-113924231D01*
X101913282Y-113924237D01*
X102123660Y-114085665D01*
X102123665Y-114085668D01*
X102123670Y-114085672D01*
X102123677Y-114085676D01*
X102353322Y-114218263D01*
X102353327Y-114218265D01*
X102353330Y-114218267D01*
X102412761Y-114242884D01*
X102556646Y-114302483D01*
X102598333Y-114319750D01*
X102854485Y-114388386D01*
X103117406Y-114423000D01*
X103117413Y-114423000D01*
X103382587Y-114423000D01*
X103382594Y-114423000D01*
X103645515Y-114388386D01*
X103901667Y-114319750D01*
X104146670Y-114218267D01*
X104376330Y-114085672D01*
X104586719Y-113924236D01*
X104774236Y-113736719D01*
X104935672Y-113526330D01*
X105068267Y-113296670D01*
X105169750Y-113051667D01*
X105238386Y-112795515D01*
X105273000Y-112532594D01*
X105273000Y-112267406D01*
X105238386Y-112004485D01*
X105169750Y-111748333D01*
X105068267Y-111503330D01*
X105068265Y-111503327D01*
X105068263Y-111503322D01*
X104935676Y-111273677D01*
X104935672Y-111273670D01*
X104935668Y-111273665D01*
X104935665Y-111273660D01*
X104774237Y-111063282D01*
X104774231Y-111063275D01*
X104586724Y-110875768D01*
X104586717Y-110875762D01*
X104376339Y-110714334D01*
X104376322Y-110714323D01*
X104146677Y-110581736D01*
X104146666Y-110581731D01*
X103901671Y-110480251D01*
X103645511Y-110411613D01*
X103382604Y-110377001D01*
X103382599Y-110377000D01*
X103382594Y-110377000D01*
X103117406Y-110377000D01*
X103117400Y-110377000D01*
X103117395Y-110377001D01*
X102854488Y-110411613D01*
X102598328Y-110480251D01*
X102353333Y-110581731D01*
X102353322Y-110581736D01*
X102123677Y-110714323D01*
X102123660Y-110714334D01*
X101913282Y-110875762D01*
X101913275Y-110875768D01*
X101725768Y-111063275D01*
X101725762Y-111063282D01*
X101564334Y-111273660D01*
X101564323Y-111273677D01*
X101431736Y-111503322D01*
X101431731Y-111503333D01*
X101330251Y-111748328D01*
X101261613Y-112004488D01*
X101227001Y-112267395D01*
X101227000Y-112267412D01*
X94273000Y-112267412D01*
X94273000Y-112267406D01*
X94238386Y-112004485D01*
X94169750Y-111748333D01*
X94068267Y-111503330D01*
X94068265Y-111503327D01*
X94068263Y-111503322D01*
X93935676Y-111273677D01*
X93935672Y-111273670D01*
X93935668Y-111273665D01*
X93935665Y-111273660D01*
X93774237Y-111063282D01*
X93774231Y-111063275D01*
X93586724Y-110875768D01*
X93586717Y-110875762D01*
X93376339Y-110714334D01*
X93376322Y-110714323D01*
X93146677Y-110581736D01*
X93146666Y-110581731D01*
X92901671Y-110480251D01*
X92645511Y-110411613D01*
X92382604Y-110377001D01*
X92382599Y-110377000D01*
X92382594Y-110377000D01*
X92117406Y-110377000D01*
X92117400Y-110377000D01*
X92117395Y-110377001D01*
X91854488Y-110411613D01*
X91598328Y-110480251D01*
X91353333Y-110581731D01*
X91353322Y-110581736D01*
X91123677Y-110714323D01*
X91123660Y-110714334D01*
X90913282Y-110875762D01*
X90913275Y-110875768D01*
X90725768Y-111063275D01*
X90725762Y-111063282D01*
X90564334Y-111273660D01*
X90564323Y-111273677D01*
X90431736Y-111503322D01*
X90431731Y-111503333D01*
X90330251Y-111748328D01*
X90261613Y-112004488D01*
X90227001Y-112267395D01*
X90227000Y-112267412D01*
X73025499Y-112267412D01*
X73025499Y-112004488D01*
X73025499Y-110097130D01*
X73025498Y-110097124D01*
X73025497Y-110097117D01*
X73019091Y-110037518D01*
X72968796Y-109902670D01*
X72968795Y-109902669D01*
X72968793Y-109902665D01*
X72882547Y-109787456D01*
X72882544Y-109787453D01*
X72767335Y-109701207D01*
X72767328Y-109701203D01*
X72632482Y-109650909D01*
X72632483Y-109650909D01*
X72572883Y-109644502D01*
X72572881Y-109644501D01*
X72572873Y-109644501D01*
X72572864Y-109644501D01*
X68427129Y-109644501D01*
X68427123Y-109644502D01*
X68367516Y-109650909D01*
X68232671Y-109701203D01*
X68232664Y-109701207D01*
X68117455Y-109787453D01*
X68117452Y-109787456D01*
X68031206Y-109902665D01*
X68031202Y-109902672D01*
X67980908Y-110037518D01*
X67974501Y-110097117D01*
X67974501Y-110097124D01*
X67974500Y-110097136D01*
X54500500Y-110097136D01*
X54500500Y-104601901D01*
X135279500Y-104601901D01*
X135279500Y-104838096D01*
X135316446Y-105071367D01*
X135389433Y-105295995D01*
X135496657Y-105506432D01*
X135635483Y-105697509D01*
X135802490Y-105864516D01*
X135993567Y-106003342D01*
X136092991Y-106054001D01*
X136204003Y-106110565D01*
X136204005Y-106110565D01*
X136204008Y-106110567D01*
X136324412Y-106149688D01*
X136428631Y-106183552D01*
X136661903Y-106220499D01*
X136661908Y-106220499D01*
X136898097Y-106220499D01*
X137131368Y-106183552D01*
X137355992Y-106110567D01*
X137566433Y-106003342D01*
X137757510Y-105864516D01*
X137924517Y-105697509D01*
X138063343Y-105506432D01*
X138170568Y-105295991D01*
X138243553Y-105071367D01*
X138280500Y-104838096D01*
X138280500Y-104601901D01*
X138243553Y-104368630D01*
X138170566Y-104144002D01*
X138063342Y-103933565D01*
X137924517Y-103742489D01*
X137757510Y-103575482D01*
X137566433Y-103436656D01*
X137355996Y-103329432D01*
X137131368Y-103256445D01*
X136898097Y-103219499D01*
X136898092Y-103219499D01*
X136661908Y-103219499D01*
X136661903Y-103219499D01*
X136428631Y-103256445D01*
X136204003Y-103329432D01*
X135993566Y-103436656D01*
X135884550Y-103515861D01*
X135802490Y-103575482D01*
X135802488Y-103575484D01*
X135802487Y-103575484D01*
X135635485Y-103742486D01*
X135635485Y-103742487D01*
X135635483Y-103742489D01*
X135575862Y-103824549D01*
X135496657Y-103933565D01*
X135389433Y-104144002D01*
X135316446Y-104368630D01*
X135279500Y-104601901D01*
X54500500Y-104601901D01*
X54500500Y-102061901D01*
X180999500Y-102061901D01*
X180999500Y-102298096D01*
X181036446Y-102531367D01*
X181109433Y-102755995D01*
X181216657Y-102966432D01*
X181355483Y-103157509D01*
X181522490Y-103324516D01*
X181713567Y-103463342D01*
X181812991Y-103514001D01*
X181924003Y-103570565D01*
X181924005Y-103570565D01*
X181924008Y-103570567D01*
X182044412Y-103609688D01*
X182148631Y-103643552D01*
X182381903Y-103680499D01*
X182381908Y-103680499D01*
X182618097Y-103680499D01*
X182851368Y-103643552D01*
X183075992Y-103570567D01*
X183286433Y-103463342D01*
X183477510Y-103324516D01*
X183644517Y-103157509D01*
X183783343Y-102966432D01*
X183890568Y-102755991D01*
X183963553Y-102531367D01*
X184000500Y-102298096D01*
X184000500Y-102061901D01*
X183963553Y-101828630D01*
X183890566Y-101604002D01*
X183783342Y-101393565D01*
X183644517Y-101202489D01*
X183477510Y-101035482D01*
X183286433Y-100896656D01*
X183075996Y-100789432D01*
X182851368Y-100716445D01*
X182618097Y-100679499D01*
X182618092Y-100679499D01*
X182381908Y-100679499D01*
X182381903Y-100679499D01*
X182148631Y-100716445D01*
X181924003Y-100789432D01*
X181713566Y-100896656D01*
X181604550Y-100975861D01*
X181522490Y-101035482D01*
X181522488Y-101035484D01*
X181522487Y-101035484D01*
X181355485Y-101202486D01*
X181355485Y-101202487D01*
X181355483Y-101202489D01*
X181295862Y-101284549D01*
X181216657Y-101393565D01*
X181109433Y-101604002D01*
X181036446Y-101828630D01*
X180999500Y-102061901D01*
X54500500Y-102061901D01*
X54500500Y-100383634D01*
X216724500Y-100383634D01*
X216724500Y-100616365D01*
X216724501Y-100616382D01*
X216754878Y-100847122D01*
X216815120Y-101071947D01*
X216904180Y-101286960D01*
X216904188Y-101286976D01*
X217020553Y-101488524D01*
X217020564Y-101488540D01*
X217162242Y-101673179D01*
X217162248Y-101673186D01*
X217326813Y-101837751D01*
X217326819Y-101837756D01*
X217511468Y-101979442D01*
X217511475Y-101979446D01*
X217713023Y-102095811D01*
X217713039Y-102095819D01*
X217928052Y-102184879D01*
X217928054Y-102184879D01*
X217928060Y-102184882D01*
X218152874Y-102245121D01*
X218383628Y-102275500D01*
X218383635Y-102275500D01*
X218616365Y-102275500D01*
X218616372Y-102275500D01*
X218847126Y-102245121D01*
X219071940Y-102184882D01*
X219129953Y-102160852D01*
X219286960Y-102095819D01*
X219286963Y-102095817D01*
X219286969Y-102095815D01*
X219488532Y-101979442D01*
X219673181Y-101837756D01*
X219837756Y-101673181D01*
X219979442Y-101488532D01*
X220095815Y-101286969D01*
X220130808Y-101202489D01*
X220184879Y-101071947D01*
X220184878Y-101071947D01*
X220184882Y-101071940D01*
X220245121Y-100847126D01*
X220275500Y-100616372D01*
X220275500Y-100383628D01*
X220245121Y-100152874D01*
X220184882Y-99928060D01*
X220184879Y-99928052D01*
X220095819Y-99713039D01*
X220095811Y-99713023D01*
X219979446Y-99511475D01*
X219979442Y-99511468D01*
X219837756Y-99326819D01*
X219837751Y-99326813D01*
X219673186Y-99162248D01*
X219673179Y-99162242D01*
X219488540Y-99020564D01*
X219488538Y-99020562D01*
X219488532Y-99020558D01*
X219488527Y-99020555D01*
X219488524Y-99020553D01*
X219286976Y-98904188D01*
X219286960Y-98904180D01*
X219071947Y-98815120D01*
X218847122Y-98754878D01*
X218616382Y-98724501D01*
X218616377Y-98724500D01*
X218616372Y-98724500D01*
X218383628Y-98724500D01*
X218383622Y-98724500D01*
X218383617Y-98724501D01*
X218152877Y-98754878D01*
X217928052Y-98815120D01*
X217713039Y-98904180D01*
X217713023Y-98904188D01*
X217511475Y-99020553D01*
X217511459Y-99020564D01*
X217326820Y-99162242D01*
X217326813Y-99162248D01*
X217162248Y-99326813D01*
X217162242Y-99326820D01*
X217020564Y-99511459D01*
X217020553Y-99511475D01*
X216904188Y-99713023D01*
X216904180Y-99713039D01*
X216815120Y-99928052D01*
X216754878Y-100152877D01*
X216724501Y-100383617D01*
X216724500Y-100383634D01*
X54500500Y-100383634D01*
X54500500Y-94734570D01*
X149374500Y-94734570D01*
X149374500Y-94990429D01*
X149414526Y-95243140D01*
X149493588Y-95486472D01*
X149493589Y-95486475D01*
X149609750Y-95714450D01*
X149760132Y-95921435D01*
X149760136Y-95921440D01*
X149941059Y-96102363D01*
X149941064Y-96102367D01*
X150121607Y-96233538D01*
X150148053Y-96252752D01*
X150297080Y-96328685D01*
X150376024Y-96368910D01*
X150376027Y-96368911D01*
X150497693Y-96408442D01*
X150619361Y-96447974D01*
X150872070Y-96488000D01*
X150872071Y-96488000D01*
X151127929Y-96488000D01*
X151127930Y-96488000D01*
X151380639Y-96447974D01*
X151623975Y-96368910D01*
X151851947Y-96252752D01*
X152058942Y-96102362D01*
X152239862Y-95921442D01*
X152390252Y-95714447D01*
X152506410Y-95486475D01*
X152585474Y-95243139D01*
X152625500Y-94990430D01*
X152625500Y-94734570D01*
X152585474Y-94481861D01*
X152506410Y-94238525D01*
X152506410Y-94238524D01*
X152466185Y-94159580D01*
X152390252Y-94010553D01*
X152344805Y-93948000D01*
X152239867Y-93803564D01*
X152239863Y-93803559D01*
X152058940Y-93622636D01*
X152058935Y-93622632D01*
X151851950Y-93472250D01*
X151851949Y-93472249D01*
X151851947Y-93472248D01*
X151778910Y-93435033D01*
X151623975Y-93356089D01*
X151623972Y-93356088D01*
X151380640Y-93277026D01*
X151254284Y-93257013D01*
X151127930Y-93237000D01*
X150872070Y-93237000D01*
X150787833Y-93250342D01*
X150619359Y-93277026D01*
X150376027Y-93356088D01*
X150376024Y-93356089D01*
X150148049Y-93472250D01*
X149941064Y-93622632D01*
X149941059Y-93622636D01*
X149760136Y-93803559D01*
X149760132Y-93803564D01*
X149609750Y-94010549D01*
X149493589Y-94238524D01*
X149493588Y-94238527D01*
X149414526Y-94481859D01*
X149374500Y-94734570D01*
X54500500Y-94734570D01*
X54500500Y-89302136D01*
X67974500Y-89302136D01*
X67974500Y-93447871D01*
X67974501Y-93447877D01*
X67980908Y-93507484D01*
X68031202Y-93642329D01*
X68031206Y-93642336D01*
X68117452Y-93757545D01*
X68117455Y-93757548D01*
X68232664Y-93843794D01*
X68232671Y-93843798D01*
X68367517Y-93894092D01*
X68367516Y-93894092D01*
X68374444Y-93894836D01*
X68427127Y-93900501D01*
X72572872Y-93900500D01*
X72632483Y-93894092D01*
X72767331Y-93843797D01*
X72882546Y-93757547D01*
X72968796Y-93642332D01*
X73019091Y-93507484D01*
X73025500Y-93447874D01*
X73025499Y-92194570D01*
X103654500Y-92194570D01*
X103654500Y-92450429D01*
X103694526Y-92703140D01*
X103773588Y-92946472D01*
X103773589Y-92946475D01*
X103889750Y-93174450D01*
X104040132Y-93381435D01*
X104040136Y-93381440D01*
X104221059Y-93562363D01*
X104221064Y-93562367D01*
X104331133Y-93642336D01*
X104428053Y-93712752D01*
X104577080Y-93788685D01*
X104656024Y-93828910D01*
X104656027Y-93828911D01*
X104777693Y-93868442D01*
X104899361Y-93907974D01*
X105152070Y-93948000D01*
X105152071Y-93948000D01*
X105407929Y-93948000D01*
X105407930Y-93948000D01*
X105660639Y-93907974D01*
X105903975Y-93828910D01*
X106131947Y-93712752D01*
X106338942Y-93562362D01*
X106519862Y-93381442D01*
X106670252Y-93174447D01*
X106786410Y-92946475D01*
X106865474Y-92703139D01*
X106905500Y-92450430D01*
X106905500Y-92194570D01*
X106865474Y-91941861D01*
X106786410Y-91698525D01*
X106786410Y-91698524D01*
X106746185Y-91619580D01*
X106670252Y-91470553D01*
X106651038Y-91444107D01*
X106519867Y-91263564D01*
X106519863Y-91263559D01*
X106338940Y-91082636D01*
X106338935Y-91082632D01*
X106131950Y-90932250D01*
X106131949Y-90932249D01*
X106131947Y-90932248D01*
X106058910Y-90895033D01*
X105903975Y-90816089D01*
X105903972Y-90816088D01*
X105660640Y-90737026D01*
X105534284Y-90717013D01*
X105407930Y-90697000D01*
X105152070Y-90697000D01*
X105067833Y-90710342D01*
X104899359Y-90737026D01*
X104656027Y-90816088D01*
X104656024Y-90816089D01*
X104428049Y-90932250D01*
X104221064Y-91082632D01*
X104221059Y-91082636D01*
X104040136Y-91263559D01*
X104040132Y-91263564D01*
X103889750Y-91470549D01*
X103773589Y-91698524D01*
X103773588Y-91698527D01*
X103694526Y-91941859D01*
X103654500Y-92194570D01*
X73025499Y-92194570D01*
X73025499Y-91263564D01*
X73025499Y-89302130D01*
X73025498Y-89302124D01*
X73025497Y-89302117D01*
X73019091Y-89242518D01*
X72968796Y-89107670D01*
X72968795Y-89107669D01*
X72968793Y-89107665D01*
X72882547Y-88992456D01*
X72882544Y-88992453D01*
X72767335Y-88906207D01*
X72767328Y-88906203D01*
X72632482Y-88855909D01*
X72632483Y-88855909D01*
X72572883Y-88849502D01*
X72572881Y-88849501D01*
X72572873Y-88849501D01*
X72572864Y-88849501D01*
X68427129Y-88849501D01*
X68427123Y-88849502D01*
X68367516Y-88855909D01*
X68232671Y-88906203D01*
X68232664Y-88906207D01*
X68117455Y-88992453D01*
X68117452Y-88992456D01*
X68031206Y-89107665D01*
X68031202Y-89107672D01*
X67980908Y-89242518D01*
X67974501Y-89302117D01*
X67974501Y-89302124D01*
X67974500Y-89302136D01*
X54500500Y-89302136D01*
X54500500Y-83983634D01*
X216724500Y-83983634D01*
X216724500Y-84216365D01*
X216724501Y-84216382D01*
X216754878Y-84447122D01*
X216815120Y-84671947D01*
X216904180Y-84886960D01*
X216904188Y-84886976D01*
X217020553Y-85088524D01*
X217020564Y-85088540D01*
X217162242Y-85273179D01*
X217162248Y-85273186D01*
X217326813Y-85437751D01*
X217326819Y-85437756D01*
X217511468Y-85579442D01*
X217511475Y-85579446D01*
X217713023Y-85695811D01*
X217713039Y-85695819D01*
X217928052Y-85784879D01*
X217928054Y-85784879D01*
X217928060Y-85784882D01*
X218152874Y-85845121D01*
X218383628Y-85875500D01*
X218383635Y-85875500D01*
X218616365Y-85875500D01*
X218616372Y-85875500D01*
X218847126Y-85845121D01*
X219071940Y-85784882D01*
X219129953Y-85760852D01*
X219286960Y-85695819D01*
X219286963Y-85695817D01*
X219286969Y-85695815D01*
X219488532Y-85579442D01*
X219673181Y-85437756D01*
X219837756Y-85273181D01*
X219979442Y-85088532D01*
X220095815Y-84886969D01*
X220184882Y-84671940D01*
X220245121Y-84447126D01*
X220275500Y-84216372D01*
X220275500Y-83983628D01*
X220245121Y-83752874D01*
X220184882Y-83528060D01*
X220184879Y-83528052D01*
X220095819Y-83313039D01*
X220095811Y-83313023D01*
X219979446Y-83111475D01*
X219979442Y-83111468D01*
X219837756Y-82926819D01*
X219837751Y-82926813D01*
X219673186Y-82762248D01*
X219673179Y-82762242D01*
X219488540Y-82620564D01*
X219488538Y-82620562D01*
X219488532Y-82620558D01*
X219488527Y-82620555D01*
X219488524Y-82620553D01*
X219286976Y-82504188D01*
X219286960Y-82504180D01*
X219071947Y-82415120D01*
X218847122Y-82354878D01*
X218616382Y-82324501D01*
X218616377Y-82324500D01*
X218616372Y-82324500D01*
X218383628Y-82324500D01*
X218383622Y-82324500D01*
X218383617Y-82324501D01*
X218152877Y-82354878D01*
X217928052Y-82415120D01*
X217713039Y-82504180D01*
X217713023Y-82504188D01*
X217511475Y-82620553D01*
X217511459Y-82620564D01*
X217326820Y-82762242D01*
X217326813Y-82762248D01*
X217162248Y-82926813D01*
X217162242Y-82926820D01*
X217020564Y-83111459D01*
X217020553Y-83111475D01*
X216904188Y-83313023D01*
X216904180Y-83313039D01*
X216815120Y-83528052D01*
X216754878Y-83752877D01*
X216724501Y-83983617D01*
X216724500Y-83983634D01*
X54500500Y-83983634D01*
X54500500Y-76954570D01*
X103654500Y-76954570D01*
X103654500Y-77210429D01*
X103694526Y-77463140D01*
X103773588Y-77706472D01*
X103773589Y-77706475D01*
X103889750Y-77934450D01*
X104040132Y-78141435D01*
X104040136Y-78141440D01*
X104221059Y-78322363D01*
X104221064Y-78322367D01*
X104401607Y-78453538D01*
X104428053Y-78472752D01*
X104577080Y-78548685D01*
X104656024Y-78588910D01*
X104656027Y-78588911D01*
X104777693Y-78628442D01*
X104899361Y-78667974D01*
X105152070Y-78708000D01*
X105152071Y-78708000D01*
X105407929Y-78708000D01*
X105407930Y-78708000D01*
X105660639Y-78667974D01*
X105903975Y-78588910D01*
X106131947Y-78472752D01*
X106338942Y-78322362D01*
X106519862Y-78141442D01*
X106670252Y-77934447D01*
X106786410Y-77706475D01*
X106865474Y-77463139D01*
X106905500Y-77210430D01*
X106905500Y-76954570D01*
X106865474Y-76701861D01*
X106786410Y-76458525D01*
X106786410Y-76458524D01*
X106746185Y-76379580D01*
X106670252Y-76230553D01*
X106624805Y-76168000D01*
X106519867Y-76023564D01*
X106519863Y-76023559D01*
X106338940Y-75842636D01*
X106338935Y-75842632D01*
X106131950Y-75692250D01*
X106131949Y-75692249D01*
X106131947Y-75692248D01*
X106058910Y-75655033D01*
X105903975Y-75576089D01*
X105903972Y-75576088D01*
X105660640Y-75497026D01*
X105534284Y-75477013D01*
X105407930Y-75457000D01*
X105152070Y-75457000D01*
X105067833Y-75470342D01*
X104899359Y-75497026D01*
X104656027Y-75576088D01*
X104656024Y-75576089D01*
X104428049Y-75692250D01*
X104221064Y-75842632D01*
X104221059Y-75842636D01*
X104040136Y-76023559D01*
X104040132Y-76023564D01*
X103889750Y-76230549D01*
X103773589Y-76458524D01*
X103773588Y-76458527D01*
X103694526Y-76701859D01*
X103654500Y-76954570D01*
X54500500Y-76954570D01*
X54500500Y-74414570D01*
X149374500Y-74414570D01*
X149374500Y-74670429D01*
X149414526Y-74923140D01*
X149493588Y-75166472D01*
X149493589Y-75166475D01*
X149609750Y-75394450D01*
X149760132Y-75601435D01*
X149760136Y-75601440D01*
X149941059Y-75782363D01*
X149941064Y-75782367D01*
X150024018Y-75842636D01*
X150148053Y-75932752D01*
X150297080Y-76008685D01*
X150376024Y-76048910D01*
X150376027Y-76048911D01*
X150497693Y-76088442D01*
X150619361Y-76127974D01*
X150872070Y-76168000D01*
X150872071Y-76168000D01*
X151127929Y-76168000D01*
X151127930Y-76168000D01*
X151380639Y-76127974D01*
X151623975Y-76048910D01*
X151851947Y-75932752D01*
X152058942Y-75782362D01*
X152239862Y-75601442D01*
X152390252Y-75394447D01*
X152506410Y-75166475D01*
X152585474Y-74923139D01*
X152625500Y-74670430D01*
X152625500Y-74414570D01*
X152585474Y-74161861D01*
X152506410Y-73918525D01*
X152506410Y-73918524D01*
X152466185Y-73839580D01*
X152390252Y-73690553D01*
X152371038Y-73664107D01*
X152239867Y-73483564D01*
X152239863Y-73483559D01*
X152058940Y-73302636D01*
X152058935Y-73302632D01*
X151851950Y-73152250D01*
X151851949Y-73152249D01*
X151851947Y-73152248D01*
X151778910Y-73115033D01*
X151623975Y-73036089D01*
X151623972Y-73036088D01*
X151380640Y-72957026D01*
X151254284Y-72937013D01*
X151127930Y-72917000D01*
X150872070Y-72917000D01*
X150787833Y-72930342D01*
X150619359Y-72957026D01*
X150376027Y-73036088D01*
X150376024Y-73036089D01*
X150148049Y-73152250D01*
X149941064Y-73302632D01*
X149941059Y-73302636D01*
X149760136Y-73483559D01*
X149760132Y-73483564D01*
X149609750Y-73690549D01*
X149493589Y-73918524D01*
X149493588Y-73918527D01*
X149414526Y-74161859D01*
X149374500Y-74414570D01*
X54500500Y-74414570D01*
X54500500Y-61927135D01*
X62444500Y-61927135D01*
X62444500Y-66072870D01*
X62444501Y-66072876D01*
X62450908Y-66132483D01*
X62501202Y-66267328D01*
X62501206Y-66267335D01*
X62587452Y-66382544D01*
X62587455Y-66382547D01*
X62702664Y-66468793D01*
X62702671Y-66468797D01*
X62837517Y-66519091D01*
X62837516Y-66519091D01*
X62844444Y-66519835D01*
X62897127Y-66525500D01*
X67042872Y-66525499D01*
X67102483Y-66519091D01*
X67237331Y-66468796D01*
X67352546Y-66382546D01*
X67438796Y-66267331D01*
X67489091Y-66132483D01*
X67495500Y-66072873D01*
X67495499Y-61927135D01*
X83124500Y-61927135D01*
X83124500Y-66072870D01*
X83124501Y-66072876D01*
X83130908Y-66132483D01*
X83181202Y-66267328D01*
X83181206Y-66267335D01*
X83267452Y-66382544D01*
X83267455Y-66382547D01*
X83382664Y-66468793D01*
X83382671Y-66468797D01*
X83517517Y-66519091D01*
X83517516Y-66519091D01*
X83524444Y-66519835D01*
X83577127Y-66525500D01*
X87722872Y-66525499D01*
X87782483Y-66519091D01*
X87917331Y-66468796D01*
X88032546Y-66382546D01*
X88118796Y-66267331D01*
X88169091Y-66132483D01*
X88175500Y-66072873D01*
X88175499Y-61927135D01*
X103804500Y-61927135D01*
X103804500Y-66072870D01*
X103804501Y-66072876D01*
X103810908Y-66132483D01*
X103861202Y-66267328D01*
X103861206Y-66267335D01*
X103947452Y-66382544D01*
X103947455Y-66382547D01*
X104062664Y-66468793D01*
X104062671Y-66468797D01*
X104197517Y-66519091D01*
X104197516Y-66519091D01*
X104204444Y-66519835D01*
X104257127Y-66525500D01*
X108402872Y-66525499D01*
X108462483Y-66519091D01*
X108597331Y-66468796D01*
X108712546Y-66382546D01*
X108798796Y-66267331D01*
X108849091Y-66132483D01*
X108855500Y-66072873D01*
X108855499Y-61927135D01*
X124484500Y-61927135D01*
X124484500Y-66072870D01*
X124484501Y-66072876D01*
X124490908Y-66132483D01*
X124541202Y-66267328D01*
X124541206Y-66267335D01*
X124627452Y-66382544D01*
X124627455Y-66382547D01*
X124742664Y-66468793D01*
X124742671Y-66468797D01*
X124877517Y-66519091D01*
X124877516Y-66519091D01*
X124884444Y-66519835D01*
X124937127Y-66525500D01*
X129082872Y-66525499D01*
X129142483Y-66519091D01*
X129277331Y-66468796D01*
X129392546Y-66382546D01*
X129478796Y-66267331D01*
X129529091Y-66132483D01*
X129535500Y-66072873D01*
X129535499Y-61927135D01*
X145164500Y-61927135D01*
X145164500Y-66072870D01*
X145164501Y-66072876D01*
X145170908Y-66132483D01*
X145221202Y-66267328D01*
X145221206Y-66267335D01*
X145307452Y-66382544D01*
X145307455Y-66382547D01*
X145422664Y-66468793D01*
X145422671Y-66468797D01*
X145557517Y-66519091D01*
X145557516Y-66519091D01*
X145564444Y-66519835D01*
X145617127Y-66525500D01*
X149762872Y-66525499D01*
X149822483Y-66519091D01*
X149957331Y-66468796D01*
X150072546Y-66382546D01*
X150158796Y-66267331D01*
X150209091Y-66132483D01*
X150215500Y-66072873D01*
X150215499Y-61927135D01*
X165844500Y-61927135D01*
X165844500Y-66072870D01*
X165844501Y-66072876D01*
X165850908Y-66132483D01*
X165901202Y-66267328D01*
X165901206Y-66267335D01*
X165987452Y-66382544D01*
X165987455Y-66382547D01*
X166102664Y-66468793D01*
X166102671Y-66468797D01*
X166237517Y-66519091D01*
X166237516Y-66519091D01*
X166244444Y-66519835D01*
X166297127Y-66525500D01*
X170442872Y-66525499D01*
X170502483Y-66519091D01*
X170637331Y-66468796D01*
X170752546Y-66382546D01*
X170838796Y-66267331D01*
X170889091Y-66132483D01*
X170895500Y-66072873D01*
X170895499Y-63521134D01*
X186724500Y-63521134D01*
X186724500Y-63753865D01*
X186724501Y-63753882D01*
X186754878Y-63984622D01*
X186815120Y-64209447D01*
X186904180Y-64424460D01*
X186904188Y-64424476D01*
X187020553Y-64626024D01*
X187020564Y-64626040D01*
X187162242Y-64810679D01*
X187162248Y-64810686D01*
X187326813Y-64975251D01*
X187326819Y-64975256D01*
X187511468Y-65116942D01*
X187511475Y-65116946D01*
X187713023Y-65233311D01*
X187713039Y-65233319D01*
X187928052Y-65322379D01*
X187928054Y-65322379D01*
X187928060Y-65322382D01*
X188152874Y-65382621D01*
X188383628Y-65413000D01*
X188383635Y-65413000D01*
X188616365Y-65413000D01*
X188616372Y-65413000D01*
X188847126Y-65382621D01*
X189071940Y-65322382D01*
X189129953Y-65298352D01*
X189286960Y-65233319D01*
X189286963Y-65233317D01*
X189286969Y-65233315D01*
X189488532Y-65116942D01*
X189673181Y-64975256D01*
X189837756Y-64810681D01*
X189979442Y-64626032D01*
X190095815Y-64424469D01*
X190184882Y-64209440D01*
X190245121Y-63984626D01*
X190275500Y-63753872D01*
X190275500Y-63521134D01*
X202224500Y-63521134D01*
X202224500Y-63753865D01*
X202224501Y-63753882D01*
X202254878Y-63984622D01*
X202315120Y-64209447D01*
X202404180Y-64424460D01*
X202404188Y-64424476D01*
X202520553Y-64626024D01*
X202520564Y-64626040D01*
X202662242Y-64810679D01*
X202662248Y-64810686D01*
X202826813Y-64975251D01*
X202826819Y-64975256D01*
X203011468Y-65116942D01*
X203011475Y-65116946D01*
X203213023Y-65233311D01*
X203213039Y-65233319D01*
X203428052Y-65322379D01*
X203428054Y-65322379D01*
X203428060Y-65322382D01*
X203652874Y-65382621D01*
X203883628Y-65413000D01*
X203883635Y-65413000D01*
X204116365Y-65413000D01*
X204116372Y-65413000D01*
X204347126Y-65382621D01*
X204571940Y-65322382D01*
X204629953Y-65298352D01*
X204786960Y-65233319D01*
X204786963Y-65233317D01*
X204786969Y-65233315D01*
X204988532Y-65116942D01*
X205173181Y-64975256D01*
X205337756Y-64810681D01*
X205479442Y-64626032D01*
X205595815Y-64424469D01*
X205684882Y-64209440D01*
X205745121Y-63984626D01*
X205775500Y-63753872D01*
X205775500Y-63521134D01*
X217724500Y-63521134D01*
X217724500Y-63753865D01*
X217724501Y-63753882D01*
X217754878Y-63984622D01*
X217815120Y-64209447D01*
X217904180Y-64424460D01*
X217904188Y-64424476D01*
X218020553Y-64626024D01*
X218020564Y-64626040D01*
X218162242Y-64810679D01*
X218162248Y-64810686D01*
X218326813Y-64975251D01*
X218326819Y-64975256D01*
X218511468Y-65116942D01*
X218511475Y-65116946D01*
X218713023Y-65233311D01*
X218713039Y-65233319D01*
X218928052Y-65322379D01*
X218928054Y-65322379D01*
X218928060Y-65322382D01*
X219152874Y-65382621D01*
X219383628Y-65413000D01*
X219383635Y-65413000D01*
X219616365Y-65413000D01*
X219616372Y-65413000D01*
X219847126Y-65382621D01*
X220071940Y-65322382D01*
X220129953Y-65298352D01*
X220286960Y-65233319D01*
X220286963Y-65233317D01*
X220286969Y-65233315D01*
X220488532Y-65116942D01*
X220673181Y-64975256D01*
X220837756Y-64810681D01*
X220979442Y-64626032D01*
X221095815Y-64424469D01*
X221184882Y-64209440D01*
X221245121Y-63984626D01*
X221275500Y-63753872D01*
X221275500Y-63521128D01*
X221245121Y-63290374D01*
X221184882Y-63065560D01*
X221184879Y-63065552D01*
X221095819Y-62850539D01*
X221095811Y-62850523D01*
X220979446Y-62648975D01*
X220979442Y-62648968D01*
X220837756Y-62464319D01*
X220837751Y-62464313D01*
X220673186Y-62299748D01*
X220673179Y-62299742D01*
X220488540Y-62158064D01*
X220488538Y-62158062D01*
X220488532Y-62158058D01*
X220488527Y-62158055D01*
X220488524Y-62158053D01*
X220286976Y-62041688D01*
X220286960Y-62041680D01*
X220071947Y-61952620D01*
X219976836Y-61927135D01*
X219847126Y-61892379D01*
X219847125Y-61892378D01*
X219847122Y-61892378D01*
X219616382Y-61862001D01*
X219616377Y-61862000D01*
X219616372Y-61862000D01*
X219383628Y-61862000D01*
X219383622Y-61862000D01*
X219383617Y-61862001D01*
X219152877Y-61892378D01*
X218928052Y-61952620D01*
X218713039Y-62041680D01*
X218713023Y-62041688D01*
X218511475Y-62158053D01*
X218511459Y-62158064D01*
X218326820Y-62299742D01*
X218326813Y-62299748D01*
X218162248Y-62464313D01*
X218162242Y-62464320D01*
X218020564Y-62648959D01*
X218020553Y-62648975D01*
X217904188Y-62850523D01*
X217904180Y-62850539D01*
X217815120Y-63065552D01*
X217754878Y-63290377D01*
X217724501Y-63521117D01*
X217724500Y-63521134D01*
X205775500Y-63521134D01*
X205775500Y-63521128D01*
X205745121Y-63290374D01*
X205684882Y-63065560D01*
X205684879Y-63065552D01*
X205595819Y-62850539D01*
X205595811Y-62850523D01*
X205479446Y-62648975D01*
X205479442Y-62648968D01*
X205337756Y-62464319D01*
X205337751Y-62464313D01*
X205173186Y-62299748D01*
X205173179Y-62299742D01*
X204988540Y-62158064D01*
X204988538Y-62158062D01*
X204988532Y-62158058D01*
X204988527Y-62158055D01*
X204988524Y-62158053D01*
X204786976Y-62041688D01*
X204786960Y-62041680D01*
X204571947Y-61952620D01*
X204476836Y-61927135D01*
X204347126Y-61892379D01*
X204347125Y-61892378D01*
X204347122Y-61892378D01*
X204116382Y-61862001D01*
X204116377Y-61862000D01*
X204116372Y-61862000D01*
X203883628Y-61862000D01*
X203883622Y-61862000D01*
X203883617Y-61862001D01*
X203652877Y-61892378D01*
X203428052Y-61952620D01*
X203213039Y-62041680D01*
X203213023Y-62041688D01*
X203011475Y-62158053D01*
X203011459Y-62158064D01*
X202826820Y-62299742D01*
X202826813Y-62299748D01*
X202662248Y-62464313D01*
X202662242Y-62464320D01*
X202520564Y-62648959D01*
X202520553Y-62648975D01*
X202404188Y-62850523D01*
X202404180Y-62850539D01*
X202315120Y-63065552D01*
X202254878Y-63290377D01*
X202224501Y-63521117D01*
X202224500Y-63521134D01*
X190275500Y-63521134D01*
X190275500Y-63521128D01*
X190245121Y-63290374D01*
X190184882Y-63065560D01*
X190184879Y-63065552D01*
X190095819Y-62850539D01*
X190095811Y-62850523D01*
X189979446Y-62648975D01*
X189979442Y-62648968D01*
X189837756Y-62464319D01*
X189837751Y-62464313D01*
X189673186Y-62299748D01*
X189673179Y-62299742D01*
X189488540Y-62158064D01*
X189488538Y-62158062D01*
X189488532Y-62158058D01*
X189488527Y-62158055D01*
X189488524Y-62158053D01*
X189286976Y-62041688D01*
X189286960Y-62041680D01*
X189071947Y-61952620D01*
X188976836Y-61927135D01*
X188847126Y-61892379D01*
X188847125Y-61892378D01*
X188847122Y-61892378D01*
X188616382Y-61862001D01*
X188616377Y-61862000D01*
X188616372Y-61862000D01*
X188383628Y-61862000D01*
X188383622Y-61862000D01*
X188383617Y-61862001D01*
X188152877Y-61892378D01*
X187928052Y-61952620D01*
X187713039Y-62041680D01*
X187713023Y-62041688D01*
X187511475Y-62158053D01*
X187511459Y-62158064D01*
X187326820Y-62299742D01*
X187326813Y-62299748D01*
X187162248Y-62464313D01*
X187162242Y-62464320D01*
X187020564Y-62648959D01*
X187020553Y-62648975D01*
X186904188Y-62850523D01*
X186904180Y-62850539D01*
X186815120Y-63065552D01*
X186754878Y-63290377D01*
X186724501Y-63521117D01*
X186724500Y-63521134D01*
X170895499Y-63521134D01*
X170895499Y-61927128D01*
X170889091Y-61867517D01*
X170887033Y-61862000D01*
X170838797Y-61732671D01*
X170838793Y-61732664D01*
X170752547Y-61617455D01*
X170752544Y-61617452D01*
X170637335Y-61531206D01*
X170637328Y-61531202D01*
X170502482Y-61480908D01*
X170502483Y-61480908D01*
X170442883Y-61474501D01*
X170442881Y-61474500D01*
X170442873Y-61474500D01*
X170442864Y-61474500D01*
X166297129Y-61474500D01*
X166297123Y-61474501D01*
X166237516Y-61480908D01*
X166102671Y-61531202D01*
X166102664Y-61531206D01*
X165987455Y-61617452D01*
X165987452Y-61617455D01*
X165901206Y-61732664D01*
X165901202Y-61732671D01*
X165850908Y-61867517D01*
X165844501Y-61927116D01*
X165844501Y-61927123D01*
X165844500Y-61927135D01*
X150215499Y-61927135D01*
X150215499Y-61927128D01*
X150209091Y-61867517D01*
X150207033Y-61862000D01*
X150158797Y-61732671D01*
X150158793Y-61732664D01*
X150072547Y-61617455D01*
X150072544Y-61617452D01*
X149957335Y-61531206D01*
X149957328Y-61531202D01*
X149822482Y-61480908D01*
X149822483Y-61480908D01*
X149762883Y-61474501D01*
X149762881Y-61474500D01*
X149762873Y-61474500D01*
X149762864Y-61474500D01*
X145617129Y-61474500D01*
X145617123Y-61474501D01*
X145557516Y-61480908D01*
X145422671Y-61531202D01*
X145422664Y-61531206D01*
X145307455Y-61617452D01*
X145307452Y-61617455D01*
X145221206Y-61732664D01*
X145221202Y-61732671D01*
X145170908Y-61867517D01*
X145164501Y-61927116D01*
X145164501Y-61927123D01*
X145164500Y-61927135D01*
X129535499Y-61927135D01*
X129535499Y-61927128D01*
X129529091Y-61867517D01*
X129527033Y-61862000D01*
X129478797Y-61732671D01*
X129478793Y-61732664D01*
X129392547Y-61617455D01*
X129392544Y-61617452D01*
X129277335Y-61531206D01*
X129277328Y-61531202D01*
X129142482Y-61480908D01*
X129142483Y-61480908D01*
X129082883Y-61474501D01*
X129082881Y-61474500D01*
X129082873Y-61474500D01*
X129082864Y-61474500D01*
X124937129Y-61474500D01*
X124937123Y-61474501D01*
X124877516Y-61480908D01*
X124742671Y-61531202D01*
X124742664Y-61531206D01*
X124627455Y-61617452D01*
X124627452Y-61617455D01*
X124541206Y-61732664D01*
X124541202Y-61732671D01*
X124490908Y-61867517D01*
X124484501Y-61927116D01*
X124484501Y-61927123D01*
X124484500Y-61927135D01*
X108855499Y-61927135D01*
X108855499Y-61927128D01*
X108849091Y-61867517D01*
X108847033Y-61862000D01*
X108798797Y-61732671D01*
X108798793Y-61732664D01*
X108712547Y-61617455D01*
X108712544Y-61617452D01*
X108597335Y-61531206D01*
X108597328Y-61531202D01*
X108462482Y-61480908D01*
X108462483Y-61480908D01*
X108402883Y-61474501D01*
X108402881Y-61474500D01*
X108402873Y-61474500D01*
X108402864Y-61474500D01*
X104257129Y-61474500D01*
X104257123Y-61474501D01*
X104197516Y-61480908D01*
X104062671Y-61531202D01*
X104062664Y-61531206D01*
X103947455Y-61617452D01*
X103947452Y-61617455D01*
X103861206Y-61732664D01*
X103861202Y-61732671D01*
X103810908Y-61867517D01*
X103804501Y-61927116D01*
X103804501Y-61927123D01*
X103804500Y-61927135D01*
X88175499Y-61927135D01*
X88175499Y-61927128D01*
X88169091Y-61867517D01*
X88167033Y-61862000D01*
X88118797Y-61732671D01*
X88118793Y-61732664D01*
X88032547Y-61617455D01*
X88032544Y-61617452D01*
X87917335Y-61531206D01*
X87917328Y-61531202D01*
X87782482Y-61480908D01*
X87782483Y-61480908D01*
X87722883Y-61474501D01*
X87722881Y-61474500D01*
X87722873Y-61474500D01*
X87722864Y-61474500D01*
X83577129Y-61474500D01*
X83577123Y-61474501D01*
X83517516Y-61480908D01*
X83382671Y-61531202D01*
X83382664Y-61531206D01*
X83267455Y-61617452D01*
X83267452Y-61617455D01*
X83181206Y-61732664D01*
X83181202Y-61732671D01*
X83130908Y-61867517D01*
X83124501Y-61927116D01*
X83124501Y-61927123D01*
X83124500Y-61927135D01*
X67495499Y-61927135D01*
X67495499Y-61927128D01*
X67489091Y-61867517D01*
X67487033Y-61862000D01*
X67438797Y-61732671D01*
X67438793Y-61732664D01*
X67352547Y-61617455D01*
X67352544Y-61617452D01*
X67237335Y-61531206D01*
X67237328Y-61531202D01*
X67102482Y-61480908D01*
X67102483Y-61480908D01*
X67042883Y-61474501D01*
X67042881Y-61474500D01*
X67042873Y-61474500D01*
X67042864Y-61474500D01*
X62897129Y-61474500D01*
X62897123Y-61474501D01*
X62837516Y-61480908D01*
X62702671Y-61531202D01*
X62702664Y-61531206D01*
X62587455Y-61617452D01*
X62587452Y-61617455D01*
X62501206Y-61732664D01*
X62501202Y-61732671D01*
X62450908Y-61867517D01*
X62444501Y-61927116D01*
X62444501Y-61927123D01*
X62444500Y-61927135D01*
X54500500Y-61927135D01*
X54500500Y-52050862D01*
X54520185Y-51983823D01*
X54536819Y-51963181D01*
X58463181Y-48036819D01*
X58524504Y-48003334D01*
X58550862Y-48000500D01*
X229449138Y-48000500D01*
X229516177Y-48020185D01*
G37*
%TD.AperFunction*%
%TD*%
M02*
