%TF.GenerationSoftware,KiCad,Pcbnew,9.0.2*%
%TF.CreationDate,2025-07-22T14:00:08+09:00*%
%TF.ProjectId,Power_Distribution_Board,506f7765-725f-4446-9973-747269627574,rev?*%
%TF.SameCoordinates,Original*%
%TF.FileFunction,Legend,Top*%
%TF.FilePolarity,Positive*%
%FSLAX46Y46*%
G04 Gerber Fmt 4.6, Leading zero omitted, Abs format (unit mm)*
G04 Created by KiCad (PCBNEW 9.0.2) date 2025-07-22 14:00:08*
%MOMM*%
%LPD*%
G01*
G04 APERTURE LIST*
%ADD10C,0.100000*%
%ADD11C,0.600000*%
%ADD12C,0.400000*%
%ADD13C,0.150000*%
%ADD14C,0.254000*%
%ADD15C,0.120000*%
%ADD16C,0.200000*%
G04 APERTURE END LIST*
D10*
X77000000Y-69000000D02*
X156000000Y-69000000D01*
X156000000Y-169000000D01*
X77000000Y-169000000D01*
X77000000Y-69000000D01*
X159000000Y-82000000D02*
X209000000Y-82000000D01*
X209000000Y-172000000D01*
X159000000Y-172000000D01*
X159000000Y-82000000D01*
X200500000Y-212000000D02*
X200500000Y-210500000D01*
X136500000Y-188500000D02*
X136500000Y-212000000D01*
X75000000Y-182000000D02*
X75000000Y-168500000D01*
X91500000Y-185500000D02*
X139000000Y-185500000D01*
X233500000Y-210500000D02*
X233500000Y-171500000D01*
X75000000Y-182000000D02*
X77500000Y-185500000D01*
X135650000Y-212000000D02*
X135650000Y-190500000D01*
X54500000Y-141500000D02*
X54500000Y-201500000D01*
X120650000Y-190500000D02*
X116150000Y-190500000D01*
X173000000Y-190000000D02*
X139000000Y-190000000D01*
X142500000Y-48000000D02*
X180500000Y-48000000D01*
X180500000Y-68000000D01*
X142500000Y-68000000D01*
X142500000Y-48000000D01*
X212500000Y-129000000D02*
X233500000Y-129000000D01*
X233500000Y-167500000D01*
X212500000Y-167500000D01*
X212500000Y-129000000D01*
X116150000Y-190500000D02*
X116150000Y-212000000D01*
X200500000Y-210500000D02*
X233500000Y-210500000D01*
X54500000Y-201500000D02*
X74000000Y-201500000D01*
X54500000Y-79000000D02*
X75000000Y-79000000D01*
X75000000Y-138500000D01*
X54500000Y-138500000D01*
X54500000Y-79000000D01*
X135650000Y-190500000D02*
X130650000Y-190500000D01*
X74000000Y-201500000D02*
X77000000Y-199000000D01*
X214000000Y-79500000D02*
X234000000Y-79500000D01*
X234000000Y-126500000D01*
X214000000Y-126500000D01*
X214000000Y-79500000D01*
X233500000Y-171500000D02*
X214000000Y-171500000D01*
X139000000Y-185500000D02*
X139000000Y-190000000D01*
X116150000Y-212000000D02*
X135650000Y-212000000D01*
X77000000Y-199000000D02*
X77000000Y-188500000D01*
X59500000Y-48000000D02*
X139000000Y-48000000D01*
X139000000Y-68000000D01*
X59500000Y-68000000D01*
X59500000Y-48000000D01*
X77500000Y-185500000D02*
X81500000Y-185500000D01*
X214000000Y-190000000D02*
X184500000Y-190000000D01*
X183500000Y-48000000D02*
X229500000Y-48000000D01*
X229500000Y-68000000D01*
X183500000Y-68000000D01*
X183500000Y-48000000D01*
X214000000Y-171500000D02*
X214000000Y-190000000D01*
X75000000Y-158000000D02*
X75000000Y-141500000D01*
X136500000Y-212000000D02*
X200500000Y-212000000D01*
X75000000Y-141500000D02*
X54500000Y-141500000D01*
X98500000Y-188500000D02*
X136500000Y-188500000D01*
X77000000Y-188500000D02*
X99000000Y-188500000D01*
D11*
X104071428Y-114941741D02*
X104071428Y-117084598D01*
X104071428Y-117084598D02*
X103928571Y-117513169D01*
X103928571Y-117513169D02*
X103642857Y-117798884D01*
X103642857Y-117798884D02*
X103214285Y-117941741D01*
X103214285Y-117941741D02*
X102928571Y-117941741D01*
X106642856Y-117798884D02*
X106357142Y-117941741D01*
X106357142Y-117941741D02*
X105785714Y-117941741D01*
X105785714Y-117941741D02*
X105499999Y-117798884D01*
X105499999Y-117798884D02*
X105357142Y-117513169D01*
X105357142Y-117513169D02*
X105357142Y-116370312D01*
X105357142Y-116370312D02*
X105499999Y-116084598D01*
X105499999Y-116084598D02*
X105785714Y-115941741D01*
X105785714Y-115941741D02*
X106357142Y-115941741D01*
X106357142Y-115941741D02*
X106642856Y-116084598D01*
X106642856Y-116084598D02*
X106785714Y-116370312D01*
X106785714Y-116370312D02*
X106785714Y-116656026D01*
X106785714Y-116656026D02*
X105357142Y-116941741D01*
X107642857Y-115941741D02*
X108785714Y-115941741D01*
X108071428Y-114941741D02*
X108071428Y-117513169D01*
X108071428Y-117513169D02*
X108214285Y-117798884D01*
X108214285Y-117798884D02*
X108500000Y-117941741D01*
X108500000Y-117941741D02*
X108785714Y-117941741D01*
X109642857Y-117798884D02*
X109928571Y-117941741D01*
X109928571Y-117941741D02*
X110500000Y-117941741D01*
X110500000Y-117941741D02*
X110785714Y-117798884D01*
X110785714Y-117798884D02*
X110928571Y-117513169D01*
X110928571Y-117513169D02*
X110928571Y-117370312D01*
X110928571Y-117370312D02*
X110785714Y-117084598D01*
X110785714Y-117084598D02*
X110500000Y-116941741D01*
X110500000Y-116941741D02*
X110071429Y-116941741D01*
X110071429Y-116941741D02*
X109785714Y-116798884D01*
X109785714Y-116798884D02*
X109642857Y-116513169D01*
X109642857Y-116513169D02*
X109642857Y-116370312D01*
X109642857Y-116370312D02*
X109785714Y-116084598D01*
X109785714Y-116084598D02*
X110071429Y-115941741D01*
X110071429Y-115941741D02*
X110500000Y-115941741D01*
X110500000Y-115941741D02*
X110785714Y-116084598D01*
X112642857Y-117941741D02*
X112357142Y-117798884D01*
X112357142Y-117798884D02*
X112214285Y-117656026D01*
X112214285Y-117656026D02*
X112071428Y-117370312D01*
X112071428Y-117370312D02*
X112071428Y-116513169D01*
X112071428Y-116513169D02*
X112214285Y-116227455D01*
X112214285Y-116227455D02*
X112357142Y-116084598D01*
X112357142Y-116084598D02*
X112642857Y-115941741D01*
X112642857Y-115941741D02*
X113071428Y-115941741D01*
X113071428Y-115941741D02*
X113357142Y-116084598D01*
X113357142Y-116084598D02*
X113500000Y-116227455D01*
X113500000Y-116227455D02*
X113642857Y-116513169D01*
X113642857Y-116513169D02*
X113642857Y-117370312D01*
X113642857Y-117370312D02*
X113500000Y-117656026D01*
X113500000Y-117656026D02*
X113357142Y-117798884D01*
X113357142Y-117798884D02*
X113071428Y-117941741D01*
X113071428Y-117941741D02*
X112642857Y-117941741D01*
X114928571Y-115941741D02*
X114928571Y-117941741D01*
X114928571Y-116227455D02*
X115071428Y-116084598D01*
X115071428Y-116084598D02*
X115357143Y-115941741D01*
X115357143Y-115941741D02*
X115785714Y-115941741D01*
X115785714Y-115941741D02*
X116071428Y-116084598D01*
X116071428Y-116084598D02*
X116214286Y-116370312D01*
X116214286Y-116370312D02*
X116214286Y-117941741D01*
X119928571Y-117941741D02*
X119928571Y-114941741D01*
X119928571Y-114941741D02*
X121642857Y-117941741D01*
X121642857Y-117941741D02*
X121642857Y-114941741D01*
X124357143Y-117941741D02*
X124357143Y-116370312D01*
X124357143Y-116370312D02*
X124214285Y-116084598D01*
X124214285Y-116084598D02*
X123928571Y-115941741D01*
X123928571Y-115941741D02*
X123357143Y-115941741D01*
X123357143Y-115941741D02*
X123071428Y-116084598D01*
X124357143Y-117798884D02*
X124071428Y-117941741D01*
X124071428Y-117941741D02*
X123357143Y-117941741D01*
X123357143Y-117941741D02*
X123071428Y-117798884D01*
X123071428Y-117798884D02*
X122928571Y-117513169D01*
X122928571Y-117513169D02*
X122928571Y-117227455D01*
X122928571Y-117227455D02*
X123071428Y-116941741D01*
X123071428Y-116941741D02*
X123357143Y-116798884D01*
X123357143Y-116798884D02*
X124071428Y-116798884D01*
X124071428Y-116798884D02*
X124357143Y-116656026D01*
X125785714Y-115941741D02*
X125785714Y-117941741D01*
X125785714Y-116227455D02*
X125928571Y-116084598D01*
X125928571Y-116084598D02*
X126214286Y-115941741D01*
X126214286Y-115941741D02*
X126642857Y-115941741D01*
X126642857Y-115941741D02*
X126928571Y-116084598D01*
X126928571Y-116084598D02*
X127071429Y-116370312D01*
X127071429Y-116370312D02*
X127071429Y-117941741D01*
X128928572Y-117941741D02*
X128642857Y-117798884D01*
X128642857Y-117798884D02*
X128500000Y-117656026D01*
X128500000Y-117656026D02*
X128357143Y-117370312D01*
X128357143Y-117370312D02*
X128357143Y-116513169D01*
X128357143Y-116513169D02*
X128500000Y-116227455D01*
X128500000Y-116227455D02*
X128642857Y-116084598D01*
X128642857Y-116084598D02*
X128928572Y-115941741D01*
X128928572Y-115941741D02*
X129357143Y-115941741D01*
X129357143Y-115941741D02*
X129642857Y-116084598D01*
X129642857Y-116084598D02*
X129785715Y-116227455D01*
X129785715Y-116227455D02*
X129928572Y-116513169D01*
X129928572Y-116513169D02*
X129928572Y-117370312D01*
X129928572Y-117370312D02*
X129785715Y-117656026D01*
X129785715Y-117656026D02*
X129642857Y-117798884D01*
X129642857Y-117798884D02*
X129357143Y-117941741D01*
X129357143Y-117941741D02*
X128928572Y-117941741D01*
X105714285Y-119771573D02*
X106285713Y-119771573D01*
X106285713Y-119771573D02*
X106571428Y-119914430D01*
X106571428Y-119914430D02*
X106857142Y-120200144D01*
X106857142Y-120200144D02*
X106999999Y-120771573D01*
X106999999Y-120771573D02*
X106999999Y-121771573D01*
X106999999Y-121771573D02*
X106857142Y-122343001D01*
X106857142Y-122343001D02*
X106571428Y-122628716D01*
X106571428Y-122628716D02*
X106285713Y-122771573D01*
X106285713Y-122771573D02*
X105714285Y-122771573D01*
X105714285Y-122771573D02*
X105428571Y-122628716D01*
X105428571Y-122628716D02*
X105142856Y-122343001D01*
X105142856Y-122343001D02*
X104999999Y-121771573D01*
X104999999Y-121771573D02*
X104999999Y-120771573D01*
X104999999Y-120771573D02*
X105142856Y-120200144D01*
X105142856Y-120200144D02*
X105428571Y-119914430D01*
X105428571Y-119914430D02*
X105714285Y-119771573D01*
X108285713Y-122771573D02*
X108285713Y-120771573D01*
X108285713Y-121343001D02*
X108428570Y-121057287D01*
X108428570Y-121057287D02*
X108571428Y-120914430D01*
X108571428Y-120914430D02*
X108857142Y-120771573D01*
X108857142Y-120771573D02*
X109142856Y-120771573D01*
X110142856Y-122771573D02*
X110142856Y-120771573D01*
X110142856Y-119771573D02*
X109999999Y-119914430D01*
X109999999Y-119914430D02*
X110142856Y-120057287D01*
X110142856Y-120057287D02*
X110285713Y-119914430D01*
X110285713Y-119914430D02*
X110142856Y-119771573D01*
X110142856Y-119771573D02*
X110142856Y-120057287D01*
X111571427Y-120771573D02*
X111571427Y-122771573D01*
X111571427Y-121057287D02*
X111714284Y-120914430D01*
X111714284Y-120914430D02*
X111999999Y-120771573D01*
X111999999Y-120771573D02*
X112428570Y-120771573D01*
X112428570Y-120771573D02*
X112714284Y-120914430D01*
X112714284Y-120914430D02*
X112857142Y-121200144D01*
X112857142Y-121200144D02*
X112857142Y-122771573D01*
X116428570Y-122628716D02*
X116857142Y-122771573D01*
X116857142Y-122771573D02*
X117571427Y-122771573D01*
X117571427Y-122771573D02*
X117857142Y-122628716D01*
X117857142Y-122628716D02*
X117999999Y-122485858D01*
X117999999Y-122485858D02*
X118142856Y-122200144D01*
X118142856Y-122200144D02*
X118142856Y-121914430D01*
X118142856Y-121914430D02*
X117999999Y-121628716D01*
X117999999Y-121628716D02*
X117857142Y-121485858D01*
X117857142Y-121485858D02*
X117571427Y-121343001D01*
X117571427Y-121343001D02*
X116999999Y-121200144D01*
X116999999Y-121200144D02*
X116714284Y-121057287D01*
X116714284Y-121057287D02*
X116571427Y-120914430D01*
X116571427Y-120914430D02*
X116428570Y-120628716D01*
X116428570Y-120628716D02*
X116428570Y-120343001D01*
X116428570Y-120343001D02*
X116571427Y-120057287D01*
X116571427Y-120057287D02*
X116714284Y-119914430D01*
X116714284Y-119914430D02*
X116999999Y-119771573D01*
X116999999Y-119771573D02*
X117714284Y-119771573D01*
X117714284Y-119771573D02*
X118142856Y-119914430D01*
X120714285Y-120771573D02*
X120714285Y-122771573D01*
X119428570Y-120771573D02*
X119428570Y-122343001D01*
X119428570Y-122343001D02*
X119571427Y-122628716D01*
X119571427Y-122628716D02*
X119857142Y-122771573D01*
X119857142Y-122771573D02*
X120285713Y-122771573D01*
X120285713Y-122771573D02*
X120571427Y-122628716D01*
X120571427Y-122628716D02*
X120714285Y-122485858D01*
X122142856Y-120771573D02*
X122142856Y-123771573D01*
X122142856Y-120914430D02*
X122428571Y-120771573D01*
X122428571Y-120771573D02*
X122999999Y-120771573D01*
X122999999Y-120771573D02*
X123285713Y-120914430D01*
X123285713Y-120914430D02*
X123428571Y-121057287D01*
X123428571Y-121057287D02*
X123571428Y-121343001D01*
X123571428Y-121343001D02*
X123571428Y-122200144D01*
X123571428Y-122200144D02*
X123428571Y-122485858D01*
X123428571Y-122485858D02*
X123285713Y-122628716D01*
X123285713Y-122628716D02*
X122999999Y-122771573D01*
X122999999Y-122771573D02*
X122428571Y-122771573D01*
X122428571Y-122771573D02*
X122142856Y-122628716D01*
X125999999Y-122628716D02*
X125714285Y-122771573D01*
X125714285Y-122771573D02*
X125142857Y-122771573D01*
X125142857Y-122771573D02*
X124857142Y-122628716D01*
X124857142Y-122628716D02*
X124714285Y-122343001D01*
X124714285Y-122343001D02*
X124714285Y-121200144D01*
X124714285Y-121200144D02*
X124857142Y-120914430D01*
X124857142Y-120914430D02*
X125142857Y-120771573D01*
X125142857Y-120771573D02*
X125714285Y-120771573D01*
X125714285Y-120771573D02*
X125999999Y-120914430D01*
X125999999Y-120914430D02*
X126142857Y-121200144D01*
X126142857Y-121200144D02*
X126142857Y-121485858D01*
X126142857Y-121485858D02*
X124714285Y-121771573D01*
X127428571Y-122771573D02*
X127428571Y-120771573D01*
X127428571Y-121343001D02*
X127571428Y-121057287D01*
X127571428Y-121057287D02*
X127714286Y-120914430D01*
X127714286Y-120914430D02*
X128000000Y-120771573D01*
X128000000Y-120771573D02*
X128285714Y-120771573D01*
D12*
X217904438Y-112738095D02*
X217904438Y-113880952D01*
X217904438Y-113309524D02*
X215904438Y-113309524D01*
X215904438Y-113309524D02*
X216190152Y-113500000D01*
X216190152Y-113500000D02*
X216380628Y-113690476D01*
X216380628Y-113690476D02*
X216475866Y-113880952D01*
X216094914Y-111976190D02*
X215999676Y-111880952D01*
X215999676Y-111880952D02*
X215904438Y-111690476D01*
X215904438Y-111690476D02*
X215904438Y-111214285D01*
X215904438Y-111214285D02*
X215999676Y-111023809D01*
X215999676Y-111023809D02*
X216094914Y-110928571D01*
X216094914Y-110928571D02*
X216285390Y-110833333D01*
X216285390Y-110833333D02*
X216475866Y-110833333D01*
X216475866Y-110833333D02*
X216761580Y-110928571D01*
X216761580Y-110928571D02*
X217904438Y-112071428D01*
X217904438Y-112071428D02*
X217904438Y-110833333D01*
X215904438Y-110261904D02*
X217904438Y-109595238D01*
X217904438Y-109595238D02*
X215904438Y-108928571D01*
X199738095Y-64595561D02*
X200880952Y-64595561D01*
X200309524Y-64595561D02*
X200309524Y-66595561D01*
X200309524Y-66595561D02*
X200500000Y-66309847D01*
X200500000Y-66309847D02*
X200690476Y-66119371D01*
X200690476Y-66119371D02*
X200880952Y-66024133D01*
X198976190Y-66405085D02*
X198880952Y-66500323D01*
X198880952Y-66500323D02*
X198690476Y-66595561D01*
X198690476Y-66595561D02*
X198214285Y-66595561D01*
X198214285Y-66595561D02*
X198023809Y-66500323D01*
X198023809Y-66500323D02*
X197928571Y-66405085D01*
X197928571Y-66405085D02*
X197833333Y-66214609D01*
X197833333Y-66214609D02*
X197833333Y-66024133D01*
X197833333Y-66024133D02*
X197928571Y-65738419D01*
X197928571Y-65738419D02*
X199071428Y-64595561D01*
X199071428Y-64595561D02*
X197833333Y-64595561D01*
X197261904Y-66595561D02*
X196595238Y-64595561D01*
X196595238Y-64595561D02*
X195928571Y-66595561D01*
X162738095Y-65095561D02*
X163880952Y-65095561D01*
X163309524Y-65095561D02*
X163309524Y-67095561D01*
X163309524Y-67095561D02*
X163500000Y-66809847D01*
X163500000Y-66809847D02*
X163690476Y-66619371D01*
X163690476Y-66619371D02*
X163880952Y-66524133D01*
X160928571Y-67095561D02*
X161880952Y-67095561D01*
X161880952Y-67095561D02*
X161976190Y-66143180D01*
X161976190Y-66143180D02*
X161880952Y-66238419D01*
X161880952Y-66238419D02*
X161690476Y-66333657D01*
X161690476Y-66333657D02*
X161214285Y-66333657D01*
X161214285Y-66333657D02*
X161023809Y-66238419D01*
X161023809Y-66238419D02*
X160928571Y-66143180D01*
X160928571Y-66143180D02*
X160833333Y-65952704D01*
X160833333Y-65952704D02*
X160833333Y-65476514D01*
X160833333Y-65476514D02*
X160928571Y-65286038D01*
X160928571Y-65286038D02*
X161023809Y-65190800D01*
X161023809Y-65190800D02*
X161214285Y-65095561D01*
X161214285Y-65095561D02*
X161690476Y-65095561D01*
X161690476Y-65095561D02*
X161880952Y-65190800D01*
X161880952Y-65190800D02*
X161976190Y-65286038D01*
X160261904Y-67095561D02*
X159595238Y-65095561D01*
X159595238Y-65095561D02*
X158928571Y-67095561D01*
X121792857Y-191404438D02*
X121792857Y-189404438D01*
X122745238Y-191404438D02*
X122745238Y-189404438D01*
X122745238Y-189404438D02*
X123888095Y-191404438D01*
X123888095Y-191404438D02*
X123888095Y-189404438D01*
X124840476Y-191404438D02*
X124840476Y-189404438D01*
X124840476Y-189404438D02*
X125602381Y-189404438D01*
X125602381Y-189404438D02*
X125792857Y-189499676D01*
X125792857Y-189499676D02*
X125888095Y-189594914D01*
X125888095Y-189594914D02*
X125983333Y-189785390D01*
X125983333Y-189785390D02*
X125983333Y-190071104D01*
X125983333Y-190071104D02*
X125888095Y-190261580D01*
X125888095Y-190261580D02*
X125792857Y-190356819D01*
X125792857Y-190356819D02*
X125602381Y-190452057D01*
X125602381Y-190452057D02*
X124840476Y-190452057D01*
X126840476Y-189404438D02*
X126840476Y-191023485D01*
X126840476Y-191023485D02*
X126935714Y-191213961D01*
X126935714Y-191213961D02*
X127030952Y-191309200D01*
X127030952Y-191309200D02*
X127221428Y-191404438D01*
X127221428Y-191404438D02*
X127602381Y-191404438D01*
X127602381Y-191404438D02*
X127792857Y-191309200D01*
X127792857Y-191309200D02*
X127888095Y-191213961D01*
X127888095Y-191213961D02*
X127983333Y-191023485D01*
X127983333Y-191023485D02*
X127983333Y-189404438D01*
X128650000Y-189404438D02*
X129792857Y-189404438D01*
X129221428Y-191404438D02*
X129221428Y-189404438D01*
X215238095Y-64595561D02*
X216380952Y-64595561D01*
X215809524Y-64595561D02*
X215809524Y-66595561D01*
X215809524Y-66595561D02*
X216000000Y-66309847D01*
X216000000Y-66309847D02*
X216190476Y-66119371D01*
X216190476Y-66119371D02*
X216380952Y-66024133D01*
X214476190Y-66405085D02*
X214380952Y-66500323D01*
X214380952Y-66500323D02*
X214190476Y-66595561D01*
X214190476Y-66595561D02*
X213714285Y-66595561D01*
X213714285Y-66595561D02*
X213523809Y-66500323D01*
X213523809Y-66500323D02*
X213428571Y-66405085D01*
X213428571Y-66405085D02*
X213333333Y-66214609D01*
X213333333Y-66214609D02*
X213333333Y-66024133D01*
X213333333Y-66024133D02*
X213428571Y-65738419D01*
X213428571Y-65738419D02*
X214571428Y-64595561D01*
X214571428Y-64595561D02*
X213333333Y-64595561D01*
X212761904Y-66595561D02*
X212095238Y-64595561D01*
X212095238Y-64595561D02*
X211428571Y-66595561D01*
X81380952Y-66905085D02*
X81285714Y-67000323D01*
X81285714Y-67000323D02*
X81095238Y-67095561D01*
X81095238Y-67095561D02*
X80619047Y-67095561D01*
X80619047Y-67095561D02*
X80428571Y-67000323D01*
X80428571Y-67000323D02*
X80333333Y-66905085D01*
X80333333Y-66905085D02*
X80238095Y-66714609D01*
X80238095Y-66714609D02*
X80238095Y-66524133D01*
X80238095Y-66524133D02*
X80333333Y-66238419D01*
X80333333Y-66238419D02*
X81476190Y-65095561D01*
X81476190Y-65095561D02*
X80238095Y-65095561D01*
X78523809Y-66428895D02*
X78523809Y-65095561D01*
X79000000Y-67190800D02*
X79476190Y-65762228D01*
X79476190Y-65762228D02*
X78238095Y-65762228D01*
X77761904Y-67095561D02*
X77095238Y-65095561D01*
X77095238Y-65095561D02*
X76428571Y-67095561D01*
X122880952Y-66905085D02*
X122785714Y-67000323D01*
X122785714Y-67000323D02*
X122595238Y-67095561D01*
X122595238Y-67095561D02*
X122119047Y-67095561D01*
X122119047Y-67095561D02*
X121928571Y-67000323D01*
X121928571Y-67000323D02*
X121833333Y-66905085D01*
X121833333Y-66905085D02*
X121738095Y-66714609D01*
X121738095Y-66714609D02*
X121738095Y-66524133D01*
X121738095Y-66524133D02*
X121833333Y-66238419D01*
X121833333Y-66238419D02*
X122976190Y-65095561D01*
X122976190Y-65095561D02*
X121738095Y-65095561D01*
X120023809Y-66428895D02*
X120023809Y-65095561D01*
X120500000Y-67190800D02*
X120976190Y-65762228D01*
X120976190Y-65762228D02*
X119738095Y-65762228D01*
X119261904Y-67095561D02*
X118595238Y-65095561D01*
X118595238Y-65095561D02*
X117928571Y-67095561D01*
X73905085Y-116619047D02*
X74000323Y-116714285D01*
X74000323Y-116714285D02*
X74095561Y-116904761D01*
X74095561Y-116904761D02*
X74095561Y-117380952D01*
X74095561Y-117380952D02*
X74000323Y-117571428D01*
X74000323Y-117571428D02*
X73905085Y-117666666D01*
X73905085Y-117666666D02*
X73714609Y-117761904D01*
X73714609Y-117761904D02*
X73524133Y-117761904D01*
X73524133Y-117761904D02*
X73238419Y-117666666D01*
X73238419Y-117666666D02*
X72095561Y-116523809D01*
X72095561Y-116523809D02*
X72095561Y-117761904D01*
X73428895Y-119476190D02*
X72095561Y-119476190D01*
X74190800Y-118999999D02*
X72762228Y-118523809D01*
X72762228Y-118523809D02*
X72762228Y-119761904D01*
X74095561Y-120238095D02*
X72095561Y-120904761D01*
X72095561Y-120904761D02*
X74095561Y-121571428D01*
X85023809Y-185356819D02*
X85309523Y-185452057D01*
X85309523Y-185452057D02*
X85404761Y-185547295D01*
X85404761Y-185547295D02*
X85499999Y-185737771D01*
X85499999Y-185737771D02*
X85499999Y-186023485D01*
X85499999Y-186023485D02*
X85404761Y-186213961D01*
X85404761Y-186213961D02*
X85309523Y-186309200D01*
X85309523Y-186309200D02*
X85119047Y-186404438D01*
X85119047Y-186404438D02*
X84357142Y-186404438D01*
X84357142Y-186404438D02*
X84357142Y-184404438D01*
X84357142Y-184404438D02*
X85023809Y-184404438D01*
X85023809Y-184404438D02*
X85214285Y-184499676D01*
X85214285Y-184499676D02*
X85309523Y-184594914D01*
X85309523Y-184594914D02*
X85404761Y-184785390D01*
X85404761Y-184785390D02*
X85404761Y-184975866D01*
X85404761Y-184975866D02*
X85309523Y-185166342D01*
X85309523Y-185166342D02*
X85214285Y-185261580D01*
X85214285Y-185261580D02*
X85023809Y-185356819D01*
X85023809Y-185356819D02*
X84357142Y-185356819D01*
X86261904Y-185833009D02*
X87214285Y-185833009D01*
X86071428Y-186404438D02*
X86738094Y-184404438D01*
X86738094Y-184404438D02*
X87404761Y-186404438D01*
X87785714Y-184404438D02*
X88928571Y-184404438D01*
X88357142Y-186404438D02*
X88357142Y-184404438D01*
D11*
X169214285Y-125656026D02*
X169071428Y-125798884D01*
X169071428Y-125798884D02*
X168642856Y-125941741D01*
X168642856Y-125941741D02*
X168357142Y-125941741D01*
X168357142Y-125941741D02*
X167928571Y-125798884D01*
X167928571Y-125798884D02*
X167642856Y-125513169D01*
X167642856Y-125513169D02*
X167499999Y-125227455D01*
X167499999Y-125227455D02*
X167357142Y-124656026D01*
X167357142Y-124656026D02*
X167357142Y-124227455D01*
X167357142Y-124227455D02*
X167499999Y-123656026D01*
X167499999Y-123656026D02*
X167642856Y-123370312D01*
X167642856Y-123370312D02*
X167928571Y-123084598D01*
X167928571Y-123084598D02*
X168357142Y-122941741D01*
X168357142Y-122941741D02*
X168642856Y-122941741D01*
X168642856Y-122941741D02*
X169071428Y-123084598D01*
X169071428Y-123084598D02*
X169214285Y-123227455D01*
X170928571Y-125941741D02*
X170642856Y-125798884D01*
X170642856Y-125798884D02*
X170499999Y-125656026D01*
X170499999Y-125656026D02*
X170357142Y-125370312D01*
X170357142Y-125370312D02*
X170357142Y-124513169D01*
X170357142Y-124513169D02*
X170499999Y-124227455D01*
X170499999Y-124227455D02*
X170642856Y-124084598D01*
X170642856Y-124084598D02*
X170928571Y-123941741D01*
X170928571Y-123941741D02*
X171357142Y-123941741D01*
X171357142Y-123941741D02*
X171642856Y-124084598D01*
X171642856Y-124084598D02*
X171785714Y-124227455D01*
X171785714Y-124227455D02*
X171928571Y-124513169D01*
X171928571Y-124513169D02*
X171928571Y-125370312D01*
X171928571Y-125370312D02*
X171785714Y-125656026D01*
X171785714Y-125656026D02*
X171642856Y-125798884D01*
X171642856Y-125798884D02*
X171357142Y-125941741D01*
X171357142Y-125941741D02*
X170928571Y-125941741D01*
X173214285Y-125941741D02*
X173214285Y-123941741D01*
X173214285Y-124227455D02*
X173357142Y-124084598D01*
X173357142Y-124084598D02*
X173642857Y-123941741D01*
X173642857Y-123941741D02*
X174071428Y-123941741D01*
X174071428Y-123941741D02*
X174357142Y-124084598D01*
X174357142Y-124084598D02*
X174500000Y-124370312D01*
X174500000Y-124370312D02*
X174500000Y-125941741D01*
X174500000Y-124370312D02*
X174642857Y-124084598D01*
X174642857Y-124084598D02*
X174928571Y-123941741D01*
X174928571Y-123941741D02*
X175357142Y-123941741D01*
X175357142Y-123941741D02*
X175642857Y-124084598D01*
X175642857Y-124084598D02*
X175785714Y-124370312D01*
X175785714Y-124370312D02*
X175785714Y-125941741D01*
X177214285Y-125941741D02*
X177214285Y-123941741D01*
X177214285Y-124227455D02*
X177357142Y-124084598D01*
X177357142Y-124084598D02*
X177642857Y-123941741D01*
X177642857Y-123941741D02*
X178071428Y-123941741D01*
X178071428Y-123941741D02*
X178357142Y-124084598D01*
X178357142Y-124084598D02*
X178500000Y-124370312D01*
X178500000Y-124370312D02*
X178500000Y-125941741D01*
X178500000Y-124370312D02*
X178642857Y-124084598D01*
X178642857Y-124084598D02*
X178928571Y-123941741D01*
X178928571Y-123941741D02*
X179357142Y-123941741D01*
X179357142Y-123941741D02*
X179642857Y-124084598D01*
X179642857Y-124084598D02*
X179785714Y-124370312D01*
X179785714Y-124370312D02*
X179785714Y-125941741D01*
X182500000Y-123941741D02*
X182500000Y-125941741D01*
X181214285Y-123941741D02*
X181214285Y-125513169D01*
X181214285Y-125513169D02*
X181357142Y-125798884D01*
X181357142Y-125798884D02*
X181642857Y-125941741D01*
X181642857Y-125941741D02*
X182071428Y-125941741D01*
X182071428Y-125941741D02*
X182357142Y-125798884D01*
X182357142Y-125798884D02*
X182500000Y-125656026D01*
X183928571Y-123941741D02*
X183928571Y-125941741D01*
X183928571Y-124227455D02*
X184071428Y-124084598D01*
X184071428Y-124084598D02*
X184357143Y-123941741D01*
X184357143Y-123941741D02*
X184785714Y-123941741D01*
X184785714Y-123941741D02*
X185071428Y-124084598D01*
X185071428Y-124084598D02*
X185214286Y-124370312D01*
X185214286Y-124370312D02*
X185214286Y-125941741D01*
X186642857Y-125941741D02*
X186642857Y-123941741D01*
X186642857Y-122941741D02*
X186500000Y-123084598D01*
X186500000Y-123084598D02*
X186642857Y-123227455D01*
X186642857Y-123227455D02*
X186785714Y-123084598D01*
X186785714Y-123084598D02*
X186642857Y-122941741D01*
X186642857Y-122941741D02*
X186642857Y-123227455D01*
X189357143Y-125798884D02*
X189071428Y-125941741D01*
X189071428Y-125941741D02*
X188500000Y-125941741D01*
X188500000Y-125941741D02*
X188214285Y-125798884D01*
X188214285Y-125798884D02*
X188071428Y-125656026D01*
X188071428Y-125656026D02*
X187928571Y-125370312D01*
X187928571Y-125370312D02*
X187928571Y-124513169D01*
X187928571Y-124513169D02*
X188071428Y-124227455D01*
X188071428Y-124227455D02*
X188214285Y-124084598D01*
X188214285Y-124084598D02*
X188500000Y-123941741D01*
X188500000Y-123941741D02*
X189071428Y-123941741D01*
X189071428Y-123941741D02*
X189357143Y-124084598D01*
X191928572Y-125941741D02*
X191928572Y-124370312D01*
X191928572Y-124370312D02*
X191785714Y-124084598D01*
X191785714Y-124084598D02*
X191500000Y-123941741D01*
X191500000Y-123941741D02*
X190928572Y-123941741D01*
X190928572Y-123941741D02*
X190642857Y-124084598D01*
X191928572Y-125798884D02*
X191642857Y-125941741D01*
X191642857Y-125941741D02*
X190928572Y-125941741D01*
X190928572Y-125941741D02*
X190642857Y-125798884D01*
X190642857Y-125798884D02*
X190500000Y-125513169D01*
X190500000Y-125513169D02*
X190500000Y-125227455D01*
X190500000Y-125227455D02*
X190642857Y-124941741D01*
X190642857Y-124941741D02*
X190928572Y-124798884D01*
X190928572Y-124798884D02*
X191642857Y-124798884D01*
X191642857Y-124798884D02*
X191928572Y-124656026D01*
X192928572Y-123941741D02*
X194071429Y-123941741D01*
X193357143Y-122941741D02*
X193357143Y-125513169D01*
X193357143Y-125513169D02*
X193500000Y-125798884D01*
X193500000Y-125798884D02*
X193785715Y-125941741D01*
X193785715Y-125941741D02*
X194071429Y-125941741D01*
X195071429Y-125941741D02*
X195071429Y-123941741D01*
X195071429Y-122941741D02*
X194928572Y-123084598D01*
X194928572Y-123084598D02*
X195071429Y-123227455D01*
X195071429Y-123227455D02*
X195214286Y-123084598D01*
X195214286Y-123084598D02*
X195071429Y-122941741D01*
X195071429Y-122941741D02*
X195071429Y-123227455D01*
X196928572Y-125941741D02*
X196642857Y-125798884D01*
X196642857Y-125798884D02*
X196500000Y-125656026D01*
X196500000Y-125656026D02*
X196357143Y-125370312D01*
X196357143Y-125370312D02*
X196357143Y-124513169D01*
X196357143Y-124513169D02*
X196500000Y-124227455D01*
X196500000Y-124227455D02*
X196642857Y-124084598D01*
X196642857Y-124084598D02*
X196928572Y-123941741D01*
X196928572Y-123941741D02*
X197357143Y-123941741D01*
X197357143Y-123941741D02*
X197642857Y-124084598D01*
X197642857Y-124084598D02*
X197785715Y-124227455D01*
X197785715Y-124227455D02*
X197928572Y-124513169D01*
X197928572Y-124513169D02*
X197928572Y-125370312D01*
X197928572Y-125370312D02*
X197785715Y-125656026D01*
X197785715Y-125656026D02*
X197642857Y-125798884D01*
X197642857Y-125798884D02*
X197357143Y-125941741D01*
X197357143Y-125941741D02*
X196928572Y-125941741D01*
X199214286Y-123941741D02*
X199214286Y-125941741D01*
X199214286Y-124227455D02*
X199357143Y-124084598D01*
X199357143Y-124084598D02*
X199642858Y-123941741D01*
X199642858Y-123941741D02*
X200071429Y-123941741D01*
X200071429Y-123941741D02*
X200357143Y-124084598D01*
X200357143Y-124084598D02*
X200500001Y-124370312D01*
X200500001Y-124370312D02*
X200500001Y-125941741D01*
X179214285Y-129200144D02*
X179642857Y-129343001D01*
X179642857Y-129343001D02*
X179785714Y-129485858D01*
X179785714Y-129485858D02*
X179928571Y-129771573D01*
X179928571Y-129771573D02*
X179928571Y-130200144D01*
X179928571Y-130200144D02*
X179785714Y-130485858D01*
X179785714Y-130485858D02*
X179642857Y-130628716D01*
X179642857Y-130628716D02*
X179357142Y-130771573D01*
X179357142Y-130771573D02*
X178214285Y-130771573D01*
X178214285Y-130771573D02*
X178214285Y-127771573D01*
X178214285Y-127771573D02*
X179214285Y-127771573D01*
X179214285Y-127771573D02*
X179500000Y-127914430D01*
X179500000Y-127914430D02*
X179642857Y-128057287D01*
X179642857Y-128057287D02*
X179785714Y-128343001D01*
X179785714Y-128343001D02*
X179785714Y-128628716D01*
X179785714Y-128628716D02*
X179642857Y-128914430D01*
X179642857Y-128914430D02*
X179500000Y-129057287D01*
X179500000Y-129057287D02*
X179214285Y-129200144D01*
X179214285Y-129200144D02*
X178214285Y-129200144D01*
X181642857Y-130771573D02*
X181357142Y-130628716D01*
X181357142Y-130628716D02*
X181214285Y-130485858D01*
X181214285Y-130485858D02*
X181071428Y-130200144D01*
X181071428Y-130200144D02*
X181071428Y-129343001D01*
X181071428Y-129343001D02*
X181214285Y-129057287D01*
X181214285Y-129057287D02*
X181357142Y-128914430D01*
X181357142Y-128914430D02*
X181642857Y-128771573D01*
X181642857Y-128771573D02*
X182071428Y-128771573D01*
X182071428Y-128771573D02*
X182357142Y-128914430D01*
X182357142Y-128914430D02*
X182500000Y-129057287D01*
X182500000Y-129057287D02*
X182642857Y-129343001D01*
X182642857Y-129343001D02*
X182642857Y-130200144D01*
X182642857Y-130200144D02*
X182500000Y-130485858D01*
X182500000Y-130485858D02*
X182357142Y-130628716D01*
X182357142Y-130628716D02*
X182071428Y-130771573D01*
X182071428Y-130771573D02*
X181642857Y-130771573D01*
X185214286Y-130771573D02*
X185214286Y-129200144D01*
X185214286Y-129200144D02*
X185071428Y-128914430D01*
X185071428Y-128914430D02*
X184785714Y-128771573D01*
X184785714Y-128771573D02*
X184214286Y-128771573D01*
X184214286Y-128771573D02*
X183928571Y-128914430D01*
X185214286Y-130628716D02*
X184928571Y-130771573D01*
X184928571Y-130771573D02*
X184214286Y-130771573D01*
X184214286Y-130771573D02*
X183928571Y-130628716D01*
X183928571Y-130628716D02*
X183785714Y-130343001D01*
X183785714Y-130343001D02*
X183785714Y-130057287D01*
X183785714Y-130057287D02*
X183928571Y-129771573D01*
X183928571Y-129771573D02*
X184214286Y-129628716D01*
X184214286Y-129628716D02*
X184928571Y-129628716D01*
X184928571Y-129628716D02*
X185214286Y-129485858D01*
X186642857Y-130771573D02*
X186642857Y-128771573D01*
X186642857Y-129343001D02*
X186785714Y-129057287D01*
X186785714Y-129057287D02*
X186928572Y-128914430D01*
X186928572Y-128914430D02*
X187214286Y-128771573D01*
X187214286Y-128771573D02*
X187500000Y-128771573D01*
X189785715Y-130771573D02*
X189785715Y-127771573D01*
X189785715Y-130628716D02*
X189500000Y-130771573D01*
X189500000Y-130771573D02*
X188928572Y-130771573D01*
X188928572Y-130771573D02*
X188642857Y-130628716D01*
X188642857Y-130628716D02*
X188500000Y-130485858D01*
X188500000Y-130485858D02*
X188357143Y-130200144D01*
X188357143Y-130200144D02*
X188357143Y-129343001D01*
X188357143Y-129343001D02*
X188500000Y-129057287D01*
X188500000Y-129057287D02*
X188642857Y-128914430D01*
X188642857Y-128914430D02*
X188928572Y-128771573D01*
X188928572Y-128771573D02*
X189500000Y-128771573D01*
X189500000Y-128771573D02*
X189785715Y-128914430D01*
D12*
X214904438Y-149488095D02*
X214904438Y-150630952D01*
X214904438Y-150059524D02*
X212904438Y-150059524D01*
X212904438Y-150059524D02*
X213190152Y-150250000D01*
X213190152Y-150250000D02*
X213380628Y-150440476D01*
X213380628Y-150440476D02*
X213475866Y-150630952D01*
X212904438Y-147678571D02*
X212904438Y-148630952D01*
X212904438Y-148630952D02*
X213856819Y-148726190D01*
X213856819Y-148726190D02*
X213761580Y-148630952D01*
X213761580Y-148630952D02*
X213666342Y-148440476D01*
X213666342Y-148440476D02*
X213666342Y-147964285D01*
X213666342Y-147964285D02*
X213761580Y-147773809D01*
X213761580Y-147773809D02*
X213856819Y-147678571D01*
X213856819Y-147678571D02*
X214047295Y-147583333D01*
X214047295Y-147583333D02*
X214523485Y-147583333D01*
X214523485Y-147583333D02*
X214713961Y-147678571D01*
X214713961Y-147678571D02*
X214809200Y-147773809D01*
X214809200Y-147773809D02*
X214904438Y-147964285D01*
X214904438Y-147964285D02*
X214904438Y-148440476D01*
X214904438Y-148440476D02*
X214809200Y-148630952D01*
X214809200Y-148630952D02*
X214713961Y-148726190D01*
X212904438Y-147011904D02*
X214904438Y-146345238D01*
X214904438Y-146345238D02*
X212904438Y-145678571D01*
X101880952Y-66905085D02*
X101785714Y-67000323D01*
X101785714Y-67000323D02*
X101595238Y-67095561D01*
X101595238Y-67095561D02*
X101119047Y-67095561D01*
X101119047Y-67095561D02*
X100928571Y-67000323D01*
X100928571Y-67000323D02*
X100833333Y-66905085D01*
X100833333Y-66905085D02*
X100738095Y-66714609D01*
X100738095Y-66714609D02*
X100738095Y-66524133D01*
X100738095Y-66524133D02*
X100833333Y-66238419D01*
X100833333Y-66238419D02*
X101976190Y-65095561D01*
X101976190Y-65095561D02*
X100738095Y-65095561D01*
X99023809Y-66428895D02*
X99023809Y-65095561D01*
X99500000Y-67190800D02*
X99976190Y-65762228D01*
X99976190Y-65762228D02*
X98738095Y-65762228D01*
X98261904Y-67095561D02*
X97595238Y-65095561D01*
X97595238Y-65095561D02*
X96928571Y-67095561D01*
X93435714Y-191309200D02*
X93721428Y-191404438D01*
X93721428Y-191404438D02*
X94197619Y-191404438D01*
X94197619Y-191404438D02*
X94388095Y-191309200D01*
X94388095Y-191309200D02*
X94483333Y-191213961D01*
X94483333Y-191213961D02*
X94578571Y-191023485D01*
X94578571Y-191023485D02*
X94578571Y-190833009D01*
X94578571Y-190833009D02*
X94483333Y-190642533D01*
X94483333Y-190642533D02*
X94388095Y-190547295D01*
X94388095Y-190547295D02*
X94197619Y-190452057D01*
X94197619Y-190452057D02*
X93816666Y-190356819D01*
X93816666Y-190356819D02*
X93626190Y-190261580D01*
X93626190Y-190261580D02*
X93530952Y-190166342D01*
X93530952Y-190166342D02*
X93435714Y-189975866D01*
X93435714Y-189975866D02*
X93435714Y-189785390D01*
X93435714Y-189785390D02*
X93530952Y-189594914D01*
X93530952Y-189594914D02*
X93626190Y-189499676D01*
X93626190Y-189499676D02*
X93816666Y-189404438D01*
X93816666Y-189404438D02*
X94292857Y-189404438D01*
X94292857Y-189404438D02*
X94578571Y-189499676D01*
X95245238Y-189404438D02*
X95721428Y-191404438D01*
X95721428Y-191404438D02*
X96102381Y-189975866D01*
X96102381Y-189975866D02*
X96483333Y-191404438D01*
X96483333Y-191404438D02*
X96959524Y-189404438D01*
X177523809Y-189856819D02*
X177809523Y-189952057D01*
X177809523Y-189952057D02*
X177904761Y-190047295D01*
X177904761Y-190047295D02*
X177999999Y-190237771D01*
X177999999Y-190237771D02*
X177999999Y-190523485D01*
X177999999Y-190523485D02*
X177904761Y-190713961D01*
X177904761Y-190713961D02*
X177809523Y-190809200D01*
X177809523Y-190809200D02*
X177619047Y-190904438D01*
X177619047Y-190904438D02*
X176857142Y-190904438D01*
X176857142Y-190904438D02*
X176857142Y-188904438D01*
X176857142Y-188904438D02*
X177523809Y-188904438D01*
X177523809Y-188904438D02*
X177714285Y-188999676D01*
X177714285Y-188999676D02*
X177809523Y-189094914D01*
X177809523Y-189094914D02*
X177904761Y-189285390D01*
X177904761Y-189285390D02*
X177904761Y-189475866D01*
X177904761Y-189475866D02*
X177809523Y-189666342D01*
X177809523Y-189666342D02*
X177714285Y-189761580D01*
X177714285Y-189761580D02*
X177523809Y-189856819D01*
X177523809Y-189856819D02*
X176857142Y-189856819D01*
X178761904Y-190333009D02*
X179714285Y-190333009D01*
X178571428Y-190904438D02*
X179238094Y-188904438D01*
X179238094Y-188904438D02*
X179904761Y-190904438D01*
X180285714Y-188904438D02*
X181428571Y-188904438D01*
X180857142Y-190904438D02*
X180857142Y-188904438D01*
X217904438Y-96238095D02*
X217904438Y-97380952D01*
X217904438Y-96809524D02*
X215904438Y-96809524D01*
X215904438Y-96809524D02*
X216190152Y-97000000D01*
X216190152Y-97000000D02*
X216380628Y-97190476D01*
X216380628Y-97190476D02*
X216475866Y-97380952D01*
X216094914Y-95476190D02*
X215999676Y-95380952D01*
X215999676Y-95380952D02*
X215904438Y-95190476D01*
X215904438Y-95190476D02*
X215904438Y-94714285D01*
X215904438Y-94714285D02*
X215999676Y-94523809D01*
X215999676Y-94523809D02*
X216094914Y-94428571D01*
X216094914Y-94428571D02*
X216285390Y-94333333D01*
X216285390Y-94333333D02*
X216475866Y-94333333D01*
X216475866Y-94333333D02*
X216761580Y-94428571D01*
X216761580Y-94428571D02*
X217904438Y-95571428D01*
X217904438Y-95571428D02*
X217904438Y-94333333D01*
X215904438Y-93761904D02*
X217904438Y-93095238D01*
X217904438Y-93095238D02*
X215904438Y-92428571D01*
X75143180Y-162023809D02*
X75047942Y-162309523D01*
X75047942Y-162309523D02*
X74952704Y-162404761D01*
X74952704Y-162404761D02*
X74762228Y-162499999D01*
X74762228Y-162499999D02*
X74476514Y-162499999D01*
X74476514Y-162499999D02*
X74286038Y-162404761D01*
X74286038Y-162404761D02*
X74190800Y-162309523D01*
X74190800Y-162309523D02*
X74095561Y-162119047D01*
X74095561Y-162119047D02*
X74095561Y-161357142D01*
X74095561Y-161357142D02*
X76095561Y-161357142D01*
X76095561Y-161357142D02*
X76095561Y-162023809D01*
X76095561Y-162023809D02*
X76000323Y-162214285D01*
X76000323Y-162214285D02*
X75905085Y-162309523D01*
X75905085Y-162309523D02*
X75714609Y-162404761D01*
X75714609Y-162404761D02*
X75524133Y-162404761D01*
X75524133Y-162404761D02*
X75333657Y-162309523D01*
X75333657Y-162309523D02*
X75238419Y-162214285D01*
X75238419Y-162214285D02*
X75143180Y-162023809D01*
X75143180Y-162023809D02*
X75143180Y-161357142D01*
X74666990Y-163261904D02*
X74666990Y-164214285D01*
X74095561Y-163071428D02*
X76095561Y-163738094D01*
X76095561Y-163738094D02*
X74095561Y-164404761D01*
X76095561Y-164785714D02*
X76095561Y-165928571D01*
X74095561Y-165357142D02*
X76095561Y-165357142D01*
X73905085Y-95619047D02*
X74000323Y-95714285D01*
X74000323Y-95714285D02*
X74095561Y-95904761D01*
X74095561Y-95904761D02*
X74095561Y-96380952D01*
X74095561Y-96380952D02*
X74000323Y-96571428D01*
X74000323Y-96571428D02*
X73905085Y-96666666D01*
X73905085Y-96666666D02*
X73714609Y-96761904D01*
X73714609Y-96761904D02*
X73524133Y-96761904D01*
X73524133Y-96761904D02*
X73238419Y-96666666D01*
X73238419Y-96666666D02*
X72095561Y-95523809D01*
X72095561Y-95523809D02*
X72095561Y-96761904D01*
X73428895Y-98476190D02*
X72095561Y-98476190D01*
X74190800Y-97999999D02*
X72762228Y-97523809D01*
X72762228Y-97523809D02*
X72762228Y-98761904D01*
X74095561Y-99238095D02*
X72095561Y-99904761D01*
X72095561Y-99904761D02*
X74095561Y-100571428D01*
D13*
X176238095Y-85304819D02*
X176238095Y-84304819D01*
X176238095Y-84781009D02*
X176809523Y-84781009D01*
X176809523Y-85304819D02*
X176809523Y-84304819D01*
X177333333Y-85304819D02*
X177523809Y-85304819D01*
X177523809Y-85304819D02*
X177619047Y-85257200D01*
X177619047Y-85257200D02*
X177666666Y-85209580D01*
X177666666Y-85209580D02*
X177761904Y-85066723D01*
X177761904Y-85066723D02*
X177809523Y-84876247D01*
X177809523Y-84876247D02*
X177809523Y-84495295D01*
X177809523Y-84495295D02*
X177761904Y-84400057D01*
X177761904Y-84400057D02*
X177714285Y-84352438D01*
X177714285Y-84352438D02*
X177619047Y-84304819D01*
X177619047Y-84304819D02*
X177428571Y-84304819D01*
X177428571Y-84304819D02*
X177333333Y-84352438D01*
X177333333Y-84352438D02*
X177285714Y-84400057D01*
X177285714Y-84400057D02*
X177238095Y-84495295D01*
X177238095Y-84495295D02*
X177238095Y-84733390D01*
X177238095Y-84733390D02*
X177285714Y-84828628D01*
X177285714Y-84828628D02*
X177333333Y-84876247D01*
X177333333Y-84876247D02*
X177428571Y-84923866D01*
X177428571Y-84923866D02*
X177619047Y-84923866D01*
X177619047Y-84923866D02*
X177714285Y-84876247D01*
X177714285Y-84876247D02*
X177761904Y-84828628D01*
X177761904Y-84828628D02*
X177809523Y-84733390D01*
X165895832Y-71884819D02*
X165562499Y-71408628D01*
X165324404Y-71884819D02*
X165324404Y-70884819D01*
X165324404Y-70884819D02*
X165705356Y-70884819D01*
X165705356Y-70884819D02*
X165800594Y-70932438D01*
X165800594Y-70932438D02*
X165848213Y-70980057D01*
X165848213Y-70980057D02*
X165895832Y-71075295D01*
X165895832Y-71075295D02*
X165895832Y-71218152D01*
X165895832Y-71218152D02*
X165848213Y-71313390D01*
X165848213Y-71313390D02*
X165800594Y-71361009D01*
X165800594Y-71361009D02*
X165705356Y-71408628D01*
X165705356Y-71408628D02*
X165324404Y-71408628D01*
X166752975Y-71218152D02*
X166752975Y-71884819D01*
X166514880Y-70837200D02*
X166276785Y-71551485D01*
X166276785Y-71551485D02*
X166895832Y-71551485D01*
X161345269Y-72454819D02*
X161345269Y-71454819D01*
X161345269Y-71454819D02*
X161583364Y-71454819D01*
X161583364Y-71454819D02*
X161726221Y-71502438D01*
X161726221Y-71502438D02*
X161821459Y-71597676D01*
X161821459Y-71597676D02*
X161869078Y-71692914D01*
X161869078Y-71692914D02*
X161916697Y-71883390D01*
X161916697Y-71883390D02*
X161916697Y-72026247D01*
X161916697Y-72026247D02*
X161869078Y-72216723D01*
X161869078Y-72216723D02*
X161821459Y-72311961D01*
X161821459Y-72311961D02*
X161726221Y-72407200D01*
X161726221Y-72407200D02*
X161583364Y-72454819D01*
X161583364Y-72454819D02*
X161345269Y-72454819D01*
X162773840Y-71788152D02*
X162773840Y-72454819D01*
X162535745Y-71407200D02*
X162297650Y-72121485D01*
X162297650Y-72121485D02*
X162916697Y-72121485D01*
X163880952Y-73954819D02*
X163309524Y-73954819D01*
X163595238Y-73954819D02*
X163595238Y-72954819D01*
X163595238Y-72954819D02*
X163500000Y-73097676D01*
X163500000Y-73097676D02*
X163404762Y-73192914D01*
X163404762Y-73192914D02*
X163309524Y-73240533D01*
X164785714Y-72954819D02*
X164309524Y-72954819D01*
X164309524Y-72954819D02*
X164261905Y-73431009D01*
X164261905Y-73431009D02*
X164309524Y-73383390D01*
X164309524Y-73383390D02*
X164404762Y-73335771D01*
X164404762Y-73335771D02*
X164642857Y-73335771D01*
X164642857Y-73335771D02*
X164738095Y-73383390D01*
X164738095Y-73383390D02*
X164785714Y-73431009D01*
X164785714Y-73431009D02*
X164833333Y-73526247D01*
X164833333Y-73526247D02*
X164833333Y-73764342D01*
X164833333Y-73764342D02*
X164785714Y-73859580D01*
X164785714Y-73859580D02*
X164738095Y-73907200D01*
X164738095Y-73907200D02*
X164642857Y-73954819D01*
X164642857Y-73954819D02*
X164404762Y-73954819D01*
X164404762Y-73954819D02*
X164309524Y-73907200D01*
X164309524Y-73907200D02*
X164261905Y-73859580D01*
X165119048Y-72954819D02*
X165452381Y-73954819D01*
X165452381Y-73954819D02*
X165785714Y-72954819D01*
D14*
X68146667Y-57304318D02*
X68146667Y-58211461D01*
X68146667Y-58211461D02*
X68086190Y-58392889D01*
X68086190Y-58392889D02*
X67965238Y-58513842D01*
X67965238Y-58513842D02*
X67783809Y-58574318D01*
X67783809Y-58574318D02*
X67662857Y-58574318D01*
X69295714Y-57304318D02*
X69053809Y-57304318D01*
X69053809Y-57304318D02*
X68932857Y-57364794D01*
X68932857Y-57364794D02*
X68872381Y-57425270D01*
X68872381Y-57425270D02*
X68751428Y-57606699D01*
X68751428Y-57606699D02*
X68690952Y-57848603D01*
X68690952Y-57848603D02*
X68690952Y-58332413D01*
X68690952Y-58332413D02*
X68751428Y-58453365D01*
X68751428Y-58453365D02*
X68811905Y-58513842D01*
X68811905Y-58513842D02*
X68932857Y-58574318D01*
X68932857Y-58574318D02*
X69174762Y-58574318D01*
X69174762Y-58574318D02*
X69295714Y-58513842D01*
X69295714Y-58513842D02*
X69356190Y-58453365D01*
X69356190Y-58453365D02*
X69416667Y-58332413D01*
X69416667Y-58332413D02*
X69416667Y-58030032D01*
X69416667Y-58030032D02*
X69356190Y-57909080D01*
X69356190Y-57909080D02*
X69295714Y-57848603D01*
X69295714Y-57848603D02*
X69174762Y-57788127D01*
X69174762Y-57788127D02*
X68932857Y-57788127D01*
X68932857Y-57788127D02*
X68811905Y-57848603D01*
X68811905Y-57848603D02*
X68751428Y-57909080D01*
X68751428Y-57909080D02*
X68690952Y-58030032D01*
X168596905Y-200892318D02*
X168596905Y-201799461D01*
X168596905Y-201799461D02*
X168536428Y-201980889D01*
X168536428Y-201980889D02*
X168415476Y-202101842D01*
X168415476Y-202101842D02*
X168234047Y-202162318D01*
X168234047Y-202162318D02*
X168113095Y-202162318D01*
X169141190Y-201013270D02*
X169201666Y-200952794D01*
X169201666Y-200952794D02*
X169322619Y-200892318D01*
X169322619Y-200892318D02*
X169625000Y-200892318D01*
X169625000Y-200892318D02*
X169745952Y-200952794D01*
X169745952Y-200952794D02*
X169806428Y-201013270D01*
X169806428Y-201013270D02*
X169866905Y-201134222D01*
X169866905Y-201134222D02*
X169866905Y-201255175D01*
X169866905Y-201255175D02*
X169806428Y-201436603D01*
X169806428Y-201436603D02*
X169080714Y-202162318D01*
X169080714Y-202162318D02*
X169866905Y-202162318D01*
X170955476Y-201315651D02*
X170955476Y-202162318D01*
X170653095Y-200831842D02*
X170350714Y-201738984D01*
X170350714Y-201738984D02*
X171136905Y-201738984D01*
D13*
X149238095Y-130304819D02*
X149238095Y-129304819D01*
X149238095Y-129781009D02*
X149809523Y-129781009D01*
X149809523Y-130304819D02*
X149809523Y-129304819D01*
X150761904Y-129304819D02*
X150285714Y-129304819D01*
X150285714Y-129304819D02*
X150238095Y-129781009D01*
X150238095Y-129781009D02*
X150285714Y-129733390D01*
X150285714Y-129733390D02*
X150380952Y-129685771D01*
X150380952Y-129685771D02*
X150619047Y-129685771D01*
X150619047Y-129685771D02*
X150714285Y-129733390D01*
X150714285Y-129733390D02*
X150761904Y-129781009D01*
X150761904Y-129781009D02*
X150809523Y-129876247D01*
X150809523Y-129876247D02*
X150809523Y-130114342D01*
X150809523Y-130114342D02*
X150761904Y-130209580D01*
X150761904Y-130209580D02*
X150714285Y-130257200D01*
X150714285Y-130257200D02*
X150619047Y-130304819D01*
X150619047Y-130304819D02*
X150380952Y-130304819D01*
X150380952Y-130304819D02*
X150285714Y-130257200D01*
X150285714Y-130257200D02*
X150238095Y-130209580D01*
X82238095Y-71304819D02*
X82238095Y-70304819D01*
X82238095Y-70781009D02*
X82809523Y-70781009D01*
X82809523Y-71304819D02*
X82809523Y-70304819D01*
X83714285Y-70304819D02*
X83523809Y-70304819D01*
X83523809Y-70304819D02*
X83428571Y-70352438D01*
X83428571Y-70352438D02*
X83380952Y-70400057D01*
X83380952Y-70400057D02*
X83285714Y-70542914D01*
X83285714Y-70542914D02*
X83238095Y-70733390D01*
X83238095Y-70733390D02*
X83238095Y-71114342D01*
X83238095Y-71114342D02*
X83285714Y-71209580D01*
X83285714Y-71209580D02*
X83333333Y-71257200D01*
X83333333Y-71257200D02*
X83428571Y-71304819D01*
X83428571Y-71304819D02*
X83619047Y-71304819D01*
X83619047Y-71304819D02*
X83714285Y-71257200D01*
X83714285Y-71257200D02*
X83761904Y-71209580D01*
X83761904Y-71209580D02*
X83809523Y-71114342D01*
X83809523Y-71114342D02*
X83809523Y-70876247D01*
X83809523Y-70876247D02*
X83761904Y-70781009D01*
X83761904Y-70781009D02*
X83714285Y-70733390D01*
X83714285Y-70733390D02*
X83619047Y-70685771D01*
X83619047Y-70685771D02*
X83428571Y-70685771D01*
X83428571Y-70685771D02*
X83333333Y-70733390D01*
X83333333Y-70733390D02*
X83285714Y-70781009D01*
X83285714Y-70781009D02*
X83238095Y-70876247D01*
D14*
X129581905Y-57304318D02*
X129581905Y-58211461D01*
X129581905Y-58211461D02*
X129521428Y-58392889D01*
X129521428Y-58392889D02*
X129400476Y-58513842D01*
X129400476Y-58513842D02*
X129219047Y-58574318D01*
X129219047Y-58574318D02*
X129098095Y-58574318D01*
X130126190Y-57425270D02*
X130186666Y-57364794D01*
X130186666Y-57364794D02*
X130307619Y-57304318D01*
X130307619Y-57304318D02*
X130610000Y-57304318D01*
X130610000Y-57304318D02*
X130730952Y-57364794D01*
X130730952Y-57364794D02*
X130791428Y-57425270D01*
X130791428Y-57425270D02*
X130851905Y-57546222D01*
X130851905Y-57546222D02*
X130851905Y-57667175D01*
X130851905Y-57667175D02*
X130791428Y-57848603D01*
X130791428Y-57848603D02*
X130065714Y-58574318D01*
X130065714Y-58574318D02*
X130851905Y-58574318D01*
X131275238Y-57304318D02*
X132121905Y-57304318D01*
X132121905Y-57304318D02*
X131577619Y-58574318D01*
X170941905Y-57304318D02*
X170941905Y-58211461D01*
X170941905Y-58211461D02*
X170881428Y-58392889D01*
X170881428Y-58392889D02*
X170760476Y-58513842D01*
X170760476Y-58513842D02*
X170579047Y-58574318D01*
X170579047Y-58574318D02*
X170458095Y-58574318D01*
X172211905Y-58574318D02*
X171486190Y-58574318D01*
X171849047Y-58574318D02*
X171849047Y-57304318D01*
X171849047Y-57304318D02*
X171728095Y-57485746D01*
X171728095Y-57485746D02*
X171607143Y-57606699D01*
X171607143Y-57606699D02*
X171486190Y-57667175D01*
X172635238Y-57304318D02*
X173421429Y-57304318D01*
X173421429Y-57304318D02*
X172998095Y-57788127D01*
X172998095Y-57788127D02*
X173179524Y-57788127D01*
X173179524Y-57788127D02*
X173300476Y-57848603D01*
X173300476Y-57848603D02*
X173360952Y-57909080D01*
X173360952Y-57909080D02*
X173421429Y-58030032D01*
X173421429Y-58030032D02*
X173421429Y-58332413D01*
X173421429Y-58332413D02*
X173360952Y-58453365D01*
X173360952Y-58453365D02*
X173300476Y-58513842D01*
X173300476Y-58513842D02*
X173179524Y-58574318D01*
X173179524Y-58574318D02*
X172816667Y-58574318D01*
X172816667Y-58574318D02*
X172695714Y-58513842D01*
X172695714Y-58513842D02*
X172635238Y-58453365D01*
X94371905Y-200892318D02*
X94371905Y-201799461D01*
X94371905Y-201799461D02*
X94311428Y-201980889D01*
X94311428Y-201980889D02*
X94190476Y-202101842D01*
X94190476Y-202101842D02*
X94009047Y-202162318D01*
X94009047Y-202162318D02*
X93888095Y-202162318D01*
X95641905Y-202162318D02*
X94916190Y-202162318D01*
X95279047Y-202162318D02*
X95279047Y-200892318D01*
X95279047Y-200892318D02*
X95158095Y-201073746D01*
X95158095Y-201073746D02*
X95037143Y-201194699D01*
X95037143Y-201194699D02*
X94916190Y-201255175D01*
X96851429Y-202162318D02*
X96125714Y-202162318D01*
X96488571Y-202162318D02*
X96488571Y-200892318D01*
X96488571Y-200892318D02*
X96367619Y-201073746D01*
X96367619Y-201073746D02*
X96246667Y-201194699D01*
X96246667Y-201194699D02*
X96125714Y-201255175D01*
X224666318Y-104028094D02*
X225573461Y-104028094D01*
X225573461Y-104028094D02*
X225754889Y-104088571D01*
X225754889Y-104088571D02*
X225875842Y-104209523D01*
X225875842Y-104209523D02*
X225936318Y-104390952D01*
X225936318Y-104390952D02*
X225936318Y-104511904D01*
X225936318Y-102758094D02*
X225936318Y-103483809D01*
X225936318Y-103120952D02*
X224666318Y-103120952D01*
X224666318Y-103120952D02*
X224847746Y-103241904D01*
X224847746Y-103241904D02*
X224968699Y-103362856D01*
X224968699Y-103362856D02*
X225029175Y-103483809D01*
X225936318Y-102153332D02*
X225936318Y-101911428D01*
X225936318Y-101911428D02*
X225875842Y-101790475D01*
X225875842Y-101790475D02*
X225815365Y-101729999D01*
X225815365Y-101729999D02*
X225633937Y-101609047D01*
X225633937Y-101609047D02*
X225392032Y-101548570D01*
X225392032Y-101548570D02*
X224908222Y-101548570D01*
X224908222Y-101548570D02*
X224787270Y-101609047D01*
X224787270Y-101609047D02*
X224726794Y-101669523D01*
X224726794Y-101669523D02*
X224666318Y-101790475D01*
X224666318Y-101790475D02*
X224666318Y-102032380D01*
X224666318Y-102032380D02*
X224726794Y-102153332D01*
X224726794Y-102153332D02*
X224787270Y-102213809D01*
X224787270Y-102213809D02*
X224908222Y-102274285D01*
X224908222Y-102274285D02*
X225210603Y-102274285D01*
X225210603Y-102274285D02*
X225331556Y-102213809D01*
X225331556Y-102213809D02*
X225392032Y-102153332D01*
X225392032Y-102153332D02*
X225452508Y-102032380D01*
X225452508Y-102032380D02*
X225452508Y-101790475D01*
X225452508Y-101790475D02*
X225392032Y-101669523D01*
X225392032Y-101669523D02*
X225331556Y-101609047D01*
X225331556Y-101609047D02*
X225210603Y-101548570D01*
X63804318Y-150583332D02*
X64711461Y-150583332D01*
X64711461Y-150583332D02*
X64892889Y-150643809D01*
X64892889Y-150643809D02*
X65013842Y-150764761D01*
X65013842Y-150764761D02*
X65074318Y-150946190D01*
X65074318Y-150946190D02*
X65074318Y-151067142D01*
X65074318Y-149313332D02*
X65074318Y-150039047D01*
X65074318Y-149676190D02*
X63804318Y-149676190D01*
X63804318Y-149676190D02*
X63985746Y-149797142D01*
X63985746Y-149797142D02*
X64106699Y-149918094D01*
X64106699Y-149918094D02*
X64167175Y-150039047D01*
D13*
X82238095Y-159304819D02*
X82238095Y-158304819D01*
X82238095Y-158781009D02*
X82809523Y-158781009D01*
X82809523Y-159304819D02*
X82809523Y-158304819D01*
X83190476Y-158304819D02*
X83857142Y-158304819D01*
X83857142Y-158304819D02*
X83428571Y-159304819D01*
D14*
X148076667Y-200892318D02*
X148076667Y-201799461D01*
X148076667Y-201799461D02*
X148016190Y-201980889D01*
X148016190Y-201980889D02*
X147895238Y-202101842D01*
X147895238Y-202101842D02*
X147713809Y-202162318D01*
X147713809Y-202162318D02*
X147592857Y-202162318D01*
X149225714Y-201315651D02*
X149225714Y-202162318D01*
X148923333Y-200831842D02*
X148620952Y-201738984D01*
X148620952Y-201738984D02*
X149407143Y-201738984D01*
D13*
X82008333Y-199954819D02*
X81675000Y-199478628D01*
X81436905Y-199954819D02*
X81436905Y-198954819D01*
X81436905Y-198954819D02*
X81817857Y-198954819D01*
X81817857Y-198954819D02*
X81913095Y-199002438D01*
X81913095Y-199002438D02*
X81960714Y-199050057D01*
X81960714Y-199050057D02*
X82008333Y-199145295D01*
X82008333Y-199145295D02*
X82008333Y-199288152D01*
X82008333Y-199288152D02*
X81960714Y-199383390D01*
X81960714Y-199383390D02*
X81913095Y-199431009D01*
X81913095Y-199431009D02*
X81817857Y-199478628D01*
X81817857Y-199478628D02*
X81436905Y-199478628D01*
X82389286Y-199050057D02*
X82436905Y-199002438D01*
X82436905Y-199002438D02*
X82532143Y-198954819D01*
X82532143Y-198954819D02*
X82770238Y-198954819D01*
X82770238Y-198954819D02*
X82865476Y-199002438D01*
X82865476Y-199002438D02*
X82913095Y-199050057D01*
X82913095Y-199050057D02*
X82960714Y-199145295D01*
X82960714Y-199145295D02*
X82960714Y-199240533D01*
X82960714Y-199240533D02*
X82913095Y-199383390D01*
X82913095Y-199383390D02*
X82341667Y-199954819D01*
X82341667Y-199954819D02*
X82960714Y-199954819D01*
D14*
X64054318Y-109173332D02*
X64961461Y-109173332D01*
X64961461Y-109173332D02*
X65142889Y-109233809D01*
X65142889Y-109233809D02*
X65263842Y-109354761D01*
X65263842Y-109354761D02*
X65324318Y-109536190D01*
X65324318Y-109536190D02*
X65324318Y-109657142D01*
X64598603Y-108387142D02*
X64538127Y-108508094D01*
X64538127Y-108508094D02*
X64477651Y-108568571D01*
X64477651Y-108568571D02*
X64356699Y-108629047D01*
X64356699Y-108629047D02*
X64296222Y-108629047D01*
X64296222Y-108629047D02*
X64175270Y-108568571D01*
X64175270Y-108568571D02*
X64114794Y-108508094D01*
X64114794Y-108508094D02*
X64054318Y-108387142D01*
X64054318Y-108387142D02*
X64054318Y-108145237D01*
X64054318Y-108145237D02*
X64114794Y-108024285D01*
X64114794Y-108024285D02*
X64175270Y-107963809D01*
X64175270Y-107963809D02*
X64296222Y-107903332D01*
X64296222Y-107903332D02*
X64356699Y-107903332D01*
X64356699Y-107903332D02*
X64477651Y-107963809D01*
X64477651Y-107963809D02*
X64538127Y-108024285D01*
X64538127Y-108024285D02*
X64598603Y-108145237D01*
X64598603Y-108145237D02*
X64598603Y-108387142D01*
X64598603Y-108387142D02*
X64659080Y-108508094D01*
X64659080Y-108508094D02*
X64719556Y-108568571D01*
X64719556Y-108568571D02*
X64840508Y-108629047D01*
X64840508Y-108629047D02*
X65082413Y-108629047D01*
X65082413Y-108629047D02*
X65203365Y-108568571D01*
X65203365Y-108568571D02*
X65263842Y-108508094D01*
X65263842Y-108508094D02*
X65324318Y-108387142D01*
X65324318Y-108387142D02*
X65324318Y-108145237D01*
X65324318Y-108145237D02*
X65263842Y-108024285D01*
X65263842Y-108024285D02*
X65203365Y-107963809D01*
X65203365Y-107963809D02*
X65082413Y-107903332D01*
X65082413Y-107903332D02*
X64840508Y-107903332D01*
X64840508Y-107903332D02*
X64719556Y-107963809D01*
X64719556Y-107963809D02*
X64659080Y-108024285D01*
X64659080Y-108024285D02*
X64598603Y-108145237D01*
X63804318Y-88198333D02*
X64711461Y-88198333D01*
X64711461Y-88198333D02*
X64892889Y-88258810D01*
X64892889Y-88258810D02*
X65013842Y-88379762D01*
X65013842Y-88379762D02*
X65074318Y-88561191D01*
X65074318Y-88561191D02*
X65074318Y-88682143D01*
X63804318Y-87714524D02*
X63804318Y-86867857D01*
X63804318Y-86867857D02*
X65074318Y-87412143D01*
X224666318Y-120428094D02*
X225573461Y-120428094D01*
X225573461Y-120428094D02*
X225754889Y-120488571D01*
X225754889Y-120488571D02*
X225875842Y-120609523D01*
X225875842Y-120609523D02*
X225936318Y-120790952D01*
X225936318Y-120790952D02*
X225936318Y-120911904D01*
X224787270Y-119883809D02*
X224726794Y-119823333D01*
X224726794Y-119823333D02*
X224666318Y-119702380D01*
X224666318Y-119702380D02*
X224666318Y-119399999D01*
X224666318Y-119399999D02*
X224726794Y-119279047D01*
X224726794Y-119279047D02*
X224787270Y-119218571D01*
X224787270Y-119218571D02*
X224908222Y-119158094D01*
X224908222Y-119158094D02*
X225029175Y-119158094D01*
X225029175Y-119158094D02*
X225210603Y-119218571D01*
X225210603Y-119218571D02*
X225936318Y-119944285D01*
X225936318Y-119944285D02*
X225936318Y-119158094D01*
X224666318Y-118371904D02*
X224666318Y-118250951D01*
X224666318Y-118250951D02*
X224726794Y-118129999D01*
X224726794Y-118129999D02*
X224787270Y-118069523D01*
X224787270Y-118069523D02*
X224908222Y-118009047D01*
X224908222Y-118009047D02*
X225150127Y-117948570D01*
X225150127Y-117948570D02*
X225452508Y-117948570D01*
X225452508Y-117948570D02*
X225694413Y-118009047D01*
X225694413Y-118009047D02*
X225815365Y-118069523D01*
X225815365Y-118069523D02*
X225875842Y-118129999D01*
X225875842Y-118129999D02*
X225936318Y-118250951D01*
X225936318Y-118250951D02*
X225936318Y-118371904D01*
X225936318Y-118371904D02*
X225875842Y-118492856D01*
X225875842Y-118492856D02*
X225815365Y-118553332D01*
X225815365Y-118553332D02*
X225694413Y-118613809D01*
X225694413Y-118613809D02*
X225452508Y-118674285D01*
X225452508Y-118674285D02*
X225150127Y-118674285D01*
X225150127Y-118674285D02*
X224908222Y-118613809D01*
X224908222Y-118613809D02*
X224787270Y-118553332D01*
X224787270Y-118553332D02*
X224726794Y-118492856D01*
X224726794Y-118492856D02*
X224666318Y-118371904D01*
D13*
X63238095Y-202804819D02*
X63238095Y-201804819D01*
X63238095Y-202281009D02*
X63809523Y-202281009D01*
X63809523Y-202804819D02*
X63809523Y-201804819D01*
X64190476Y-201804819D02*
X64809523Y-201804819D01*
X64809523Y-201804819D02*
X64476190Y-202185771D01*
X64476190Y-202185771D02*
X64619047Y-202185771D01*
X64619047Y-202185771D02*
X64714285Y-202233390D01*
X64714285Y-202233390D02*
X64761904Y-202281009D01*
X64761904Y-202281009D02*
X64809523Y-202376247D01*
X64809523Y-202376247D02*
X64809523Y-202614342D01*
X64809523Y-202614342D02*
X64761904Y-202709580D01*
X64761904Y-202709580D02*
X64714285Y-202757200D01*
X64714285Y-202757200D02*
X64619047Y-202804819D01*
X64619047Y-202804819D02*
X64333333Y-202804819D01*
X64333333Y-202804819D02*
X64238095Y-202757200D01*
X64238095Y-202757200D02*
X64190476Y-202709580D01*
X108356907Y-200954819D02*
X108356907Y-199954819D01*
X108356907Y-199954819D02*
X108595002Y-199954819D01*
X108595002Y-199954819D02*
X108737859Y-200002438D01*
X108737859Y-200002438D02*
X108833097Y-200097676D01*
X108833097Y-200097676D02*
X108880716Y-200192914D01*
X108880716Y-200192914D02*
X108928335Y-200383390D01*
X108928335Y-200383390D02*
X108928335Y-200526247D01*
X108928335Y-200526247D02*
X108880716Y-200716723D01*
X108880716Y-200716723D02*
X108833097Y-200811961D01*
X108833097Y-200811961D02*
X108737859Y-200907200D01*
X108737859Y-200907200D02*
X108595002Y-200954819D01*
X108595002Y-200954819D02*
X108356907Y-200954819D01*
X109880716Y-200954819D02*
X109309288Y-200954819D01*
X109595002Y-200954819D02*
X109595002Y-199954819D01*
X109595002Y-199954819D02*
X109499764Y-200097676D01*
X109499764Y-200097676D02*
X109404526Y-200192914D01*
X109404526Y-200192914D02*
X109309288Y-200240533D01*
X108071429Y-206454819D02*
X108071429Y-205454819D01*
X108547619Y-206454819D02*
X108547619Y-205454819D01*
X108547619Y-205454819D02*
X109119047Y-206454819D01*
X109119047Y-206454819D02*
X109119047Y-205454819D01*
X109595238Y-206454819D02*
X109595238Y-205454819D01*
X109595238Y-205454819D02*
X109976190Y-205454819D01*
X109976190Y-205454819D02*
X110071428Y-205502438D01*
X110071428Y-205502438D02*
X110119047Y-205550057D01*
X110119047Y-205550057D02*
X110166666Y-205645295D01*
X110166666Y-205645295D02*
X110166666Y-205788152D01*
X110166666Y-205788152D02*
X110119047Y-205883390D01*
X110119047Y-205883390D02*
X110071428Y-205931009D01*
X110071428Y-205931009D02*
X109976190Y-205978628D01*
X109976190Y-205978628D02*
X109595238Y-205978628D01*
X110595238Y-205454819D02*
X110595238Y-206264342D01*
X110595238Y-206264342D02*
X110642857Y-206359580D01*
X110642857Y-206359580D02*
X110690476Y-206407200D01*
X110690476Y-206407200D02*
X110785714Y-206454819D01*
X110785714Y-206454819D02*
X110976190Y-206454819D01*
X110976190Y-206454819D02*
X111071428Y-206407200D01*
X111071428Y-206407200D02*
X111119047Y-206359580D01*
X111119047Y-206359580D02*
X111166666Y-206264342D01*
X111166666Y-206264342D02*
X111166666Y-205454819D01*
X111500000Y-205454819D02*
X112071428Y-205454819D01*
X111785714Y-206454819D02*
X111785714Y-205454819D01*
X207238095Y-198804819D02*
X207238095Y-197804819D01*
X207238095Y-198281009D02*
X207809523Y-198281009D01*
X207809523Y-198804819D02*
X207809523Y-197804819D01*
X208714285Y-198138152D02*
X208714285Y-198804819D01*
X208476190Y-197757200D02*
X208238095Y-198471485D01*
X208238095Y-198471485D02*
X208857142Y-198471485D01*
D14*
X220971905Y-56079818D02*
X220971905Y-56986961D01*
X220971905Y-56986961D02*
X220911428Y-57168389D01*
X220911428Y-57168389D02*
X220790476Y-57289342D01*
X220790476Y-57289342D02*
X220609047Y-57349818D01*
X220609047Y-57349818D02*
X220488095Y-57349818D01*
X222241905Y-57349818D02*
X221516190Y-57349818D01*
X221879047Y-57349818D02*
X221879047Y-56079818D01*
X221879047Y-56079818D02*
X221758095Y-56261246D01*
X221758095Y-56261246D02*
X221637143Y-56382199D01*
X221637143Y-56382199D02*
X221516190Y-56442675D01*
X222665238Y-56079818D02*
X223511905Y-56079818D01*
X223511905Y-56079818D02*
X222967619Y-57349818D01*
X205471905Y-56079818D02*
X205471905Y-56986961D01*
X205471905Y-56986961D02*
X205411428Y-57168389D01*
X205411428Y-57168389D02*
X205290476Y-57289342D01*
X205290476Y-57289342D02*
X205109047Y-57349818D01*
X205109047Y-57349818D02*
X204988095Y-57349818D01*
X206741905Y-57349818D02*
X206016190Y-57349818D01*
X206379047Y-57349818D02*
X206379047Y-56079818D01*
X206379047Y-56079818D02*
X206258095Y-56261246D01*
X206258095Y-56261246D02*
X206137143Y-56382199D01*
X206137143Y-56382199D02*
X206016190Y-56442675D01*
X207830476Y-56079818D02*
X207588571Y-56079818D01*
X207588571Y-56079818D02*
X207467619Y-56140294D01*
X207467619Y-56140294D02*
X207407143Y-56200770D01*
X207407143Y-56200770D02*
X207286190Y-56382199D01*
X207286190Y-56382199D02*
X207225714Y-56624103D01*
X207225714Y-56624103D02*
X207225714Y-57107913D01*
X207225714Y-57107913D02*
X207286190Y-57228865D01*
X207286190Y-57228865D02*
X207346667Y-57289342D01*
X207346667Y-57289342D02*
X207467619Y-57349818D01*
X207467619Y-57349818D02*
X207709524Y-57349818D01*
X207709524Y-57349818D02*
X207830476Y-57289342D01*
X207830476Y-57289342D02*
X207890952Y-57228865D01*
X207890952Y-57228865D02*
X207951429Y-57107913D01*
X207951429Y-57107913D02*
X207951429Y-56805532D01*
X207951429Y-56805532D02*
X207890952Y-56684580D01*
X207890952Y-56684580D02*
X207830476Y-56624103D01*
X207830476Y-56624103D02*
X207709524Y-56563627D01*
X207709524Y-56563627D02*
X207467619Y-56563627D01*
X207467619Y-56563627D02*
X207346667Y-56624103D01*
X207346667Y-56624103D02*
X207286190Y-56684580D01*
X207286190Y-56684580D02*
X207225714Y-56805532D01*
D13*
X223238095Y-77954819D02*
X223238095Y-76954819D01*
X223238095Y-77431009D02*
X223809523Y-77431009D01*
X223809523Y-77954819D02*
X223809523Y-76954819D01*
X224809523Y-77954819D02*
X224238095Y-77954819D01*
X224523809Y-77954819D02*
X224523809Y-76954819D01*
X224523809Y-76954819D02*
X224428571Y-77097676D01*
X224428571Y-77097676D02*
X224333333Y-77192914D01*
X224333333Y-77192914D02*
X224238095Y-77240533D01*
D14*
X222304318Y-138678094D02*
X223211461Y-138678094D01*
X223211461Y-138678094D02*
X223392889Y-138738571D01*
X223392889Y-138738571D02*
X223513842Y-138859523D01*
X223513842Y-138859523D02*
X223574318Y-139040952D01*
X223574318Y-139040952D02*
X223574318Y-139161904D01*
X223574318Y-137408094D02*
X223574318Y-138133809D01*
X223574318Y-137770952D02*
X222304318Y-137770952D01*
X222304318Y-137770952D02*
X222485746Y-137891904D01*
X222485746Y-137891904D02*
X222606699Y-138012856D01*
X222606699Y-138012856D02*
X222667175Y-138133809D01*
X222304318Y-136621904D02*
X222304318Y-136500951D01*
X222304318Y-136500951D02*
X222364794Y-136379999D01*
X222364794Y-136379999D02*
X222425270Y-136319523D01*
X222425270Y-136319523D02*
X222546222Y-136259047D01*
X222546222Y-136259047D02*
X222788127Y-136198570D01*
X222788127Y-136198570D02*
X223090508Y-136198570D01*
X223090508Y-136198570D02*
X223332413Y-136259047D01*
X223332413Y-136259047D02*
X223453365Y-136319523D01*
X223453365Y-136319523D02*
X223513842Y-136379999D01*
X223513842Y-136379999D02*
X223574318Y-136500951D01*
X223574318Y-136500951D02*
X223574318Y-136621904D01*
X223574318Y-136621904D02*
X223513842Y-136742856D01*
X223513842Y-136742856D02*
X223453365Y-136803332D01*
X223453365Y-136803332D02*
X223332413Y-136863809D01*
X223332413Y-136863809D02*
X223090508Y-136924285D01*
X223090508Y-136924285D02*
X222788127Y-136924285D01*
X222788127Y-136924285D02*
X222546222Y-136863809D01*
X222546222Y-136863809D02*
X222425270Y-136803332D01*
X222425270Y-136803332D02*
X222364794Y-136742856D01*
X222364794Y-136742856D02*
X222304318Y-136621904D01*
X124357856Y-202162318D02*
X124357856Y-200892318D01*
X124357856Y-200892318D02*
X124841666Y-200892318D01*
X124841666Y-200892318D02*
X124962618Y-200952794D01*
X124962618Y-200952794D02*
X125023095Y-201013270D01*
X125023095Y-201013270D02*
X125083571Y-201134222D01*
X125083571Y-201134222D02*
X125083571Y-201315651D01*
X125083571Y-201315651D02*
X125023095Y-201436603D01*
X125023095Y-201436603D02*
X124962618Y-201497080D01*
X124962618Y-201497080D02*
X124841666Y-201557556D01*
X124841666Y-201557556D02*
X124357856Y-201557556D01*
X125567380Y-202101842D02*
X125748809Y-202162318D01*
X125748809Y-202162318D02*
X126051190Y-202162318D01*
X126051190Y-202162318D02*
X126172142Y-202101842D01*
X126172142Y-202101842D02*
X126232618Y-202041365D01*
X126232618Y-202041365D02*
X126293095Y-201920413D01*
X126293095Y-201920413D02*
X126293095Y-201799461D01*
X126293095Y-201799461D02*
X126232618Y-201678508D01*
X126232618Y-201678508D02*
X126172142Y-201618032D01*
X126172142Y-201618032D02*
X126051190Y-201557556D01*
X126051190Y-201557556D02*
X125809285Y-201497080D01*
X125809285Y-201497080D02*
X125688333Y-201436603D01*
X125688333Y-201436603D02*
X125627856Y-201376127D01*
X125627856Y-201376127D02*
X125567380Y-201255175D01*
X125567380Y-201255175D02*
X125567380Y-201134222D01*
X125567380Y-201134222D02*
X125627856Y-201013270D01*
X125627856Y-201013270D02*
X125688333Y-200952794D01*
X125688333Y-200952794D02*
X125809285Y-200892318D01*
X125809285Y-200892318D02*
X126111666Y-200892318D01*
X126111666Y-200892318D02*
X126293095Y-200952794D01*
X127502619Y-202162318D02*
X126776904Y-202162318D01*
X127139761Y-202162318D02*
X127139761Y-200892318D01*
X127139761Y-200892318D02*
X127018809Y-201073746D01*
X127018809Y-201073746D02*
X126897857Y-201194699D01*
X126897857Y-201194699D02*
X126776904Y-201255175D01*
D13*
X120208334Y-73454819D02*
X119875001Y-72978628D01*
X119636906Y-73454819D02*
X119636906Y-72454819D01*
X119636906Y-72454819D02*
X120017858Y-72454819D01*
X120017858Y-72454819D02*
X120113096Y-72502438D01*
X120113096Y-72502438D02*
X120160715Y-72550057D01*
X120160715Y-72550057D02*
X120208334Y-72645295D01*
X120208334Y-72645295D02*
X120208334Y-72788152D01*
X120208334Y-72788152D02*
X120160715Y-72883390D01*
X120160715Y-72883390D02*
X120113096Y-72931009D01*
X120113096Y-72931009D02*
X120017858Y-72978628D01*
X120017858Y-72978628D02*
X119636906Y-72978628D01*
X120541668Y-72454819D02*
X121160715Y-72454819D01*
X121160715Y-72454819D02*
X120827382Y-72835771D01*
X120827382Y-72835771D02*
X120970239Y-72835771D01*
X120970239Y-72835771D02*
X121065477Y-72883390D01*
X121065477Y-72883390D02*
X121113096Y-72931009D01*
X121113096Y-72931009D02*
X121160715Y-73026247D01*
X121160715Y-73026247D02*
X121160715Y-73264342D01*
X121160715Y-73264342D02*
X121113096Y-73359580D01*
X121113096Y-73359580D02*
X121065477Y-73407200D01*
X121065477Y-73407200D02*
X120970239Y-73454819D01*
X120970239Y-73454819D02*
X120684525Y-73454819D01*
X120684525Y-73454819D02*
X120589287Y-73407200D01*
X120589287Y-73407200D02*
X120541668Y-73359580D01*
D14*
X223467318Y-159778094D02*
X224374461Y-159778094D01*
X224374461Y-159778094D02*
X224555889Y-159838571D01*
X224555889Y-159838571D02*
X224676842Y-159959523D01*
X224676842Y-159959523D02*
X224737318Y-160140952D01*
X224737318Y-160140952D02*
X224737318Y-160261904D01*
X224737318Y-158508094D02*
X224737318Y-159233809D01*
X224737318Y-158870952D02*
X223467318Y-158870952D01*
X223467318Y-158870952D02*
X223648746Y-158991904D01*
X223648746Y-158991904D02*
X223769699Y-159112856D01*
X223769699Y-159112856D02*
X223830175Y-159233809D01*
X223890651Y-157419523D02*
X224737318Y-157419523D01*
X223406842Y-157721904D02*
X224313984Y-158024285D01*
X224313984Y-158024285D02*
X224313984Y-157238094D01*
D13*
X57738095Y-72954819D02*
X57738095Y-71954819D01*
X57738095Y-72431009D02*
X58309523Y-72431009D01*
X58309523Y-72954819D02*
X58309523Y-71954819D01*
X58738095Y-72050057D02*
X58785714Y-72002438D01*
X58785714Y-72002438D02*
X58880952Y-71954819D01*
X58880952Y-71954819D02*
X59119047Y-71954819D01*
X59119047Y-71954819D02*
X59214285Y-72002438D01*
X59214285Y-72002438D02*
X59261904Y-72050057D01*
X59261904Y-72050057D02*
X59309523Y-72145295D01*
X59309523Y-72145295D02*
X59309523Y-72240533D01*
X59309523Y-72240533D02*
X59261904Y-72383390D01*
X59261904Y-72383390D02*
X58690476Y-72954819D01*
X58690476Y-72954819D02*
X59309523Y-72954819D01*
X207220832Y-71954819D02*
X206887499Y-71478628D01*
X206649404Y-71954819D02*
X206649404Y-70954819D01*
X206649404Y-70954819D02*
X207030356Y-70954819D01*
X207030356Y-70954819D02*
X207125594Y-71002438D01*
X207125594Y-71002438D02*
X207173213Y-71050057D01*
X207173213Y-71050057D02*
X207220832Y-71145295D01*
X207220832Y-71145295D02*
X207220832Y-71288152D01*
X207220832Y-71288152D02*
X207173213Y-71383390D01*
X207173213Y-71383390D02*
X207125594Y-71431009D01*
X207125594Y-71431009D02*
X207030356Y-71478628D01*
X207030356Y-71478628D02*
X206649404Y-71478628D01*
X208125594Y-70954819D02*
X207649404Y-70954819D01*
X207649404Y-70954819D02*
X207601785Y-71431009D01*
X207601785Y-71431009D02*
X207649404Y-71383390D01*
X207649404Y-71383390D02*
X207744642Y-71335771D01*
X207744642Y-71335771D02*
X207982737Y-71335771D01*
X207982737Y-71335771D02*
X208077975Y-71383390D01*
X208077975Y-71383390D02*
X208125594Y-71431009D01*
X208125594Y-71431009D02*
X208173213Y-71526247D01*
X208173213Y-71526247D02*
X208173213Y-71764342D01*
X208173213Y-71764342D02*
X208125594Y-71859580D01*
X208125594Y-71859580D02*
X208077975Y-71907200D01*
X208077975Y-71907200D02*
X207982737Y-71954819D01*
X207982737Y-71954819D02*
X207744642Y-71954819D01*
X207744642Y-71954819D02*
X207649404Y-71907200D01*
X207649404Y-71907200D02*
X207601785Y-71859580D01*
X149238095Y-159304819D02*
X149238095Y-158304819D01*
X149238095Y-158781009D02*
X149809523Y-158781009D01*
X149809523Y-159304819D02*
X149809523Y-158304819D01*
X150428571Y-158733390D02*
X150333333Y-158685771D01*
X150333333Y-158685771D02*
X150285714Y-158638152D01*
X150285714Y-158638152D02*
X150238095Y-158542914D01*
X150238095Y-158542914D02*
X150238095Y-158495295D01*
X150238095Y-158495295D02*
X150285714Y-158400057D01*
X150285714Y-158400057D02*
X150333333Y-158352438D01*
X150333333Y-158352438D02*
X150428571Y-158304819D01*
X150428571Y-158304819D02*
X150619047Y-158304819D01*
X150619047Y-158304819D02*
X150714285Y-158352438D01*
X150714285Y-158352438D02*
X150761904Y-158400057D01*
X150761904Y-158400057D02*
X150809523Y-158495295D01*
X150809523Y-158495295D02*
X150809523Y-158542914D01*
X150809523Y-158542914D02*
X150761904Y-158638152D01*
X150761904Y-158638152D02*
X150714285Y-158685771D01*
X150714285Y-158685771D02*
X150619047Y-158733390D01*
X150619047Y-158733390D02*
X150428571Y-158733390D01*
X150428571Y-158733390D02*
X150333333Y-158781009D01*
X150333333Y-158781009D02*
X150285714Y-158828628D01*
X150285714Y-158828628D02*
X150238095Y-158923866D01*
X150238095Y-158923866D02*
X150238095Y-159114342D01*
X150238095Y-159114342D02*
X150285714Y-159209580D01*
X150285714Y-159209580D02*
X150333333Y-159257200D01*
X150333333Y-159257200D02*
X150428571Y-159304819D01*
X150428571Y-159304819D02*
X150619047Y-159304819D01*
X150619047Y-159304819D02*
X150714285Y-159257200D01*
X150714285Y-159257200D02*
X150761904Y-159209580D01*
X150761904Y-159209580D02*
X150809523Y-159114342D01*
X150809523Y-159114342D02*
X150809523Y-158923866D01*
X150809523Y-158923866D02*
X150761904Y-158828628D01*
X150761904Y-158828628D02*
X150714285Y-158781009D01*
X150714285Y-158781009D02*
X150619047Y-158733390D01*
X77824404Y-199454818D02*
X77824404Y-198454818D01*
X77824404Y-198454818D02*
X78062499Y-198454818D01*
X78062499Y-198454818D02*
X78205356Y-198502437D01*
X78205356Y-198502437D02*
X78300594Y-198597675D01*
X78300594Y-198597675D02*
X78348213Y-198692913D01*
X78348213Y-198692913D02*
X78395832Y-198883389D01*
X78395832Y-198883389D02*
X78395832Y-199026246D01*
X78395832Y-199026246D02*
X78348213Y-199216722D01*
X78348213Y-199216722D02*
X78300594Y-199311960D01*
X78300594Y-199311960D02*
X78205356Y-199407199D01*
X78205356Y-199407199D02*
X78062499Y-199454818D01*
X78062499Y-199454818D02*
X77824404Y-199454818D01*
X78776785Y-198550056D02*
X78824404Y-198502437D01*
X78824404Y-198502437D02*
X78919642Y-198454818D01*
X78919642Y-198454818D02*
X79157737Y-198454818D01*
X79157737Y-198454818D02*
X79252975Y-198502437D01*
X79252975Y-198502437D02*
X79300594Y-198550056D01*
X79300594Y-198550056D02*
X79348213Y-198645294D01*
X79348213Y-198645294D02*
X79348213Y-198740532D01*
X79348213Y-198740532D02*
X79300594Y-198883389D01*
X79300594Y-198883389D02*
X78729166Y-199454818D01*
X78729166Y-199454818D02*
X79348213Y-199454818D01*
X79642857Y-203907200D02*
X79785714Y-203954819D01*
X79785714Y-203954819D02*
X80023809Y-203954819D01*
X80023809Y-203954819D02*
X80119047Y-203907200D01*
X80119047Y-203907200D02*
X80166666Y-203859580D01*
X80166666Y-203859580D02*
X80214285Y-203764342D01*
X80214285Y-203764342D02*
X80214285Y-203669104D01*
X80214285Y-203669104D02*
X80166666Y-203573866D01*
X80166666Y-203573866D02*
X80119047Y-203526247D01*
X80119047Y-203526247D02*
X80023809Y-203478628D01*
X80023809Y-203478628D02*
X79833333Y-203431009D01*
X79833333Y-203431009D02*
X79738095Y-203383390D01*
X79738095Y-203383390D02*
X79690476Y-203335771D01*
X79690476Y-203335771D02*
X79642857Y-203240533D01*
X79642857Y-203240533D02*
X79642857Y-203145295D01*
X79642857Y-203145295D02*
X79690476Y-203050057D01*
X79690476Y-203050057D02*
X79738095Y-203002438D01*
X79738095Y-203002438D02*
X79833333Y-202954819D01*
X79833333Y-202954819D02*
X80071428Y-202954819D01*
X80071428Y-202954819D02*
X80214285Y-203002438D01*
X80547619Y-202954819D02*
X80785714Y-203954819D01*
X80785714Y-203954819D02*
X80976190Y-203240533D01*
X80976190Y-203240533D02*
X81166666Y-203954819D01*
X81166666Y-203954819D02*
X81404762Y-202954819D01*
D14*
X224666318Y-87628094D02*
X225573461Y-87628094D01*
X225573461Y-87628094D02*
X225754889Y-87688571D01*
X225754889Y-87688571D02*
X225875842Y-87809523D01*
X225875842Y-87809523D02*
X225936318Y-87990952D01*
X225936318Y-87990952D02*
X225936318Y-88111904D01*
X225936318Y-86358094D02*
X225936318Y-87083809D01*
X225936318Y-86720952D02*
X224666318Y-86720952D01*
X224666318Y-86720952D02*
X224847746Y-86841904D01*
X224847746Y-86841904D02*
X224968699Y-86962856D01*
X224968699Y-86962856D02*
X225029175Y-87083809D01*
X225210603Y-85632380D02*
X225150127Y-85753332D01*
X225150127Y-85753332D02*
X225089651Y-85813809D01*
X225089651Y-85813809D02*
X224968699Y-85874285D01*
X224968699Y-85874285D02*
X224908222Y-85874285D01*
X224908222Y-85874285D02*
X224787270Y-85813809D01*
X224787270Y-85813809D02*
X224726794Y-85753332D01*
X224726794Y-85753332D02*
X224666318Y-85632380D01*
X224666318Y-85632380D02*
X224666318Y-85390475D01*
X224666318Y-85390475D02*
X224726794Y-85269523D01*
X224726794Y-85269523D02*
X224787270Y-85209047D01*
X224787270Y-85209047D02*
X224908222Y-85148570D01*
X224908222Y-85148570D02*
X224968699Y-85148570D01*
X224968699Y-85148570D02*
X225089651Y-85209047D01*
X225089651Y-85209047D02*
X225150127Y-85269523D01*
X225150127Y-85269523D02*
X225210603Y-85390475D01*
X225210603Y-85390475D02*
X225210603Y-85632380D01*
X225210603Y-85632380D02*
X225271080Y-85753332D01*
X225271080Y-85753332D02*
X225331556Y-85813809D01*
X225331556Y-85813809D02*
X225452508Y-85874285D01*
X225452508Y-85874285D02*
X225694413Y-85874285D01*
X225694413Y-85874285D02*
X225815365Y-85813809D01*
X225815365Y-85813809D02*
X225875842Y-85753332D01*
X225875842Y-85753332D02*
X225936318Y-85632380D01*
X225936318Y-85632380D02*
X225936318Y-85390475D01*
X225936318Y-85390475D02*
X225875842Y-85269523D01*
X225875842Y-85269523D02*
X225815365Y-85209047D01*
X225815365Y-85209047D02*
X225694413Y-85148570D01*
X225694413Y-85148570D02*
X225452508Y-85148570D01*
X225452508Y-85148570D02*
X225331556Y-85209047D01*
X225331556Y-85209047D02*
X225271080Y-85269523D01*
X225271080Y-85269523D02*
X225210603Y-85390475D01*
D13*
X122761905Y-73454819D02*
X122761905Y-72454819D01*
X122761905Y-72454819D02*
X123000000Y-72454819D01*
X123000000Y-72454819D02*
X123142857Y-72502438D01*
X123142857Y-72502438D02*
X123238095Y-72597676D01*
X123238095Y-72597676D02*
X123285714Y-72692914D01*
X123285714Y-72692914D02*
X123333333Y-72883390D01*
X123333333Y-72883390D02*
X123333333Y-73026247D01*
X123333333Y-73026247D02*
X123285714Y-73216723D01*
X123285714Y-73216723D02*
X123238095Y-73311961D01*
X123238095Y-73311961D02*
X123142857Y-73407200D01*
X123142857Y-73407200D02*
X123000000Y-73454819D01*
X123000000Y-73454819D02*
X122761905Y-73454819D01*
X123666667Y-72454819D02*
X124285714Y-72454819D01*
X124285714Y-72454819D02*
X123952381Y-72835771D01*
X123952381Y-72835771D02*
X124095238Y-72835771D01*
X124095238Y-72835771D02*
X124190476Y-72883390D01*
X124190476Y-72883390D02*
X124238095Y-72931009D01*
X124238095Y-72931009D02*
X124285714Y-73026247D01*
X124285714Y-73026247D02*
X124285714Y-73264342D01*
X124285714Y-73264342D02*
X124238095Y-73359580D01*
X124238095Y-73359580D02*
X124190476Y-73407200D01*
X124190476Y-73407200D02*
X124095238Y-73454819D01*
X124095238Y-73454819D02*
X123809524Y-73454819D01*
X123809524Y-73454819D02*
X123714286Y-73407200D01*
X123714286Y-73407200D02*
X123666667Y-73359580D01*
X120809524Y-74550057D02*
X120857143Y-74502438D01*
X120857143Y-74502438D02*
X120952381Y-74454819D01*
X120952381Y-74454819D02*
X121190476Y-74454819D01*
X121190476Y-74454819D02*
X121285714Y-74502438D01*
X121285714Y-74502438D02*
X121333333Y-74550057D01*
X121333333Y-74550057D02*
X121380952Y-74645295D01*
X121380952Y-74645295D02*
X121380952Y-74740533D01*
X121380952Y-74740533D02*
X121333333Y-74883390D01*
X121333333Y-74883390D02*
X120761905Y-75454819D01*
X120761905Y-75454819D02*
X121380952Y-75454819D01*
X122238095Y-74788152D02*
X122238095Y-75454819D01*
X122000000Y-74407200D02*
X121761905Y-75121485D01*
X121761905Y-75121485D02*
X122380952Y-75121485D01*
X122619048Y-74454819D02*
X122952381Y-75454819D01*
X122952381Y-75454819D02*
X123285714Y-74454819D01*
D14*
X108901905Y-57304318D02*
X108901905Y-58211461D01*
X108901905Y-58211461D02*
X108841428Y-58392889D01*
X108841428Y-58392889D02*
X108720476Y-58513842D01*
X108720476Y-58513842D02*
X108539047Y-58574318D01*
X108539047Y-58574318D02*
X108418095Y-58574318D01*
X109446190Y-57425270D02*
X109506666Y-57364794D01*
X109506666Y-57364794D02*
X109627619Y-57304318D01*
X109627619Y-57304318D02*
X109930000Y-57304318D01*
X109930000Y-57304318D02*
X110050952Y-57364794D01*
X110050952Y-57364794D02*
X110111428Y-57425270D01*
X110111428Y-57425270D02*
X110171905Y-57546222D01*
X110171905Y-57546222D02*
X110171905Y-57667175D01*
X110171905Y-57667175D02*
X110111428Y-57848603D01*
X110111428Y-57848603D02*
X109385714Y-58574318D01*
X109385714Y-58574318D02*
X110171905Y-58574318D01*
X111260476Y-57304318D02*
X111018571Y-57304318D01*
X111018571Y-57304318D02*
X110897619Y-57364794D01*
X110897619Y-57364794D02*
X110837143Y-57425270D01*
X110837143Y-57425270D02*
X110716190Y-57606699D01*
X110716190Y-57606699D02*
X110655714Y-57848603D01*
X110655714Y-57848603D02*
X110655714Y-58332413D01*
X110655714Y-58332413D02*
X110716190Y-58453365D01*
X110716190Y-58453365D02*
X110776667Y-58513842D01*
X110776667Y-58513842D02*
X110897619Y-58574318D01*
X110897619Y-58574318D02*
X111139524Y-58574318D01*
X111139524Y-58574318D02*
X111260476Y-58513842D01*
X111260476Y-58513842D02*
X111320952Y-58453365D01*
X111320952Y-58453365D02*
X111381429Y-58332413D01*
X111381429Y-58332413D02*
X111381429Y-58030032D01*
X111381429Y-58030032D02*
X111320952Y-57909080D01*
X111320952Y-57909080D02*
X111260476Y-57848603D01*
X111260476Y-57848603D02*
X111139524Y-57788127D01*
X111139524Y-57788127D02*
X110897619Y-57788127D01*
X110897619Y-57788127D02*
X110776667Y-57848603D01*
X110776667Y-57848603D02*
X110716190Y-57909080D01*
X110716190Y-57909080D02*
X110655714Y-58030032D01*
X223467318Y-201673332D02*
X224374461Y-201673332D01*
X224374461Y-201673332D02*
X224555889Y-201733809D01*
X224555889Y-201733809D02*
X224676842Y-201854761D01*
X224676842Y-201854761D02*
X224737318Y-202036190D01*
X224737318Y-202036190D02*
X224737318Y-202157142D01*
X223588270Y-201129047D02*
X223527794Y-201068571D01*
X223527794Y-201068571D02*
X223467318Y-200947618D01*
X223467318Y-200947618D02*
X223467318Y-200645237D01*
X223467318Y-200645237D02*
X223527794Y-200524285D01*
X223527794Y-200524285D02*
X223588270Y-200463809D01*
X223588270Y-200463809D02*
X223709222Y-200403332D01*
X223709222Y-200403332D02*
X223830175Y-200403332D01*
X223830175Y-200403332D02*
X224011603Y-200463809D01*
X224011603Y-200463809D02*
X224737318Y-201189523D01*
X224737318Y-201189523D02*
X224737318Y-200403332D01*
X63804318Y-171983094D02*
X64711461Y-171983094D01*
X64711461Y-171983094D02*
X64892889Y-172043571D01*
X64892889Y-172043571D02*
X65013842Y-172164523D01*
X65013842Y-172164523D02*
X65074318Y-172345952D01*
X65074318Y-172345952D02*
X65074318Y-172466904D01*
X63925270Y-171438809D02*
X63864794Y-171378333D01*
X63864794Y-171378333D02*
X63804318Y-171257380D01*
X63804318Y-171257380D02*
X63804318Y-170954999D01*
X63804318Y-170954999D02*
X63864794Y-170834047D01*
X63864794Y-170834047D02*
X63925270Y-170773571D01*
X63925270Y-170773571D02*
X64046222Y-170713094D01*
X64046222Y-170713094D02*
X64167175Y-170713094D01*
X64167175Y-170713094D02*
X64348603Y-170773571D01*
X64348603Y-170773571D02*
X65074318Y-171499285D01*
X65074318Y-171499285D02*
X65074318Y-170713094D01*
X63925270Y-170229285D02*
X63864794Y-170168809D01*
X63864794Y-170168809D02*
X63804318Y-170047856D01*
X63804318Y-170047856D02*
X63804318Y-169745475D01*
X63804318Y-169745475D02*
X63864794Y-169624523D01*
X63864794Y-169624523D02*
X63925270Y-169564047D01*
X63925270Y-169564047D02*
X64046222Y-169503570D01*
X64046222Y-169503570D02*
X64167175Y-169503570D01*
X64167175Y-169503570D02*
X64348603Y-169564047D01*
X64348603Y-169564047D02*
X65074318Y-170289761D01*
X65074318Y-170289761D02*
X65074318Y-169503570D01*
D13*
X112771075Y-200954819D02*
X112437742Y-200478628D01*
X112199647Y-200954819D02*
X112199647Y-199954819D01*
X112199647Y-199954819D02*
X112580599Y-199954819D01*
X112580599Y-199954819D02*
X112675837Y-200002438D01*
X112675837Y-200002438D02*
X112723456Y-200050057D01*
X112723456Y-200050057D02*
X112771075Y-200145295D01*
X112771075Y-200145295D02*
X112771075Y-200288152D01*
X112771075Y-200288152D02*
X112723456Y-200383390D01*
X112723456Y-200383390D02*
X112675837Y-200431009D01*
X112675837Y-200431009D02*
X112580599Y-200478628D01*
X112580599Y-200478628D02*
X112199647Y-200478628D01*
X113723456Y-200954819D02*
X113152028Y-200954819D01*
X113437742Y-200954819D02*
X113437742Y-199954819D01*
X113437742Y-199954819D02*
X113342504Y-200097676D01*
X113342504Y-200097676D02*
X113247266Y-200192914D01*
X113247266Y-200192914D02*
X113152028Y-200240533D01*
D14*
X189721905Y-200892318D02*
X189721905Y-201799461D01*
X189721905Y-201799461D02*
X189661428Y-201980889D01*
X189661428Y-201980889D02*
X189540476Y-202101842D01*
X189540476Y-202101842D02*
X189359047Y-202162318D01*
X189359047Y-202162318D02*
X189238095Y-202162318D01*
X190266190Y-201013270D02*
X190326666Y-200952794D01*
X190326666Y-200952794D02*
X190447619Y-200892318D01*
X190447619Y-200892318D02*
X190750000Y-200892318D01*
X190750000Y-200892318D02*
X190870952Y-200952794D01*
X190870952Y-200952794D02*
X190931428Y-201013270D01*
X190931428Y-201013270D02*
X190991905Y-201134222D01*
X190991905Y-201134222D02*
X190991905Y-201255175D01*
X190991905Y-201255175D02*
X190931428Y-201436603D01*
X190931428Y-201436603D02*
X190205714Y-202162318D01*
X190205714Y-202162318D02*
X190991905Y-202162318D01*
X192201429Y-202162318D02*
X191475714Y-202162318D01*
X191838571Y-202162318D02*
X191838571Y-200892318D01*
X191838571Y-200892318D02*
X191717619Y-201073746D01*
X191717619Y-201073746D02*
X191596667Y-201194699D01*
X191596667Y-201194699D02*
X191475714Y-201255175D01*
X223467318Y-181028094D02*
X224374461Y-181028094D01*
X224374461Y-181028094D02*
X224555889Y-181088571D01*
X224555889Y-181088571D02*
X224676842Y-181209523D01*
X224676842Y-181209523D02*
X224737318Y-181390952D01*
X224737318Y-181390952D02*
X224737318Y-181511904D01*
X223588270Y-180483809D02*
X223527794Y-180423333D01*
X223527794Y-180423333D02*
X223467318Y-180302380D01*
X223467318Y-180302380D02*
X223467318Y-179999999D01*
X223467318Y-179999999D02*
X223527794Y-179879047D01*
X223527794Y-179879047D02*
X223588270Y-179818571D01*
X223588270Y-179818571D02*
X223709222Y-179758094D01*
X223709222Y-179758094D02*
X223830175Y-179758094D01*
X223830175Y-179758094D02*
X224011603Y-179818571D01*
X224011603Y-179818571D02*
X224737318Y-180544285D01*
X224737318Y-180544285D02*
X224737318Y-179758094D01*
X223467318Y-179334761D02*
X223467318Y-178548570D01*
X223467318Y-178548570D02*
X223951127Y-178971904D01*
X223951127Y-178971904D02*
X223951127Y-178790475D01*
X223951127Y-178790475D02*
X224011603Y-178669523D01*
X224011603Y-178669523D02*
X224072080Y-178609047D01*
X224072080Y-178609047D02*
X224193032Y-178548570D01*
X224193032Y-178548570D02*
X224495413Y-178548570D01*
X224495413Y-178548570D02*
X224616365Y-178609047D01*
X224616365Y-178609047D02*
X224676842Y-178669523D01*
X224676842Y-178669523D02*
X224737318Y-178790475D01*
X224737318Y-178790475D02*
X224737318Y-179153332D01*
X224737318Y-179153332D02*
X224676842Y-179274285D01*
X224676842Y-179274285D02*
X224616365Y-179334761D01*
X88221905Y-57304318D02*
X88221905Y-58211461D01*
X88221905Y-58211461D02*
X88161428Y-58392889D01*
X88161428Y-58392889D02*
X88040476Y-58513842D01*
X88040476Y-58513842D02*
X87859047Y-58574318D01*
X87859047Y-58574318D02*
X87738095Y-58574318D01*
X88766190Y-57425270D02*
X88826666Y-57364794D01*
X88826666Y-57364794D02*
X88947619Y-57304318D01*
X88947619Y-57304318D02*
X89250000Y-57304318D01*
X89250000Y-57304318D02*
X89370952Y-57364794D01*
X89370952Y-57364794D02*
X89431428Y-57425270D01*
X89431428Y-57425270D02*
X89491905Y-57546222D01*
X89491905Y-57546222D02*
X89491905Y-57667175D01*
X89491905Y-57667175D02*
X89431428Y-57848603D01*
X89431428Y-57848603D02*
X88705714Y-58574318D01*
X88705714Y-58574318D02*
X89491905Y-58574318D01*
X90640952Y-57304318D02*
X90036190Y-57304318D01*
X90036190Y-57304318D02*
X89975714Y-57909080D01*
X89975714Y-57909080D02*
X90036190Y-57848603D01*
X90036190Y-57848603D02*
X90157143Y-57788127D01*
X90157143Y-57788127D02*
X90459524Y-57788127D01*
X90459524Y-57788127D02*
X90580476Y-57848603D01*
X90580476Y-57848603D02*
X90640952Y-57909080D01*
X90640952Y-57909080D02*
X90701429Y-58030032D01*
X90701429Y-58030032D02*
X90701429Y-58332413D01*
X90701429Y-58332413D02*
X90640952Y-58453365D01*
X90640952Y-58453365D02*
X90580476Y-58513842D01*
X90580476Y-58513842D02*
X90459524Y-58574318D01*
X90459524Y-58574318D02*
X90157143Y-58574318D01*
X90157143Y-58574318D02*
X90036190Y-58513842D01*
X90036190Y-58513842D02*
X89975714Y-58453365D01*
D13*
X203086906Y-71954819D02*
X203086906Y-70954819D01*
X203086906Y-70954819D02*
X203325001Y-70954819D01*
X203325001Y-70954819D02*
X203467858Y-71002438D01*
X203467858Y-71002438D02*
X203563096Y-71097676D01*
X203563096Y-71097676D02*
X203610715Y-71192914D01*
X203610715Y-71192914D02*
X203658334Y-71383390D01*
X203658334Y-71383390D02*
X203658334Y-71526247D01*
X203658334Y-71526247D02*
X203610715Y-71716723D01*
X203610715Y-71716723D02*
X203563096Y-71811961D01*
X203563096Y-71811961D02*
X203467858Y-71907200D01*
X203467858Y-71907200D02*
X203325001Y-71954819D01*
X203325001Y-71954819D02*
X203086906Y-71954819D01*
X204563096Y-70954819D02*
X204086906Y-70954819D01*
X204086906Y-70954819D02*
X204039287Y-71431009D01*
X204039287Y-71431009D02*
X204086906Y-71383390D01*
X204086906Y-71383390D02*
X204182144Y-71335771D01*
X204182144Y-71335771D02*
X204420239Y-71335771D01*
X204420239Y-71335771D02*
X204515477Y-71383390D01*
X204515477Y-71383390D02*
X204563096Y-71431009D01*
X204563096Y-71431009D02*
X204610715Y-71526247D01*
X204610715Y-71526247D02*
X204610715Y-71764342D01*
X204610715Y-71764342D02*
X204563096Y-71859580D01*
X204563096Y-71859580D02*
X204515477Y-71907200D01*
X204515477Y-71907200D02*
X204420239Y-71954819D01*
X204420239Y-71954819D02*
X204182144Y-71954819D01*
X204182144Y-71954819D02*
X204086906Y-71907200D01*
X204086906Y-71907200D02*
X204039287Y-71859580D01*
X204880952Y-73954819D02*
X204309524Y-73954819D01*
X204595238Y-73954819D02*
X204595238Y-72954819D01*
X204595238Y-72954819D02*
X204500000Y-73097676D01*
X204500000Y-73097676D02*
X204404762Y-73192914D01*
X204404762Y-73192914D02*
X204309524Y-73240533D01*
X205261905Y-73050057D02*
X205309524Y-73002438D01*
X205309524Y-73002438D02*
X205404762Y-72954819D01*
X205404762Y-72954819D02*
X205642857Y-72954819D01*
X205642857Y-72954819D02*
X205738095Y-73002438D01*
X205738095Y-73002438D02*
X205785714Y-73050057D01*
X205785714Y-73050057D02*
X205833333Y-73145295D01*
X205833333Y-73145295D02*
X205833333Y-73240533D01*
X205833333Y-73240533D02*
X205785714Y-73383390D01*
X205785714Y-73383390D02*
X205214286Y-73954819D01*
X205214286Y-73954819D02*
X205833333Y-73954819D01*
X206119048Y-72954819D02*
X206452381Y-73954819D01*
X206452381Y-73954819D02*
X206785714Y-72954819D01*
D14*
X150261905Y-57304318D02*
X150261905Y-58211461D01*
X150261905Y-58211461D02*
X150201428Y-58392889D01*
X150201428Y-58392889D02*
X150080476Y-58513842D01*
X150080476Y-58513842D02*
X149899047Y-58574318D01*
X149899047Y-58574318D02*
X149778095Y-58574318D01*
X151531905Y-58574318D02*
X150806190Y-58574318D01*
X151169047Y-58574318D02*
X151169047Y-57304318D01*
X151169047Y-57304318D02*
X151048095Y-57485746D01*
X151048095Y-57485746D02*
X150927143Y-57606699D01*
X150927143Y-57606699D02*
X150806190Y-57667175D01*
X152015714Y-57425270D02*
X152076190Y-57364794D01*
X152076190Y-57364794D02*
X152197143Y-57304318D01*
X152197143Y-57304318D02*
X152499524Y-57304318D01*
X152499524Y-57304318D02*
X152620476Y-57364794D01*
X152620476Y-57364794D02*
X152680952Y-57425270D01*
X152680952Y-57425270D02*
X152741429Y-57546222D01*
X152741429Y-57546222D02*
X152741429Y-57667175D01*
X152741429Y-57667175D02*
X152680952Y-57848603D01*
X152680952Y-57848603D02*
X151955238Y-58574318D01*
X151955238Y-58574318D02*
X152741429Y-58574318D01*
X189971905Y-56804318D02*
X189971905Y-57711461D01*
X189971905Y-57711461D02*
X189911428Y-57892889D01*
X189911428Y-57892889D02*
X189790476Y-58013842D01*
X189790476Y-58013842D02*
X189609047Y-58074318D01*
X189609047Y-58074318D02*
X189488095Y-58074318D01*
X191241905Y-58074318D02*
X190516190Y-58074318D01*
X190879047Y-58074318D02*
X190879047Y-56804318D01*
X190879047Y-56804318D02*
X190758095Y-56985746D01*
X190758095Y-56985746D02*
X190637143Y-57106699D01*
X190637143Y-57106699D02*
X190516190Y-57167175D01*
X192390952Y-56804318D02*
X191786190Y-56804318D01*
X191786190Y-56804318D02*
X191725714Y-57409080D01*
X191725714Y-57409080D02*
X191786190Y-57348603D01*
X191786190Y-57348603D02*
X191907143Y-57288127D01*
X191907143Y-57288127D02*
X192209524Y-57288127D01*
X192209524Y-57288127D02*
X192330476Y-57348603D01*
X192330476Y-57348603D02*
X192390952Y-57409080D01*
X192390952Y-57409080D02*
X192451429Y-57530032D01*
X192451429Y-57530032D02*
X192451429Y-57832413D01*
X192451429Y-57832413D02*
X192390952Y-57953365D01*
X192390952Y-57953365D02*
X192330476Y-58013842D01*
X192330476Y-58013842D02*
X192209524Y-58074318D01*
X192209524Y-58074318D02*
X191907143Y-58074318D01*
X191907143Y-58074318D02*
X191786190Y-58013842D01*
X191786190Y-58013842D02*
X191725714Y-57953365D01*
D13*
X200761905Y-161304819D02*
X200761905Y-160304819D01*
X200761905Y-160781009D02*
X201333333Y-160781009D01*
X201333333Y-161304819D02*
X201333333Y-160304819D01*
X202333333Y-161304819D02*
X201761905Y-161304819D01*
X202047619Y-161304819D02*
X202047619Y-160304819D01*
X202047619Y-160304819D02*
X201952381Y-160447676D01*
X201952381Y-160447676D02*
X201857143Y-160542914D01*
X201857143Y-160542914D02*
X201761905Y-160590533D01*
X202952381Y-160304819D02*
X203047619Y-160304819D01*
X203047619Y-160304819D02*
X203142857Y-160352438D01*
X203142857Y-160352438D02*
X203190476Y-160400057D01*
X203190476Y-160400057D02*
X203238095Y-160495295D01*
X203238095Y-160495295D02*
X203285714Y-160685771D01*
X203285714Y-160685771D02*
X203285714Y-160923866D01*
X203285714Y-160923866D02*
X203238095Y-161114342D01*
X203238095Y-161114342D02*
X203190476Y-161209580D01*
X203190476Y-161209580D02*
X203142857Y-161257200D01*
X203142857Y-161257200D02*
X203047619Y-161304819D01*
X203047619Y-161304819D02*
X202952381Y-161304819D01*
X202952381Y-161304819D02*
X202857143Y-161257200D01*
X202857143Y-161257200D02*
X202809524Y-161209580D01*
X202809524Y-161209580D02*
X202761905Y-161114342D01*
X202761905Y-161114342D02*
X202714286Y-160923866D01*
X202714286Y-160923866D02*
X202714286Y-160685771D01*
X202714286Y-160685771D02*
X202761905Y-160495295D01*
X202761905Y-160495295D02*
X202809524Y-160400057D01*
X202809524Y-160400057D02*
X202857143Y-160352438D01*
X202857143Y-160352438D02*
X202952381Y-160304819D01*
D14*
X64304318Y-129788333D02*
X65211461Y-129788333D01*
X65211461Y-129788333D02*
X65392889Y-129848810D01*
X65392889Y-129848810D02*
X65513842Y-129969762D01*
X65513842Y-129969762D02*
X65574318Y-130151191D01*
X65574318Y-130151191D02*
X65574318Y-130272143D01*
X65574318Y-129123095D02*
X65574318Y-128881191D01*
X65574318Y-128881191D02*
X65513842Y-128760238D01*
X65513842Y-128760238D02*
X65453365Y-128699762D01*
X65453365Y-128699762D02*
X65271937Y-128578810D01*
X65271937Y-128578810D02*
X65030032Y-128518333D01*
X65030032Y-128518333D02*
X64546222Y-128518333D01*
X64546222Y-128518333D02*
X64425270Y-128578810D01*
X64425270Y-128578810D02*
X64364794Y-128639286D01*
X64364794Y-128639286D02*
X64304318Y-128760238D01*
X64304318Y-128760238D02*
X64304318Y-129002143D01*
X64304318Y-129002143D02*
X64364794Y-129123095D01*
X64364794Y-129123095D02*
X64425270Y-129183572D01*
X64425270Y-129183572D02*
X64546222Y-129244048D01*
X64546222Y-129244048D02*
X64848603Y-129244048D01*
X64848603Y-129244048D02*
X64969556Y-129183572D01*
X64969556Y-129183572D02*
X65030032Y-129123095D01*
X65030032Y-129123095D02*
X65090508Y-129002143D01*
X65090508Y-129002143D02*
X65090508Y-128760238D01*
X65090508Y-128760238D02*
X65030032Y-128639286D01*
X65030032Y-128639286D02*
X64969556Y-128578810D01*
X64969556Y-128578810D02*
X64848603Y-128518333D01*
X63804318Y-192173332D02*
X64711461Y-192173332D01*
X64711461Y-192173332D02*
X64892889Y-192233809D01*
X64892889Y-192233809D02*
X65013842Y-192354761D01*
X65013842Y-192354761D02*
X65074318Y-192536190D01*
X65074318Y-192536190D02*
X65074318Y-192657142D01*
X63804318Y-191689523D02*
X63804318Y-190903332D01*
X63804318Y-190903332D02*
X64288127Y-191326666D01*
X64288127Y-191326666D02*
X64288127Y-191145237D01*
X64288127Y-191145237D02*
X64348603Y-191024285D01*
X64348603Y-191024285D02*
X64409080Y-190963809D01*
X64409080Y-190963809D02*
X64530032Y-190903332D01*
X64530032Y-190903332D02*
X64832413Y-190903332D01*
X64832413Y-190903332D02*
X64953365Y-190963809D01*
X64953365Y-190963809D02*
X65013842Y-191024285D01*
X65013842Y-191024285D02*
X65074318Y-191145237D01*
X65074318Y-191145237D02*
X65074318Y-191508094D01*
X65074318Y-191508094D02*
X65013842Y-191629047D01*
X65013842Y-191629047D02*
X64953365Y-191689523D01*
D15*
%TO.C,R4*%
X166299757Y-70522500D02*
X165825241Y-70522500D01*
X166299757Y-69477500D02*
X165825241Y-69477500D01*
%TO.C,D4*%
X163083364Y-68956637D02*
X160398365Y-68956637D01*
X160398365Y-70876637D02*
X163083364Y-70876637D01*
X160398365Y-68956637D02*
X160398365Y-70876637D01*
D16*
%TO.C,J6*%
X60820000Y-60000000D02*
X60820000Y-62500000D01*
X60820000Y-62500000D02*
X61070000Y-62500000D01*
X61070000Y-62500000D02*
X62170000Y-65000000D01*
X61570000Y-48650000D02*
X61570000Y-55500000D01*
D10*
X64970000Y-66550000D02*
X64970000Y-66550000D01*
X64970000Y-66650000D02*
X64970000Y-66650000D01*
D16*
X74570000Y-56350000D02*
X62570000Y-56350000D01*
X75570000Y-48650000D02*
X61570000Y-48650000D01*
X75570000Y-55500000D02*
X75570000Y-48650000D01*
X76070000Y-62500000D02*
X74570000Y-65850000D01*
X76320000Y-60000000D02*
X76320000Y-62500000D01*
X76320000Y-62500000D02*
X76070000Y-62500000D01*
D10*
X64970000Y-66550000D02*
G75*
G02*
X64970000Y-66650000I0J-50000D01*
G01*
X64970000Y-66650000D02*
G75*
G02*
X64970000Y-66550000I0J50000D01*
G01*
D16*
%TO.C,J24*%
X161875000Y-196425000D02*
X162125000Y-196425000D01*
X161875000Y-198925000D02*
X161875000Y-196425000D01*
X162125000Y-196425000D02*
X163625000Y-193075000D01*
X162625000Y-203425000D02*
X162625000Y-210275000D01*
X162625000Y-210275000D02*
X176625000Y-210275000D01*
X163625000Y-202575000D02*
X175625000Y-202575000D01*
D10*
X173225000Y-192275000D02*
X173225000Y-192275000D01*
X173225000Y-192375000D02*
X173225000Y-192375000D01*
D16*
X176625000Y-210275000D02*
X176625000Y-203425000D01*
X177125000Y-196425000D02*
X176025000Y-193925000D01*
X177375000Y-196425000D02*
X177125000Y-196425000D01*
X177375000Y-198925000D02*
X177375000Y-196425000D01*
D10*
X173225000Y-192275000D02*
G75*
G02*
X173225000Y-192375000I0J-50000D01*
G01*
X173225000Y-192375000D02*
G75*
G02*
X173225000Y-192275000I0J50000D01*
G01*
D16*
%TO.C,J27*%
X122860000Y-60000000D02*
X122860000Y-62500000D01*
X122860000Y-62500000D02*
X123110000Y-62500000D01*
X123110000Y-62500000D02*
X124210000Y-65000000D01*
X123610000Y-48650000D02*
X123610000Y-55500000D01*
D10*
X127010000Y-66550000D02*
X127010000Y-66550000D01*
X127010000Y-66650000D02*
X127010000Y-66650000D01*
D16*
X136610000Y-56350000D02*
X124610000Y-56350000D01*
X137610000Y-48650000D02*
X123610000Y-48650000D01*
X137610000Y-55500000D02*
X137610000Y-48650000D01*
X138110000Y-62500000D02*
X136610000Y-65850000D01*
X138360000Y-60000000D02*
X138360000Y-62500000D01*
X138360000Y-62500000D02*
X138110000Y-62500000D01*
D10*
X127010000Y-66550000D02*
G75*
G02*
X127010000Y-66650000I0J-50000D01*
G01*
X127010000Y-66650000D02*
G75*
G02*
X127010000Y-66550000I0J50000D01*
G01*
D16*
%TO.C,J13*%
X164220000Y-60000000D02*
X164220000Y-62500000D01*
X164220000Y-62500000D02*
X164470000Y-62500000D01*
X164470000Y-62500000D02*
X165570000Y-65000000D01*
X164970000Y-48650000D02*
X164970000Y-55500000D01*
D10*
X168370000Y-66550000D02*
X168370000Y-66550000D01*
X168370000Y-66650000D02*
X168370000Y-66650000D01*
D16*
X177970000Y-56350000D02*
X165970000Y-56350000D01*
X178970000Y-48650000D02*
X164970000Y-48650000D01*
X178970000Y-55500000D02*
X178970000Y-48650000D01*
X179470000Y-62500000D02*
X177970000Y-65850000D01*
X179720000Y-60000000D02*
X179720000Y-62500000D01*
X179720000Y-62500000D02*
X179470000Y-62500000D01*
D10*
X168370000Y-66550000D02*
G75*
G02*
X168370000Y-66650000I0J-50000D01*
G01*
X168370000Y-66650000D02*
G75*
G02*
X168370000Y-66550000I0J50000D01*
G01*
D16*
%TO.C,J11*%
X87650000Y-196425000D02*
X87900000Y-196425000D01*
X87650000Y-198925000D02*
X87650000Y-196425000D01*
X87900000Y-196425000D02*
X89400000Y-193075000D01*
X88400000Y-203425000D02*
X88400000Y-210275000D01*
X88400000Y-210275000D02*
X102400000Y-210275000D01*
X89400000Y-202575000D02*
X101400000Y-202575000D01*
D10*
X99000000Y-192275000D02*
X99000000Y-192275000D01*
X99000000Y-192375000D02*
X99000000Y-192375000D01*
D16*
X102400000Y-210275000D02*
X102400000Y-203425000D01*
X102900000Y-196425000D02*
X101800000Y-193925000D01*
X103150000Y-196425000D02*
X102900000Y-196425000D01*
X103150000Y-198925000D02*
X103150000Y-196425000D01*
D10*
X99000000Y-192275000D02*
G75*
G02*
X99000000Y-192375000I0J-50000D01*
G01*
X99000000Y-192375000D02*
G75*
G02*
X99000000Y-192275000I0J50000D01*
G01*
%TO.C,J19*%
X221500000Y-96350000D02*
X233500000Y-96350000D01*
X221500000Y-109650000D02*
X221500000Y-96350000D01*
X233500000Y-96350000D02*
X233500000Y-109650000D01*
X233500000Y-109650000D02*
X221500000Y-109650000D01*
D16*
%TO.C,J1*%
X55150000Y-143160000D02*
X55150000Y-157160000D01*
X55150000Y-157160000D02*
X62000000Y-157160000D01*
X62000000Y-143160000D02*
X55150000Y-143160000D01*
X62850000Y-144160000D02*
X62850000Y-156160000D01*
X66500000Y-142410000D02*
X69000000Y-142410000D01*
X66500000Y-157910000D02*
X69000000Y-157910000D01*
X69000000Y-142410000D02*
X69000000Y-142660000D01*
X69000000Y-142660000D02*
X72350000Y-144160000D01*
X69000000Y-157660000D02*
X71500000Y-156560000D01*
X69000000Y-157910000D02*
X69000000Y-157660000D01*
D10*
X73050000Y-153760000D02*
X73050000Y-153760000D01*
X73150000Y-153760000D02*
X73150000Y-153760000D01*
X73050000Y-153760000D02*
G75*
G02*
X73150000Y-153760000I50000J0D01*
G01*
X73150000Y-153760000D02*
G75*
G02*
X73050000Y-153760000I-50000J0D01*
G01*
D16*
%TO.C,J4*%
X140750000Y-196425000D02*
X141000000Y-196425000D01*
X140750000Y-198925000D02*
X140750000Y-196425000D01*
X141000000Y-196425000D02*
X142500000Y-193075000D01*
X141500000Y-203425000D02*
X141500000Y-210275000D01*
X141500000Y-210275000D02*
X155500000Y-210275000D01*
X142500000Y-202575000D02*
X154500000Y-202575000D01*
D10*
X152100000Y-192275000D02*
X152100000Y-192275000D01*
X152100000Y-192375000D02*
X152100000Y-192375000D01*
D16*
X155500000Y-210275000D02*
X155500000Y-203425000D01*
X156000000Y-196425000D02*
X154900000Y-193925000D01*
X156250000Y-196425000D02*
X156000000Y-196425000D01*
X156250000Y-198925000D02*
X156250000Y-196425000D01*
D10*
X152100000Y-192275000D02*
G75*
G02*
X152100000Y-192375000I0J-50000D01*
G01*
X152100000Y-192375000D02*
G75*
G02*
X152100000Y-192275000I0J50000D01*
G01*
D15*
%TO.C,R2*%
X82412258Y-200477500D02*
X81937742Y-200477500D01*
X82412258Y-201522500D02*
X81937742Y-201522500D01*
D16*
%TO.C,J8*%
X55150000Y-101570001D02*
X55150000Y-115570001D01*
X55150000Y-115570001D02*
X62000000Y-115570001D01*
X62000000Y-101570001D02*
X55150000Y-101570001D01*
X62850000Y-102570001D02*
X62850000Y-114570001D01*
X66500000Y-100820001D02*
X69000000Y-100820001D01*
X66500000Y-116320001D02*
X69000000Y-116320001D01*
X69000000Y-100820001D02*
X69000000Y-101070001D01*
X69000000Y-101070001D02*
X72350000Y-102570001D01*
X69000000Y-116070001D02*
X71500000Y-114970001D01*
X69000000Y-116320001D02*
X69000000Y-116070001D01*
D10*
X73050000Y-112170001D02*
X73050000Y-112170001D01*
X73150000Y-112170001D02*
X73150000Y-112170001D01*
X73050000Y-112170001D02*
G75*
G02*
X73150000Y-112170001I50000J0D01*
G01*
X73150000Y-112170001D02*
G75*
G02*
X73050000Y-112170001I-50000J0D01*
G01*
D16*
%TO.C,J7*%
X55150000Y-80775001D02*
X55150000Y-94775001D01*
X55150000Y-94775001D02*
X62000000Y-94775001D01*
X62000000Y-80775001D02*
X55150000Y-80775001D01*
X62850000Y-81775001D02*
X62850000Y-93775001D01*
X66500000Y-80025001D02*
X69000000Y-80025001D01*
X66500000Y-95525001D02*
X69000000Y-95525001D01*
X69000000Y-80025001D02*
X69000000Y-80275001D01*
X69000000Y-80275001D02*
X72350000Y-81775001D01*
X69000000Y-95275001D02*
X71500000Y-94175001D01*
X69000000Y-95525001D02*
X69000000Y-95275001D01*
D10*
X73050000Y-91375001D02*
X73050000Y-91375001D01*
X73150000Y-91375001D02*
X73150000Y-91375001D01*
X73050000Y-91375001D02*
G75*
G02*
X73150000Y-91375001I50000J0D01*
G01*
X73150000Y-91375001D02*
G75*
G02*
X73050000Y-91375001I-50000J0D01*
G01*
%TO.C,J20*%
X221500000Y-112750000D02*
X233500000Y-112750000D01*
X221500000Y-126050000D02*
X221500000Y-112750000D01*
X233500000Y-112750000D02*
X233500000Y-126050000D01*
X233500000Y-126050000D02*
X221500000Y-126050000D01*
D15*
%TO.C,D1*%
X107752502Y-201540000D02*
X107752502Y-203460000D01*
X107752502Y-203460000D02*
X110437501Y-203460000D01*
X110437501Y-201540000D02*
X107752502Y-201540000D01*
D10*
%TO.C,J17*%
X215350000Y-48637500D02*
X228650000Y-48637500D01*
X215350000Y-60637500D02*
X215350000Y-48637500D01*
X228650000Y-48637500D02*
X228650000Y-60637500D01*
X228650000Y-60637500D02*
X215350000Y-60637500D01*
%TO.C,J16*%
X199850000Y-48637500D02*
X213150000Y-48637500D01*
X199850000Y-60637500D02*
X199850000Y-48637500D01*
X213150000Y-48637500D02*
X213150000Y-60637500D01*
X213150000Y-60637500D02*
X199850000Y-60637500D01*
%TO.C,J10*%
X214850000Y-134050000D02*
X214850000Y-134050000D01*
X214950000Y-134050000D02*
X214950000Y-134050000D01*
D16*
X219000000Y-129900000D02*
X219000000Y-130150000D01*
X219000000Y-130150000D02*
X216500000Y-131250000D01*
X219000000Y-145150000D02*
X215650000Y-143650000D01*
X219000000Y-145400000D02*
X219000000Y-145150000D01*
X221500000Y-129900000D02*
X219000000Y-129900000D01*
X221500000Y-145400000D02*
X219000000Y-145400000D01*
X225150000Y-143650000D02*
X225150000Y-131650000D01*
X226000000Y-144650000D02*
X232850000Y-144650000D01*
X232850000Y-130650000D02*
X226000000Y-130650000D01*
X232850000Y-144650000D02*
X232850000Y-130650000D01*
D10*
X214850000Y-134050000D02*
G75*
G02*
X214950000Y-134050000I50000J0D01*
G01*
X214950000Y-134050000D02*
G75*
G02*
X214850000Y-134050000I-50000J0D01*
G01*
D16*
%TO.C,PS1*%
X118150000Y-192650000D02*
X118150000Y-198500000D01*
X118150000Y-202500000D02*
X118150000Y-210850000D01*
X118150000Y-210850000D02*
X133650000Y-210850000D01*
X119150000Y-192650000D02*
X118150000Y-192650000D01*
D10*
X122300000Y-191800000D02*
X122300000Y-191800000D01*
X122300000Y-191900000D02*
X122300000Y-191900000D01*
D16*
X133650000Y-192650000D02*
X132300000Y-192650000D01*
X133650000Y-198500000D02*
X133650000Y-192650000D01*
X133650000Y-210850000D02*
X133650000Y-202500000D01*
D10*
X122300000Y-191800000D02*
G75*
G02*
X122300000Y-191900000I0J-50000D01*
G01*
X122300000Y-191900000D02*
G75*
G02*
X122300000Y-191800000I0J50000D01*
G01*
D15*
%TO.C,R3*%
X120137743Y-70477500D02*
X120612259Y-70477500D01*
X120137743Y-71522500D02*
X120612259Y-71522500D01*
D10*
%TO.C,J14*%
X214850000Y-155150000D02*
X214850000Y-155150000D01*
X214950000Y-155150000D02*
X214950000Y-155150000D01*
D16*
X219000000Y-151000000D02*
X219000000Y-151250000D01*
X219000000Y-151250000D02*
X216500000Y-152350000D01*
X219000000Y-166250000D02*
X215650000Y-164750000D01*
X219000000Y-166500000D02*
X219000000Y-166250000D01*
X221500000Y-151000000D02*
X219000000Y-151000000D01*
X221500000Y-166500000D02*
X219000000Y-166500000D01*
X225150000Y-164750000D02*
X225150000Y-152750000D01*
X226000000Y-165750000D02*
X232850000Y-165750000D01*
X232850000Y-151750000D02*
X226000000Y-151750000D01*
X232850000Y-165750000D02*
X232850000Y-151750000D01*
D10*
X214850000Y-155150000D02*
G75*
G02*
X214950000Y-155150000I50000J0D01*
G01*
X214950000Y-155150000D02*
G75*
G02*
X214850000Y-155150000I-50000J0D01*
G01*
D15*
%TO.C,R5*%
X207624757Y-68977500D02*
X207150241Y-68977500D01*
X207624757Y-70022500D02*
X207150241Y-70022500D01*
%TO.C,D2*%
X76877500Y-200040000D02*
X76877500Y-201960000D01*
X76877500Y-201960000D02*
X79562499Y-201960000D01*
X79562499Y-200040000D02*
X76877500Y-200040000D01*
D10*
%TO.C,J18*%
X221500000Y-79950000D02*
X233500000Y-79950000D01*
X221500000Y-93250000D02*
X221500000Y-79950000D01*
X233500000Y-79950000D02*
X233500000Y-93250000D01*
X233500000Y-93250000D02*
X221500000Y-93250000D01*
D15*
%TO.C,D3*%
X122937501Y-71960000D02*
X125622500Y-71960000D01*
X125622500Y-70040000D02*
X122937501Y-70040000D01*
X125622500Y-71960000D02*
X125622500Y-70040000D01*
D16*
%TO.C,J26*%
X102180000Y-60000000D02*
X102180000Y-62500000D01*
X102180000Y-62500000D02*
X102430000Y-62500000D01*
X102430000Y-62500000D02*
X103530000Y-65000000D01*
X102930000Y-48650000D02*
X102930000Y-55500000D01*
D10*
X106330000Y-66550000D02*
X106330000Y-66550000D01*
X106330000Y-66650000D02*
X106330000Y-66650000D01*
D16*
X115930000Y-56350000D02*
X103930000Y-56350000D01*
X116930000Y-48650000D02*
X102930000Y-48650000D01*
X116930000Y-55500000D02*
X116930000Y-48650000D01*
X117430000Y-62500000D02*
X115930000Y-65850000D01*
X117680000Y-60000000D02*
X117680000Y-62500000D01*
X117680000Y-62500000D02*
X117430000Y-62500000D01*
D10*
X106330000Y-66550000D02*
G75*
G02*
X106330000Y-66650000I0J-50000D01*
G01*
X106330000Y-66650000D02*
G75*
G02*
X106330000Y-66550000I0J50000D01*
G01*
%TO.C,J2*%
X214850000Y-197650000D02*
X214850000Y-197650000D01*
X214950000Y-197650000D02*
X214950000Y-197650000D01*
D16*
X219000000Y-193500000D02*
X219000000Y-193750000D01*
X219000000Y-193750000D02*
X216500000Y-194850000D01*
X219000000Y-208750000D02*
X215650000Y-207250000D01*
X219000000Y-209000000D02*
X219000000Y-208750000D01*
X221500000Y-193500000D02*
X219000000Y-193500000D01*
X221500000Y-209000000D02*
X219000000Y-209000000D01*
X225150000Y-207250000D02*
X225150000Y-195250000D01*
X226000000Y-208250000D02*
X232850000Y-208250000D01*
X232850000Y-194250000D02*
X226000000Y-194250000D01*
X232850000Y-208250000D02*
X232850000Y-194250000D01*
D10*
X214850000Y-197650000D02*
G75*
G02*
X214950000Y-197650000I50000J0D01*
G01*
X214950000Y-197650000D02*
G75*
G02*
X214850000Y-197650000I-50000J0D01*
G01*
D16*
%TO.C,J22*%
X55150000Y-163955000D02*
X55150000Y-177955000D01*
X55150000Y-177955000D02*
X62000000Y-177955000D01*
X62000000Y-163955000D02*
X55150000Y-163955000D01*
X62850000Y-164955000D02*
X62850000Y-176955000D01*
X66500000Y-163205000D02*
X69000000Y-163205000D01*
X66500000Y-178705000D02*
X69000000Y-178705000D01*
X69000000Y-163205000D02*
X69000000Y-163455000D01*
X69000000Y-163455000D02*
X72350000Y-164955000D01*
X69000000Y-178455000D02*
X71500000Y-177355000D01*
X69000000Y-178705000D02*
X69000000Y-178455000D01*
D10*
X73050000Y-174555000D02*
X73050000Y-174555000D01*
X73150000Y-174555000D02*
X73150000Y-174555000D01*
X73050000Y-174555000D02*
G75*
G02*
X73150000Y-174555000I50000J0D01*
G01*
X73150000Y-174555000D02*
G75*
G02*
X73050000Y-174555000I-50000J0D01*
G01*
D15*
%TO.C,R1*%
X113412258Y-201977500D02*
X112937742Y-201977500D01*
X113412258Y-203022500D02*
X112937742Y-203022500D01*
D16*
%TO.C,J21*%
X183000000Y-196425000D02*
X183250000Y-196425000D01*
X183000000Y-198925000D02*
X183000000Y-196425000D01*
X183250000Y-196425000D02*
X184750000Y-193075000D01*
X183750000Y-203425000D02*
X183750000Y-210275000D01*
X183750000Y-210275000D02*
X197750000Y-210275000D01*
X184750000Y-202575000D02*
X196750000Y-202575000D01*
D10*
X194350000Y-192275000D02*
X194350000Y-192275000D01*
X194350000Y-192375000D02*
X194350000Y-192375000D01*
D16*
X197750000Y-210275000D02*
X197750000Y-203425000D01*
X198250000Y-196425000D02*
X197150000Y-193925000D01*
X198500000Y-196425000D02*
X198250000Y-196425000D01*
X198500000Y-198925000D02*
X198500000Y-196425000D01*
D10*
X194350000Y-192275000D02*
G75*
G02*
X194350000Y-192375000I0J-50000D01*
G01*
X194350000Y-192375000D02*
G75*
G02*
X194350000Y-192275000I0J50000D01*
G01*
%TO.C,J23*%
X214850000Y-176400000D02*
X214850000Y-176400000D01*
X214950000Y-176400000D02*
X214950000Y-176400000D01*
D16*
X219000000Y-172250000D02*
X219000000Y-172500000D01*
X219000000Y-172500000D02*
X216500000Y-173600000D01*
X219000000Y-187500000D02*
X215650000Y-186000000D01*
X219000000Y-187750000D02*
X219000000Y-187500000D01*
X221500000Y-172250000D02*
X219000000Y-172250000D01*
X221500000Y-187750000D02*
X219000000Y-187750000D01*
X225150000Y-186000000D02*
X225150000Y-174000000D01*
X226000000Y-187000000D02*
X232850000Y-187000000D01*
X232850000Y-173000000D02*
X226000000Y-173000000D01*
X232850000Y-187000000D02*
X232850000Y-173000000D01*
D10*
X214850000Y-176400000D02*
G75*
G02*
X214950000Y-176400000I50000J0D01*
G01*
X214950000Y-176400000D02*
G75*
G02*
X214850000Y-176400000I-50000J0D01*
G01*
D16*
%TO.C,J25*%
X81500000Y-60000000D02*
X81500000Y-62500000D01*
X81500000Y-62500000D02*
X81750000Y-62500000D01*
X81750000Y-62500000D02*
X82850000Y-65000000D01*
X82250000Y-48650000D02*
X82250000Y-55500000D01*
D10*
X85650000Y-66550000D02*
X85650000Y-66550000D01*
X85650000Y-66650000D02*
X85650000Y-66650000D01*
D16*
X95250000Y-56350000D02*
X83250000Y-56350000D01*
X96250000Y-48650000D02*
X82250000Y-48650000D01*
X96250000Y-55500000D02*
X96250000Y-48650000D01*
X96750000Y-62500000D02*
X95250000Y-65850000D01*
X97000000Y-60000000D02*
X97000000Y-62500000D01*
X97000000Y-62500000D02*
X96750000Y-62500000D01*
D10*
X85650000Y-66550000D02*
G75*
G02*
X85650000Y-66650000I0J-50000D01*
G01*
X85650000Y-66650000D02*
G75*
G02*
X85650000Y-66550000I0J50000D01*
G01*
D15*
%TO.C,D5*%
X202140002Y-68715000D02*
X202140002Y-70635000D01*
X202140002Y-70635000D02*
X204825001Y-70635000D01*
X204825001Y-68715000D02*
X202140002Y-68715000D01*
D16*
%TO.C,J12*%
X143540000Y-60000000D02*
X143540000Y-62500000D01*
X143540000Y-62500000D02*
X143790000Y-62500000D01*
X143790000Y-62500000D02*
X144890000Y-65000000D01*
X144290000Y-48650000D02*
X144290000Y-55500000D01*
D10*
X147690000Y-66550000D02*
X147690000Y-66550000D01*
X147690000Y-66650000D02*
X147690000Y-66650000D01*
D16*
X157290000Y-56350000D02*
X145290000Y-56350000D01*
X158290000Y-48650000D02*
X144290000Y-48650000D01*
X158290000Y-55500000D02*
X158290000Y-48650000D01*
X158790000Y-62500000D02*
X157290000Y-65850000D01*
X159040000Y-60000000D02*
X159040000Y-62500000D01*
X159040000Y-62500000D02*
X158790000Y-62500000D01*
D10*
X147690000Y-66550000D02*
G75*
G02*
X147690000Y-66650000I0J-50000D01*
G01*
X147690000Y-66650000D02*
G75*
G02*
X147690000Y-66550000I0J50000D01*
G01*
%TO.C,J15*%
X184350000Y-48637500D02*
X197650000Y-48637500D01*
X184350000Y-60637500D02*
X184350000Y-48637500D01*
X197650000Y-48637500D02*
X197650000Y-60637500D01*
X197650000Y-60637500D02*
X184350000Y-60637500D01*
D16*
%TO.C,J9*%
X55150000Y-122365001D02*
X55150000Y-136365001D01*
X55150000Y-136365001D02*
X62000000Y-136365001D01*
X62000000Y-122365001D02*
X55150000Y-122365001D01*
X62850000Y-123365001D02*
X62850000Y-135365001D01*
X66500000Y-121615001D02*
X69000000Y-121615001D01*
X66500000Y-137115001D02*
X69000000Y-137115001D01*
X69000000Y-121615001D02*
X69000000Y-121865001D01*
X69000000Y-121865001D02*
X72350000Y-123365001D01*
X69000000Y-136865001D02*
X71500000Y-135765001D01*
X69000000Y-137115001D02*
X69000000Y-136865001D01*
D10*
X73050000Y-132965001D02*
X73050000Y-132965001D01*
X73150000Y-132965001D02*
X73150000Y-132965001D01*
X73050000Y-132965001D02*
G75*
G02*
X73150000Y-132965001I50000J0D01*
G01*
X73150000Y-132965001D02*
G75*
G02*
X73050000Y-132965001I-50000J0D01*
G01*
D16*
%TO.C,J3*%
X55150000Y-184750000D02*
X55150000Y-198750000D01*
X55150000Y-198750000D02*
X62000000Y-198750000D01*
X62000000Y-184750000D02*
X55150000Y-184750000D01*
X62850000Y-185750000D02*
X62850000Y-197750000D01*
X66500000Y-184000000D02*
X69000000Y-184000000D01*
X66500000Y-199500000D02*
X69000000Y-199500000D01*
X69000000Y-184000000D02*
X69000000Y-184250000D01*
X69000000Y-184250000D02*
X72350000Y-185750000D01*
X69000000Y-199250000D02*
X71500000Y-198150000D01*
X69000000Y-199500000D02*
X69000000Y-199250000D01*
D10*
X73050000Y-195350000D02*
X73050000Y-195350000D01*
X73150000Y-195350000D02*
X73150000Y-195350000D01*
X73050000Y-195350000D02*
G75*
G02*
X73150000Y-195350000I50000J0D01*
G01*
X73150000Y-195350000D02*
G75*
G02*
X73050000Y-195350000I-50000J0D01*
G01*
%TD*%
M02*
