M48
; DRILL file {KiCad 9.0.2} date 2025-07-22T14:00:29+0900
; FORMAT={-:-/ absolute / metric / decimal}
; #@! TF.CreationDate,2025-07-22T14:00:29+09:00
; #@! TF.GenerationSoftware,Kicad,Pcbnew,9.0.2
; #@! TF.FileFunction,Plated,1,2,PTH
FMAT,2
METRIC
; #@! TA.AperFunction,Plated,PTH,ViaDrill
T1C0.300
; #@! TA.AperFunction,Plated,PTH,ComponentDrill
T2C1.000
; #@! TA.AperFunction,Plated,PTH,ComponentDrill
T3C1.200
; #@! TA.AperFunction,Plated,PTH,ComponentDrill
T4C1.500
; #@! TA.AperFunction,Plated,PTH,ComponentDrill
T5C1.520
; #@! TA.AperFunction,Plated,PTH,ComponentDrill
T6C1.700
; #@! TA.AperFunction,Plated,PTH,ComponentDrill
T7C1.800
; #@! TA.AperFunction,Plated,PTH,ComponentDrill
T8C2.000
; #@! TA.AperFunction,Plated,PTH,ComponentDrill
T9C2.030
; #@! TA.AperFunction,Plated,PTH,ComponentDrill
T10C2.700
; #@! TA.AperFunction,Plated,PTH,ComponentDrill
T11C2.900
; #@! TA.AperFunction,Plated,PTH,ComponentDrill
T12C3.200
%
G90
G05
T1
X77.5Y-204.0
X106.0Y-202.5
X126.5Y-71.0
X159.0Y-70.0
X201.0Y-70.0
T2
X185.5Y-58.637
X196.5Y-58.637
X201.0Y-58.637
X212.0Y-58.637
X216.5Y-58.637
X223.5Y-81.1
X223.5Y-92.1
X223.5Y-97.5
X223.5Y-108.5
X223.5Y-113.9
X223.5Y-124.9
X227.5Y-58.637
T3
X136.78Y-104.72
X136.78Y-109.8
X136.78Y-119.96
X182.5Y-102.18
X182.5Y-112.34
X182.5Y-122.5
T4
X105.28Y-77.082
X105.28Y-82.162
X105.28Y-92.322
X151.0Y-74.542
X151.0Y-84.703
X151.0Y-94.862
T5
X90.87Y-149.6
X93.62Y-149.6
X96.38Y-149.6
T6
X188.5Y-63.637
X193.5Y-63.637
X204.0Y-63.637
X209.0Y-63.637
X218.5Y-84.1
X218.5Y-89.1
X218.5Y-100.5
X218.5Y-105.5
X218.5Y-116.9
X218.5Y-121.9
X219.5Y-63.637
X224.5Y-63.637
T7
X61.82Y-58.0
X64.5Y-81.025
X64.5Y-94.525
X64.5Y-101.82
X64.5Y-115.32
X64.5Y-122.615
X64.5Y-136.115
X64.5Y-143.41
X64.5Y-156.91
X64.5Y-164.205
X64.5Y-177.705
X64.5Y-185.0
X64.5Y-198.5
X75.32Y-58.0
X82.5Y-58.0
X88.65Y-200.925
X96.0Y-58.0
X102.15Y-200.925
X103.18Y-58.0
X116.68Y-58.0
X123.86Y-58.0
X137.36Y-58.0
X141.75Y-200.925
X144.54Y-58.0
X155.25Y-200.925
X158.04Y-58.0
X162.875Y-200.925
X165.22Y-58.0
X176.375Y-200.925
X178.72Y-58.0
X184.0Y-200.925
X197.5Y-200.925
X223.5Y-130.9
X223.5Y-144.4
X223.5Y-152.0
X223.5Y-165.5
X223.5Y-173.25
X223.5Y-186.75
X223.5Y-194.5
X223.5Y-208.0
T8
X119.15Y-200.5
X132.65Y-200.5
T9
X86.75Y-112.4
X87.0Y-149.6
X92.25Y-112.4
X97.75Y-112.4
X103.0Y-149.6
X103.25Y-112.4
T10
X64.97Y-64.0
X70.5Y-84.175
X70.5Y-91.375
X70.5Y-104.97
X70.5Y-112.17
X70.5Y-125.765
X70.5Y-132.965
X70.5Y-146.56
X70.5Y-153.76
X70.5Y-167.355
X70.5Y-174.555
X70.5Y-188.15
X70.5Y-195.35
X72.17Y-64.0
X85.65Y-64.0
X91.8Y-194.925
X92.85Y-64.0
X99.0Y-194.925
X106.33Y-64.0
X113.53Y-64.0
X127.01Y-64.0
X134.21Y-64.0
X144.9Y-194.925
X147.69Y-64.0
X152.1Y-194.925
X154.89Y-64.0
X166.025Y-194.925
X168.37Y-64.0
X173.225Y-194.925
X175.57Y-64.0
X187.15Y-194.925
X194.35Y-194.925
X217.5Y-134.05
X217.5Y-141.25
X217.5Y-155.15
X217.5Y-162.35
X217.5Y-176.4
X217.5Y-183.6
X217.5Y-197.65
X217.5Y-204.85
T11
X122.3Y-194.5
X129.5Y-194.5
T12
X64.0Y-72.5
X64.0Y-206.5
X83.0Y-75.0
X83.0Y-163.0
X150.0Y-134.0
X150.0Y-163.0
X177.0Y-89.0
X202.0Y-165.0
X208.0Y-202.5
X224.0Y-72.5
M30
